<svg xmlns="http://www.w3.org/2000/svg" xmlns:xlink="http://www.w3.org/1999/xlink" viewBox="0 0 24 24">
  <circle fill="#F7F8F9" cx="12" cy="12" r="11"/>
  <path fill="#2E3191" d="M12 24C5.383 24 0 18.617 0 12S5.383 0 12 0s12 5.383 12 12-5.383 12-12 12zm0-22C6.486 2 2 6.486 2 12s4.486 10 10 10 10-4.486 10-10S17.514 2 12 2z"/>
  <defs>
    <path id="a" d="M13.193 20v-7.298h2.359l.353-2.844h-2.712V8.041c0-.823.22-1.385 1.357-1.385H16V4.112C15.749 4.077 14.888 4 13.887 4c-2.091 0-3.522 1.326-3.522 3.76v2.098H8v2.844h2.365V20h2.828z"/>
  </defs>
  <clipPath id="b">
    <use xlink:href="#a" overflow="visible"/>
  </clipPath>
  <path clip-path="url(#b)" fill="#2E3191" d="M3-1h18v26H3z"/>
</svg>
