<svg id="Infant" xmlns="http://www.w3.org/2000/svg" viewBox="0 0 597.15 406.31"><defs><style>.cls-1{fill:#f7f8f9;}.cls-2{fill:#243c95;}.cls-3{fill:#fff;}.cls-13,.cls-4{fill:#f37721;}.cls-5{font-size:17px;fill:#59595c;font-family:RobotoCondensed-Bold, Roboto Condensed;}.cls-6{font-weight:700;}.cls-7{font-size:14px;font-family:RobotoCondensed-Regular, Roboto Condensed;}.cls-8{letter-spacing:-0.01em;}.cls-9{fill:#58595b;}.cls-10{letter-spacing:-0.01em;}.cls-11{letter-spacing:0em;}.cls-12{letter-spacing:-0.02em;}.cls-13{stroke:#f37721;stroke-miterlimit:10;stroke-width:0.5px;}</style></defs>

<style type="text/css">
    @font-face {
        font-family: 'RobotoCondensed-Bold';
        src: url('../../../fonts/Roboto-Condensed/RobotoCondensed-Bold.eot');
        src: url('../../../fonts/Roboto-Condensed/RobotoCondensed-Bold.eot?#iefix') format('embedded-opentype'),
            url('../../../fonts/Roboto-Condensed/RobotoCondensed-Bold.woff') format('woff'),
            url('../../../fonts/Roboto-Condensed/RobotoCondensed-Bold.ttf') format('truetype'),
            url('../../../fonts/Roboto-Condensed/RobotoCondensed-Bold.svg#RobotoCondensed-Bold') format('svg');
        font-weight: bold;
        font-style: normal;
    }

    @font-face {
        font-family: 'RobotoCondensed-Regular';
        src: url('../../../fonts/Roboto-Condensed/RobotoCondensed-Regular.eot');
        src: url('../../../fonts/Roboto-Condensed/RobotoCondensed-Regular.eot?#iefix') format('embedded-opentype'),
            url('../../../fonts/Roboto-Condensed/RobotoCondensed-Regular.woff') format('woff'),
            url('../../../fonts/Roboto-Condensed/RobotoCondensed-Regular.ttf') format('truetype'),
            url('../../../fonts/Roboto-Condensed/RobotoCondensed-Regular.svg#RobotoCondensed-Regular') format('svg');
        font-weight: normal;
        font-style: normal;
    }
</style>

<title>1.0_Sec4_BodyMap_Infant_Desktop</title><rect class="cls-1" x="0.15" y="-0.08" width="597" height="405"/><path class="cls-2" d="M245.71,308.37h-.25a17.64,17.64,0,0,1-17.37-17.88c0-2.91-.2-6.21-.4-9.69-.51-8.57-1.08-18.29.61-29.45,2.43-16.09,10-31.15,22.45-44.75l1.2-1.31,1.72.42A48.88,48.88,0,0,1,280.39,223l3.89,4.87h-5.1c-11.36,11.17-14.65,19.61-16,28.8-.92,6.07-.61,12.59-.25,20.14.21,4.36.43,8.88.43,13.78V291A17.65,17.65,0,0,1,245.71,308.37ZM254,212c-10.92,12.35-17.56,25.88-19.73,40.25-1.59,10.54-1,19.92-.55,28.19.21,3.58.41,7,.41,10.1a11.65,11.65,0,0,0,11.45,11.83h.17a11.64,11.64,0,0,0,11.62-11.46v-.33c0-4.8-.21-9.24-.42-13.54-.36-7.54-.7-14.66.3-21.32,1.32-8.75,4.3-18.56,16.71-31.12A42.7,42.7,0,0,0,254,212Zm86.65,96.37h-.26A17.63,17.63,0,0,1,323,290.49c0-4.85.22-9.37.43-13.74.36-7.55.67-14.06-.25-20.13-1.38-9.19-4.67-17.63-16-28.8h-5l3.8-4.87a48.77,48.77,0,0,1,26.59-17.39l1.72-.41,1.2,1.3C348,220.09,355.57,235.2,358,251.35c1.68,11.16,1.11,20.87.61,29.44-.21,3.49-.4,6.79-.4,9.75V291a17.63,17.63,0,0,1-17.61,17.38Zm-28.23-83.78c12.41,12.57,15.4,22.38,16.72,31.13,1,6.66.66,13.78.3,21.32-.21,4.3-.42,8.74-.42,13.5a11.64,11.64,0,0,0,11.46,11.82h.16a11.62,11.62,0,0,0,11.62-11.46v-.33c0-3.18.2-6.56.41-10.14.49-8.27,1-17.65-.55-28.19-2.18-14.43-8.86-28-19.86-40.4A42.54,42.54,0,0,0,312.38,224.59ZM210.75,204.67a14.6,14.6,0,0,1-11.25-23.91l37.4-46.31c14.21-17.72,15-18,44.06-18h24.39c29,0,29.84.33,44.07,18.06L387,181a14.61,14.61,0,0,1-22.95,18.1l-31.3-38.76,1.76,26.93-2.24.71c-2.51.79-12.76,3.39-39.14,3.39S256.53,188.79,254,188l-2.24-.71,1.75-26.93-31.51,39A14.6,14.6,0,0,1,210.75,204.67Zm114.81-62.8,43.2,53.5a8.61,8.61,0,1,0,13.54-10.64l-.12-.15-37.44-46.36c-6.47-8.06-9.71-12.1-14.2-13.93-4.68-1.89-11.53-1.89-25.19-1.89H281c-13.66,0-20.52,0-25.19,1.89-4.49,1.83-7.74,5.87-14.2,13.93l-37.42,46.33a8.61,8.61,0,1,0,13.25,11l.13-.16,43.22-53.52-2.67,41c4.27.94,14.55,2.53,35.07,2.53s30.81-1.59,35.08-2.53ZM293.15,113.8a44.17,44.17,0,1,1,44.16-44.16A43.87,43.87,0,0,1,293.15,113.8Zm0-82.32a38.15,38.15,0,1,0,27,11.18A38.2,38.2,0,0,0,293.15,31.48Z"/><path class="cls-3" d="M255.18,182.11c-1.32-.22-2.71.86-3.42,2-3.76,6-5.64,22.47-.14,25.22,13.41,6.7,27.19,17.09,29.23,19.13,4.61,4.62,20,4.62,24.61,0,1.86-1.86,16.84-15.18,29.16-18.41,6-1.58,2.47-21.77.45-24.95-1.26-2-2.72-2.8-4.61-2.51C301.61,187,283.73,187,255.18,182.11Z"/><path class="cls-4" d="M293.15,234.92c-5.76,0-11.52-1.45-14.42-4.35-1.72-1.72-15-11.86-28.45-18.56-2.05-1-3.51-3-4.33-6-2-7.16.11-18.52,3.27-23.52,1.26-2,3.75-3.81,6.47-3.34h0c28,4.79,45.35,4.9,74.31.46,2.14-.33,5.19.07,7.6,3.86,2.1,3.29,5,18.08,2.25,25.07a6.65,6.65,0,0,1-4.46,4.39c-11.25,2.95-25.63,15.46-27.81,17.63C304.68,233.47,298.92,234.92,293.15,234.92Zm-38.26-49.81a1.87,1.87,0,0,0-.6.6c-2.35,3.73-4,13.47-2.56,18.7a3.66,3.66,0,0,0,1.23,2.23c13.54,6.77,27.6,17.28,30,19.69,3.42,3.43,16.94,3.43,20.37,0,.15-.15,16.31-15.46,30.52-19.19.31-.24,1.55-2.63.95-9.6-.47-5.38-1.75-10-2.27-10.84-.82-1.28-1.25-1.21-1.63-1.15C301.64,190,283.14,189.93,254.89,185.11Z"/><text class="cls-5" transform="translate(461.78 322.46)"><tspan class="cls-6">Bones</tspan><tspan class="cls-7"><tspan x="0" y="18">Softening or </tspan><tspan x="0" y="34">wea</tspan><tspan class="cls-8" x="22.36" y="34">k</tspan><tspan x="28.53" y="34">ening of bones </tspan><tspan x="0" y="50">(ric</tspan><tspan class="cls-8" x="18.33" y="50">k</tspan><tspan x="24.5" y="50">ets)</tspan></tspan></text><path class="cls-9" d="M318.72,164.43a7.76,7.76,0,0,0-7.67,6.68H275.68a7.76,7.76,0,0,0-15.4.28l-57.89,58.78h-6.24v1.5H203l57.33-58.21a7.76,7.76,0,0,0,15.4-.85H311a7.76,7.76,0,1,0,7.74-8.18ZM268,178a5.76,5.76,0,1,1,5.77-5.76A5.77,5.77,0,0,1,268,178Zm50.72,0a5.76,5.76,0,1,1,5.77-5.76A5.77,5.77,0,0,1,318.72,178Z"/><path class="cls-9" d="M385.59,335.17l-36.28-72.61c0-.24,0-.47,0-.72a7.77,7.77,0,1,0-.59,3l35.69,71.45.21.41h7.43v-1.5Zm-44-67.56a5.77,5.77,0,1,1,5.77-5.77A5.78,5.78,0,0,1,341.58,267.61Z"/><path class="cls-2" d="M161.94,256.08a25.65,25.65,0,1,1,25.64-25.64A25.67,25.67,0,0,1,161.94,256.08Zm0-49.4a23.76,23.76,0,1,0,23.76,23.76A23.79,23.79,0,0,0,161.94,206.68Z"/><path class="cls-4" d="M158.21,244a.92.92,0,0,1-.71-.32,1,1,0,0,1,.09-1.33h0s1.21-1.31.46-5.5a8.08,8.08,0,0,0-3.05-4.76,2.28,2.28,0,0,0,.29,2.06,6.06,6.06,0,0,1,.78,3.12,4.3,4.3,0,0,1-2.23,3.08,6.31,6.31,0,0,1-6,.27c-6.57-3-7.07-9.89-5.34-15.33a10.15,10.15,0,0,1,6.68-6.23,6.17,6.17,0,0,1,6,1.31c4,3.63,2.48,7.94.88,10.1a10,10,0,0,1,3.92,6.05c1,5.32-.87,7.07-1.08,7.25A.92.92,0,0,1,158.21,244ZM151,220.66a5.43,5.43,0,0,0-1.4.2,8.24,8.24,0,0,0-5.38,5c-.51,1.61-2.7,9.83,4.33,13a4.34,4.34,0,0,0,4.26-.16,2.72,2.72,0,0,0,1.34-1.54,4.3,4.3,0,0,0-.59-2.22,4,4,0,0,1-.19-4,4.09,4.09,0,0,0-.39-.22,9.66,9.66,0,0,1-2.29,3.45.95.95,0,1,1-1.27-1.4h0s2.83-2.64,2.09-6.12a.94.94,0,1,1,1.84-.4,7.4,7.4,0,0,1,.11,2.59c.25.12.56.28.92.49.75-1,2.86-4.5-.58-7.64A4,4,0,0,0,151,220.66ZM165.54,244a.85.85,0,0,1-.6-.23c-.21-.18-2-1.93-1.08-7.25a10,10,0,0,1,3.91-6.06c-1.59-2.15-3.1-6.46.89-10.09a6.11,6.11,0,0,1,5.8-1.34,10.4,10.4,0,0,1,6.83,6.24c1.87,5.39,1.44,12.25-5.33,15.35a6.36,6.36,0,0,1-6-.27,4.35,4.35,0,0,1-2.23-3.08,6.06,6.06,0,0,1,.78-3.12,2.28,2.28,0,0,0,.3-2.06,8.14,8.14,0,0,0-3.06,4.76c-.75,4.21.48,5.51.49,5.52a1,1,0,0,1,0,1.32A1,1,0,0,1,165.54,244Zm4.81-13a4,4,0,0,1-.18,4,4.2,4.2,0,0,0-.59,2.22,2.73,2.73,0,0,0,1.33,1.54,4.35,4.35,0,0,0,4.26.16c7.09-3.23,5.11-10.78,4.34-13a8.51,8.51,0,0,0-5.52-5,4.25,4.25,0,0,0-4.06.9c-3.47,3.17-1.33,6.64-.59,7.64.36-.21.68-.37.92-.49a7.91,7.91,0,0,1,.11-2.59.95.95,0,0,1,1.85.4c-.75,3.48,2.06,6.1,2.09,6.12a.95.95,0,0,1-1.27,1.4,9.76,9.76,0,0,1-2.3-3.45A4.09,4.09,0,0,0,170.35,231Z"/><text class="cls-5" transform="translate(70.11 210.46)"><tspan class="cls-6">Kidn<tspan class="cls-10" x="30.48" y="0">e</tspan><tspan class="cls-11" x="38.51" y="0">ys</tspan></tspan><tspan class="cls-7"><tspan class="cls-12" x="-47.01" y="18">F</tspan><tspan x="-40.52" y="18">anconi synd</tspan><tspan class="cls-8" x="25.57" y="18">r</tspan><tspan x="29.7" y="18">ome</tspan><tspan x="53.81" y="18" xml:space="preserve"> </tspan><tspan x="-37.41" y="32">(a type of kidney </tspan><tspan x="6.63" y="46">disease)</tspan></tspan></text><path class="cls-2" d="M426.7,361.08a25.65,25.65,0,1,1,25.65-25.64A25.67,25.67,0,0,1,426.7,361.08Zm0-49.4a23.76,23.76,0,1,0,23.76,23.76A23.79,23.79,0,0,0,426.7,311.68Z"/><path class="cls-13" d="M423.38,356.35H430a.64.64,0,0,0,.5-.2.65.65,0,0,0,.21-.51v-4a10.42,10.42,0,0,1,2.11-6.34,4.24,4.24,0,0,0-2.47-6.69,4.36,4.36,0,0,0,.91-2.71,4.58,4.58,0,0,0-.91-2.72,4.38,4.38,0,0,0,2.07-1.16h0a4.49,4.49,0,0,0,1.2-2.31,4.31,4.31,0,0,0-.8-3.22,10.42,10.42,0,0,1-2.11-6.34v-4a.62.62,0,0,0-.21-.5c-.15-.15-.35-.26-.5-.2l-6.64.1a.68.68,0,0,0-.7.7v4a10.48,10.48,0,0,1-2.11,6.34,4.23,4.23,0,0,0,2.46,6.69,4.43,4.43,0,0,0-.91,2.72,4.64,4.64,0,0,0,.91,2.71,4.23,4.23,0,0,0-2.46,6.69,10.5,10.5,0,0,1,2.11,6.34v4C422.68,356.15,423,356.5,423.38,356.35Zm1.36-24.5a2.23,2.23,0,0,1-1.16,0,2.88,2.88,0,0,1-2.36-2.36,2.73,2.73,0,0,1,.55-2.16,12.08,12.08,0,0,0,2.42-7.25v-3.32h5.13v3.32a12.3,12.3,0,0,0,2.41,7.25,2.7,2.7,0,0,1,.55,2.16,2.87,2.87,0,0,1-2.36,2.36,5,5,0,0,1-1.21-.1A4.35,4.35,0,0,0,424.74,331.85Zm.86,7a2.89,2.89,0,0,1-2.12-2.91,3.1,3.1,0,0,1,4.23-2.92,2.91,2.91,0,0,1,2.11,2.92A3.1,3.1,0,0,1,425.6,338.84ZM424.19,355v-3.32a12.25,12.25,0,0,0-2.42-7.24,2.77,2.77,0,0,1-.55-2.17,2.87,2.87,0,0,1,2.36-2.36,4.91,4.91,0,0,1,1.21.1c.6.2,1.51.8,4-.05a2.24,2.24,0,0,1,1.16-.05,2.88,2.88,0,0,1,2.36,2.36,2.73,2.73,0,0,1-.55,2.17,12,12,0,0,0-2.41,7.24V355Z"/></svg>