<svg xmlns="http://www.w3.org/2000/svg" viewBox="0 0 763 761">
  <g opacity=".15" fill="#CCC">
    <path d="M586.176 577.055c7.973-6.207 15.42-12.905 22.417-19.969C654.75 432.133 616.508 286.3 505.145 201.78c-19.406-14.727-40.003-26.8-61.353-36.298-30.045.158-59.771 6.18-87.326 17.812-13.026 5.499-25.555 12.26-37.446 20.132 51.411.15 103.182 16.362 147.222 49.785 107.889 81.879 129.163 236.412 47.424 344.478-6.056 8.006-12.553 15.476-19.356 22.523 13.616-2.958 26.953-7.136 39.812-12.564 18.487-7.802 36-18.096 52.054-30.593zM404.76 719.263c-31.157-3.914-61.082-12.151-89.13-24.288-50.963-.43-102.209-16.651-145.861-49.781C61.884 563.322 40.61 408.789 122.348 300.719c5.797-7.665 11.995-14.842 18.479-21.628 18.345-48.424 48.02-91.755 87.208-126.786-60.526 18.317-116.018 55.221-157.036 109.448C-32.183 398.184-5.324 593.266 130.87 696.629c91.401 69.364 209.165 80.061 307.937 38.366 9.764-4.122 19.33-8.781 28.679-13.921-20.808 1.393-41.819.815-62.726-1.811z"/>
    <path d="M620.761 191.365C554.402 33.635 372.315-40.607 214.851 25.864 98.711 74.891 27.957 186.986 25.424 305.731c9.071-18.555 19.998-36.517 32.911-53.59 18.664-24.674 40.713-46.435 65.332-64.717 25.845-44.194 65.563-80.724 116.2-102.1 124.731-52.654 268.97 6.156 321.535 131.099 3.787 9.002 6.99 18.106 9.632 27.27 33.178 41.002 55.248 88.821 65.651 138.938 14.539-61.755 10.504-128.449-15.924-191.266zm-73.697 244.451c-25.834 44.459-65.678 81.219-116.538 102.688-124.731 52.654-268.971-6.16-321.536-131.102-3.88-9.223-7.058-18.561-9.718-27.954-10.254 32.222-13.339 66.602-8.582 101.158 1.378 10.011 3.438 19.811 6.043 29.398 84.949 102.506 230.067 142.307 358.808 87.96 22.417-9.463 43.13-21.289 61.997-35.051 21.988-38.567 32.208-82.406 29.526-127.097z"/>
  </g>
  <path opacity=".15" fill="#CCC" d="M392.698 89.41c-49.613 8.49-96.684 29.143-137.556 60.957-65.356 50.877-107.025 124.205-117.324 206.474-2.989 23.883-3.213 47.686-.809 71.049 22.891 39.309 56.257 69.766 94.966 89.264-26.233-45.921-36.93-98.855-30.24-152.285 8.158-65.165 41.163-123.249 92.938-163.553 17.288-13.458 35.973-24.395 55.622-32.689 39.195-16.546 82.215-22.579 125.548-17.133 9.832 1.235 19.478 3.107 28.95 5.458-30.272-33.181-69.443-56.429-112.095-67.542zM689.99 204.994c-23.74-30.6-52.423-55.935-84.578-75.382 11.561 17.207 21.653 35.755 29.991 55.572 12.237 29.087 19.909 58.968 23.369 88.847 26.13 45.864 36.77 98.703 30.091 152.034-8.16 65.17-41.165 123.254-92.936 163.556-51.779 40.305-116.113 58.001-181.171 49.822l-.004.001c-9.561-1.201-18.945-3.003-28.167-5.26-52.339 8.365-105.026 3.493-153.798-12.751 47.513 45.025 107.827 73.731 173.95 82.036 54.709 6.872 109.011-.74 158.492-21.633 24.804-10.471 48.402-24.278 70.224-41.265 65.359-50.879 107.025-124.206 117.327-206.476 10.3-82.266-11.998-163.631-62.79-229.101z"/>
</svg>
