<svg xmlns="http://www.w3.org/2000/svg" viewBox="0 0 22 24">
  <path fill-rule="evenodd" clip-rule="evenodd" fill="#2E3191" d="M21.934 8.241C21.934 5.892 20.018 4 17.64 4h-2.411v1.958h2.411c1.288 0 2.312 1.011 2.312 2.284v11.517c0 1.272-1.024 2.284-2.312 2.284H4.229c-1.288 0-2.312-1.011-2.312-2.284V8.241c0-1.272 1.024-2.284 2.312-2.284H6.64V4H4.229C1.85 4-.066 5.892-.066 8.241v11.517C-.066 22.108 1.85 24 4.229 24H17.64c2.378 0 4.294-1.892 4.294-4.241V8.241z"/>
  <path fill-rule="evenodd" clip-rule="evenodd" fill="#2E3191" d="M9.938 0v13.694l-3.294-3.64-1.209 1.469 4.925 5.21c.176.167.383.267.589.267.206 0 .442-.1.59-.267l4.895-5.176-1.209-1.469-3.294 3.607V0H9.938z"/>
</svg>
