<svg id="Layer_1" data-name="Layer 1" xmlns="http://www.w3.org/2000/svg" xmlns:xlink="http://www.w3.org/1999/xlink" viewBox="0 0 508.7 276.4"><defs><style>.cls-1{fill:none;}.cls-2,.cls-3{isolation:isolate;fill:#767676;}.cls-2{font-size:21px;font-family:Roboto-Regular, Roboto;}.cls-3{font-size:48px;font-family:Roboto-Bold, Roboto;font-weight:700;}.cls-4{clip-path:url(#clip-path);}.cls-5{fill:#243c96;}.cls-6{fill:#f47721;}.cls-7{font-size:23px;fill:#58585b;font-family:Lora-Regular, Lora;}.cls-8{letter-spacing:0.02em;}.cls-9{letter-spacing:-0.01em;}.cls-10{letter-spacing:0em;}.cls-11{letter-spacing:-0.02em;}.cls-12{letter-spacing:-0.01em;}.cls-13{letter-spacing:-0.02em;}.cls-14{letter-spacing:-0.02em;}.cls-15{letter-spacing:0em;}.cls-16{letter-spacing:-0.01em;}.cls-17{letter-spacing:0em;}.cls-18{letter-spacing:-0.01em;}.cls-19{letter-spacing:-0.01em;}</style>

<style type="text/css">
    @font-face {
    font-family: 'Lora';
    src: url('../fonts/Lora/Lora-Bold.eot');
    src: url('../fonts/Lora/Lora-Bold.eot?#iefix') format('embedded-opentype'),
        url('../fonts/Lora/Lora-Bold.woff') format('woff'),
        url('../fonts/Lora/Lora-Bold.ttf') format('truetype'),
        url('../fonts/Lora/Lora-Bold.svg#Lora-Bold') format('svg');
    font-weight: bold;
    font-style: normal;
    }

    @font-face {
    font-family: 'Lora';
    src: url('../fonts/Lora/Lora-Regular.eot');
    src: url('../fonts/Lora/Lora-Regular.eot?#iefix') format('embedded-opentype'),
        url('../fonts/Lora/Lora-Regular.woff') format('woff'),
        url('../fonts/Lora/Lora-Regular.ttf') format('truetype'),
        url('../fonts/Lora/Lora-Regular.svg#Lora-Regular') format('svg');
    font-weight: normal;
    font-style: normal;
    }

    @font-face {
    font-family: 'Roboto';
    src: url('../fonts/Roboto/Roboto-Bold.eot');
    src: url('../fonts/Roboto/Roboto-Bold.eot?#iefix') format('embedded-opentype'),
        url('../fonts/Roboto/Roboto-Bold.woff') format('woff'),
        url('../fonts/Roboto/Roboto-Bold.ttf') format('truetype'),
        url('../fonts/Roboto/Roboto-Bold.svg#Roboto-Bold') format('svg');
    font-weight: bold;
    font-style: normal;
    }

    @font-face {
    font-family: 'Roboto';
    src: url('../fonts/Roboto/Roboto-Regular.eot');
    src: url('../fonts/Roboto/Roboto-Regular.eot?#iefix') format('embedded-opentype'),
        url('../fonts/Roboto/Roboto-Regular.woff') format('woff'),
        url('../fonts/Roboto/Roboto-Regular.ttf') format('truetype'),
        url('../fonts/Roboto/Roboto-Regular.svg#Roboto-Regular') format('svg');
    font-weight: normal;
    font-style: normal;
    }
</style>

<clipPath id="clip-path"><rect class="cls-1" x="3" y="71.8" width="135" height="76"/></clipPath></defs><title>genetic-mb</title><g id="_1.0---Epic-Content" data-name=" 1.0---Epic-Content"><g id="D-960---1.0-_02" data-name="D-960---1.0- 02"><g id="Sec-2---Understanding-Cystinosis"><g id="Genetic-Copy"><g id="Cystinosis-is-Copy-6"><text class="cls-2" transform="translate(2 17.96)">Cystinosis is</text></g><g id="GENETIC.-Copy-2"><text class="cls-3" transform="translate(0 63.96)">GEN</text><text class="cls-3" transform="translate(93.59 63.96)">E</text><text class="cls-3" transform="translate(121.05 63.96)">TIC.</text></g></g></g></g></g><g class="cls-4"><path class="cls-5" d="M5.5,80.3v-6A35.51,35.51,0,0,1,41,109.8a29.64,29.64,0,0,0,29.5,29.6v6A35.51,35.51,0,0,1,35,109.9,29.51,29.51,0,0,0,5.5,80.3"/></g><g class="cls-4"><path class="cls-6" d="M85.4,135.4V87.3a28.05,28.05,0,0,0-6-3V138A26.58,26.58,0,0,0,85.4,135.4Z"/><path class="cls-5" d="M70.5,139.5A29.62,29.62,0,0,1,41,110v-.2A35.51,35.51,0,0,0,5.5,74.3v6A29.49,29.49,0,0,1,35,109.8v.2a35.46,35.46,0,0,0,66.6,17,39.46,39.46,0,0,1-3-8.1A29.66,29.66,0,0,1,70.5,139.5Z"/><path class="cls-6" d="M116.3,128.7a26.61,26.61,0,0,0,6,4.6V83.5a27.29,27.29,0,0,0-6,4Z"/><path class="cls-5" d="M135.5,74.3a35.6,35.6,0,0,0-31.1,18.4,39.46,39.46,0,0,1,3,8.1,29.54,29.54,0,0,1,28.1-20.5v-6Z"/></g><g class="cls-4"><path class="cls-5" d="M135.5,139.4v6A35.51,35.51,0,0,1,100,109.9,29.64,29.64,0,0,0,70.5,80.3v-6A35.51,35.51,0,0,1,106,109.8a29.58,29.58,0,0,0,29.5,29.6M79.4,138a29.68,29.68,0,0,1-17.7,0l-6-2.6A29.56,29.56,0,0,1,41,109.8,35.51,35.51,0,0,0,5.5,74.3v6a28.1,28.1,0,0,1,11.8,2.5l6,3.5A29.46,29.46,0,0,1,35,109.8a35.52,35.52,0,0,0,54.5,30l-3.2-5c-.3.2-.7.4-1,.6Z"/></g><g class="cls-4"><path class="cls-6" d="M55.5,132.3a28.05,28.05,0,0,0,6,3V81.7a32.38,32.38,0,0,0-6,2.7Z"/><path class="cls-5" d="M39.4,92.7a39.46,39.46,0,0,1,3,8.1A29.63,29.63,0,0,1,55.5,84.4a29.16,29.16,0,0,1,15-4.1A29.58,29.58,0,0,1,100,109.9a35.51,35.51,0,0,0,35.5,35.5v-6A29.58,29.58,0,0,1,106,109.8,35.49,35.49,0,0,0,39.4,92.7Z"/></g><path class="cls-6" d="M17.6,85.7v51.1a32.91,32.91,0,0,0,6-3.6V89.8A27.69,27.69,0,0,0,17.6,85.7Z"/><path class="cls-5" d="M5.5,139.4v6A35.48,35.48,0,0,0,36.6,127a39.46,39.46,0,0,1-3-8.1A29.54,29.54,0,0,1,5.5,139.4Z"/><text class="cls-7" transform="translate(149 91.03)">Cystinosis is inher<tspan class="cls-8" x="195.25" y="0">i</tspan><tspan x="202.08" y="0">t</tspan><tspan class="cls-9" x="210.98" y="0">e</tspan><tspan x="223.33" y="0">d, which </tspan><tspan x="0" y="30">m</tspan><tspan class="cls-10" x="20.56" y="30">e</tspan><tspan x="32.98" y="30">ans </tspan><tspan class="cls-8" x="75.51" y="30">i</tspan><tspan x="82.34" y="30">t</tspan><tspan class="cls-11" x="91.24" y="30">’</tspan><tspan x="94.83" y="30">s pass</tspan><tspan class="cls-9" x="158.42" y="30">e</tspan><tspan x="170.77" y="30">d d</tspan><tspan class="cls-12" x="204.33" y="30">o</tspan><tspan x="217.56" y="30">wn in a </tspan><tspan x="0" y="60">perso</tspan><tspan class="cls-13" x="60.26" y="60">n</tspan><tspan class="cls-14" x="73.69" y="60">’</tspan><tspan x="77.28" y="60">s </tspan><tspan class="cls-9" x="93.98" y="60">g</tspan><tspan x="106.58" y="60">enes. Some p</tspan><tspan class="cls-15" x="247.13" y="60">e</tspan><tspan x="259.48" y="60">ople </tspan><tspan x="0" y="90">m</tspan><tspan class="cls-16" x="20.56" y="90">a</tspan><tspan class="cls-17" x="32.2" y="90">y be </tspan><tspan class="cls-10" x="82.29" y="90">c</tspan><tspan x="94.48" y="90">arriers </tspan><tspan class="cls-9" x="171.86" y="90">o</tspan><tspan x="185.2" y="90">f the dis</tspan><tspan class="cls-10" x="271.08" y="90">e</tspan><tspan x="283.5" y="90">ase. </tspan><tspan x="0" y="120">Carriers do</tspan><tspan class="cls-13" x="120.66" y="120">n</tspan><tspan x="134.09" y="120">’t h</tspan><tspan class="cls-18" x="166.82" y="120">a</tspan><tspan class="cls-9" x="178.41" y="120">v</tspan><tspan x="189.91" y="120">e the dis</tspan><tspan class="cls-10" x="280.48" y="120">e</tspan><tspan x="292.9" y="120">ase, </tspan><tspan x="0" y="150">but th</tspan><tspan class="cls-9" x="64.74" y="150">e</tspan><tspan x="77.09" y="150">y </tspan><tspan class="cls-10" x="95.29" y="150">c</tspan><tspan x="107.48" y="150">an pass </tspan><tspan class="cls-8" x="192.3" y="150">i</tspan><tspan x="199.13" y="150">t on to their </tspan><tspan x="0" y="180">child</tspan><tspan class="cls-19" x="52.48" y="180">r</tspan><tspan x="62.28" y="180" xml:space="preserve">en.  </tspan></text></svg>