<svg id="Layer_1" data-name="Layer 1" xmlns="http://www.w3.org/2000/svg" viewBox="0 0 494 357.8"><defs><style>.cls-1,.cls-2,.cls-3,.cls-4{isolation:isolate;fill:#767676;}.cls-1{font-size:21px;font-family:Roboto-Regular, Roboto;}.cls-2,.cls-3,.cls-4{font-size:48px;font-family:Roboto-Bold, Roboto;font-weight:700;}.cls-3{letter-spacing:-0.02em;}.cls-4{letter-spacing:-0.03em;}.cls-5{letter-spacing:-0.02em;}.cls-6{letter-spacing:-0.11em;}.cls-7{fill:#f47721;}.cls-8{fill:#234094;}.cls-9{font-size:23px;fill:#58585b;font-family:Lora-Regular, Lora;}.cls-10{letter-spacing:-0.01em;}.cls-11{letter-spacing:0em;}.cls-12{letter-spacing:0.02em;}.cls-13{letter-spacing:-0.01em;}.cls-14{letter-spacing:0em;}.cls-15{letter-spacing:0em;}.cls-16{letter-spacing:-0.01em;}.cls-17{letter-spacing:-0.01em;}.cls-18{letter-spacing:-0.01em;}.cls-19{letter-spacing:0.02em;}.cls-20{letter-spacing:-0.04em;}.cls-21{letter-spacing:-0.01em;}.cls-22{letter-spacing:0em;}.cls-23{letter-spacing:-0.01em;}</style></defs>

<style type="text/css">
    @font-face {
    font-family: 'Lora';
    src: url('../fonts/Lora/Lora-Bold.eot');
    src: url('../fonts/Lora/Lora-Bold.eot?#iefix') format('embedded-opentype'),
        url('../fonts/Lora/Lora-Bold.woff') format('woff'),
        url('../fonts/Lora/Lora-Bold.ttf') format('truetype'),
        url('../fonts/Lora/Lora-Bold.svg#Lora-Bold') format('svg');
    font-weight: bold;
    font-style: normal;
    }

    @font-face {
    font-family: 'Lora';
    src: url('../fonts/Lora/Lora-Regular.eot');
    src: url('../fonts/Lora/Lora-Regular.eot?#iefix') format('embedded-opentype'),
        url('../fonts/Lora/Lora-Regular.woff') format('woff'),
        url('../fonts/Lora/Lora-Regular.ttf') format('truetype'),
        url('../fonts/Lora/Lora-Regular.svg#Lora-Regular') format('svg');
    font-weight: normal;
    font-style: normal;
    }

    @font-face {
    font-family: 'Roboto';
    src: url('../fonts/Roboto/Roboto-Bold.eot');
    src: url('../fonts/Roboto/Roboto-Bold.eot?#iefix') format('embedded-opentype'),
        url('../fonts/Roboto/Roboto-Bold.woff') format('woff'),
        url('../fonts/Roboto/Roboto-Bold.ttf') format('truetype'),
        url('../fonts/Roboto/Roboto-Bold.svg#Roboto-Bold') format('svg');
    font-weight: bold;
    font-style: normal;
    }

    @font-face {
    font-family: 'Roboto';
    src: url('../fonts/Roboto/Roboto-Regular.eot');
    src: url('../fonts/Roboto/Roboto-Regular.eot?#iefix') format('embedded-opentype'),
        url('../fonts/Roboto/Roboto-Regular.woff') format('woff'),
        url('../fonts/Roboto/Roboto-Regular.ttf') format('truetype'),
        url('../fonts/Roboto/Roboto-Regular.svg#Roboto-Regular') format('svg');
    font-weight: normal;
    font-style: normal;
    }
</style>

<title>harms-whole-body-mb</title><g id="_1.0---Epic-Content" data-name=" 1.0---Epic-Content"><g id="D-960---1.0-_03" data-name="D-960---1.0- 03"><g id="Sec-2---Understanding-cystinosis"><g id="Harmful-to-the-whole-body-Copy"><g id="Cystinosis-is-Copy-8"><text class="cls-1" transform="translate(2 17.96)">Cystinosis is</text></g><g id="HARMFUL-TO-THE-WHOLE"><text class="cls-2" transform="translate(0 63.96)">H</text><text class="cls-2" transform="translate(34.34 63.96)">ARMFUL</text><text class="cls-3" transform="translate(223.2 63.96)"> </text><text class="cls-4" transform="translate(233.74 63.96)">T</text><text class="cls-2" transform="translate(262.78 63.96)">O</text><text class="cls-3" transform="translate(295.92 63.96)"> </text><text class="cls-2" transform="translate(306.47 63.96)">THE</text><text class="cls-2" transform="translate(142 106.96)">WHOLE BO<tspan class="cls-5" x="237.75" y="0">D</tspan><tspan class="cls-6" x="267.94" y="0">Y</tspan><tspan x="292.2" y="0">.</tspan></text></g></g></g></g></g><path class="cls-7" d="M29.1,108.7,18.6,100l3.6-2.6L14.6,87,28.4,97.4,23.7,100m74.5,8.7,10.5-8.7-3.6-2.5L112.8,87,98.9,97.5l4.7,2.5M.3,124.7l13,.4-.2,4.4,13.3-2.9-10.2-1.2.9-5.3m94,5.4-10.2,1.2,13.3,2.9-.2-4.4,13-.4-16.8-4.5M28.4,146.9l-7.8,11.2-2.9-3.4L8,163.3l9.2-14.7,2.9,4.4m78.8-6.1,7.8,11.2,2.9-3.4,9.7,8.6-9.2-14.7-3,4.4" transform="translate(0 0)"/><path class="cls-8" d="M71.7,209.8a7.23,7.23,0,0,1-7.3-7.1V157H62.8v45.6a7.13,7.13,0,0,1-6.9,7.3h-.3a7.23,7.23,0,0,1-7.3-7.1V125.7a16.8,16.8,0,0,0-1.3,6.2v15.5a6,6,0,0,1-6.5,5.4,5.89,5.89,0,0,1-5.4-5.4V132c0-19,9.2-28.3,28.3-28.3s28.2,9,28.7,28.3v15.5a6,6,0,0,1-6.5,5.4,5.89,5.89,0,0,1-5.4-5.4V132a14.68,14.68,0,0,0-1.3-6.2v76.9a7.13,7.13,0,0,1-7,7.2C71.9,209.8,71.8,209.8,71.7,209.8ZM61.9,155h3.6a.94.94,0,0,1,1,1v46.6a5.3,5.3,0,0,0,5.1,5.3h.1a5.21,5.21,0,0,0,5.3-5v-81a1,1,0,0,1,.7-1,1,1,0,0,1,1.1.4,19.56,19.56,0,0,1,3.5,10.8v15.5a4,4,0,0,0,8,0V132c-.5-17.9-9-26.3-26.7-26.3-17.9,0-26.3,8.3-26.3,26.3v15.5a3.89,3.89,0,0,0,4.4,3.5,3.94,3.94,0,0,0,3.5-3.5V132a18.25,18.25,0,0,1,3.5-10.7,1,1,0,0,1,1.8.6v80.7a5.3,5.3,0,0,0,5.1,5.3h.1a5.21,5.21,0,0,0,5.3-5V156A.83.83,0,0,1,61.9,155Zm1.5-52.9A14.62,14.62,0,0,1,48.8,87.5,14.6,14.6,0,1,1,78,87.4h0a14.58,14.58,0,0,1-14.6,14.7Zm0-27.3A12.7,12.7,0,1,0,76,87.5h0A12.51,12.51,0,0,0,63.4,74.8Z" transform="translate(0 0)"/><text class="cls-9" transform="translate(142 137.67)"><tspan class="cls-10">I</tspan><tspan x="7.52" y="0">n p</tspan><tspan class="cls-11" x="41.26" y="0">e</tspan><tspan x="53.61" y="0">ople w</tspan><tspan class="cls-12" x="123.99" y="0">i</tspan><tspan x="130.82" y="0">th </tspan><tspan class="cls-13" x="159.55" y="0">c</tspan><tspan x="171.67" y="0">ystinosis, an </tspan><tspan x="0" y="30">amino acid </tspan><tspan class="cls-14" x="122.73" y="30">c</tspan><tspan x="134.92" y="30">all</tspan><tspan class="cls-13" x="159.3" y="30">e</tspan><tspan x="171.65" y="30">d </tspan><tspan class="cls-15" x="191.45" y="30">c</tspan><tspan x="203.57" y="30">ystine </tspan><tspan class="cls-13" x="274.2" y="30">g</tspan><tspan class="cls-16" x="286.81" y="30">e</tspan><tspan x="299.11" y="30">ts </tspan><tspan x="0" y="60">t</tspan><tspan class="cls-17" x="8.9" y="60">r</tspan><tspan x="18.7" y="60">app</tspan><tspan class="cls-15" x="58.03" y="60">e</tspan><tspan x="70.38" y="60">d inside </tspan><tspan class="cls-13" x="159.99" y="60">c</tspan><tspan x="172.11" y="60">ells. This </tspan><tspan class="cls-14" x="271.1" y="60">c</tspan><tspan class="cls-18" x="283.29" y="60">a</tspan><tspan x="295.02" y="60">uses </tspan><tspan x="0" y="90">harm or dama</tspan><tspan class="cls-13" x="149.73" y="90">g</tspan><tspan x="162.33" y="90">e to </tspan><tspan class="cls-15" x="209.25" y="90">ev</tspan><tspan x="233.1" y="90">e</tspan><tspan class="cls-19" x="245.57" y="90">r</tspan><tspan x="255.92" y="90">y </tspan><tspan class="cls-13" x="274.11" y="90">c</tspan><tspan x="286.23" y="90">ell </tspan><tspan x="0" y="120">and o</tspan><tspan class="cls-13" x="59.09" y="120">r</tspan><tspan x="68.93" y="120">gan in the bo</tspan><tspan class="cls-18" x="208.03" y="120">d</tspan><tspan class="cls-20" x="221.65" y="120">y</tspan><tspan x="232.94" y="120">. A person </tspan><tspan x="0" y="150">m</tspan><tspan class="cls-21" x="20.56" y="150">a</tspan><tspan class="cls-22" x="32.2" y="150">y not </tspan><tspan class="cls-13" x="92.76" y="150">fe</tspan><tspan x="112.77" y="150">el the dama</tspan><tspan class="cls-13" x="236.78" y="150">g</tspan><tspan x="249.39" y="150">e, but </tspan><tspan class="cls-12" x="315.79" y="150">i</tspan><tspan x="322.62" y="150">t </tspan><tspan class="cls-14" x="0" y="180">c</tspan><tspan x="12.19" y="180">an be happening </tspan><tspan class="cls-13" x="194.69" y="180">ev</tspan><tspan x="218.54" y="180">en if the</tspan><tspan class="cls-23" x="306.45" y="180">r</tspan><tspan x="316.25" y="180">e </tspan><tspan x="0" y="210">a</tspan><tspan class="cls-17" x="11.87" y="210">r</tspan><tspan x="21.67" y="210">e no signs or symptoms.</tspan></text></svg>