<svg id="Layer_1" data-name="Layer 1" xmlns="http://www.w3.org/2000/svg" viewBox="0 0 494 293"><defs><style>.cls-1,.cls-2,.cls-3,.cls-4{isolation:isolate;fill:#767676;}.cls-1{font-size:21px;font-family:Roboto-Regular, Roboto;}.cls-2,.cls-3,.cls-4{font-size:48px;font-family:Roboto-Bold, Roboto;font-weight:700;}.cls-3{letter-spacing:-0.02em;}.cls-4{letter-spacing:-0.03em;}.cls-5{letter-spacing:-0.02em;}.cls-6{letter-spacing:-0.11em;}.cls-7{fill:#f47721;}.cls-8{fill:#234094;}.cls-9{font-size:16px;fill:#58585b;font-family:Lora-Regular, Lora;}.cls-10{letter-spacing:-0.01em;}.cls-11{letter-spacing:-0.01em;}.cls-12{letter-spacing:0.02em;}.cls-13{letter-spacing:0em;}.cls-14{letter-spacing:0em;}.cls-15{letter-spacing:0em;}.cls-16{letter-spacing:-0.01em;}.cls-17{letter-spacing:-0.01em;}.cls-18{letter-spacing:0em;}.cls-19{letter-spacing:-0.01em;}.cls-20{letter-spacing:0.02em;}.cls-21{letter-spacing:-0.04em;}.cls-22{letter-spacing:-0.01em;}</style></defs><title>harms-whole-body</title>

<style type="text/css">
    @font-face {
    font-family: 'Lora';
    src: url('../fonts/Lora/Lora-Bold.eot');
    src: url('../fonts/Lora/Lora-Bold.eot?#iefix') format('embedded-opentype'),
        url('../fonts/Lora/Lora-Bold.woff') format('woff'),
        url('../fonts/Lora/Lora-Bold.ttf') format('truetype'),
        url('../fonts/Lora/Lora-Bold.svg#Lora-Bold') format('svg');
    font-weight: bold;
    font-style: normal;
    }

    @font-face {
    font-family: 'Lora';
    src: url('../fonts/Lora/Lora-Regular.eot');
    src: url('../fonts/Lora/Lora-Regular.eot?#iefix') format('embedded-opentype'),
        url('../fonts/Lora/Lora-Regular.woff') format('woff'),
        url('../fonts/Lora/Lora-Regular.ttf') format('truetype'),
        url('../fonts/Lora/Lora-Regular.svg#Lora-Regular') format('svg');
    font-weight: normal;
    font-style: normal;
    }

    @font-face {
    font-family: 'Roboto';
    src: url('../fonts/Roboto/Roboto-Bold.eot');
    src: url('../fonts/Roboto/Roboto-Bold.eot?#iefix') format('embedded-opentype'),
        url('../fonts/Roboto/Roboto-Bold.woff') format('woff'),
        url('../fonts/Roboto/Roboto-Bold.ttf') format('truetype'),
        url('../fonts/Roboto/Roboto-Bold.svg#Roboto-Bold') format('svg');
    font-weight: bold;
    font-style: normal;
    }

    @font-face {
    font-family: 'Roboto';
    src: url('../fonts/Roboto/Roboto-Regular.eot');
    src: url('../fonts/Roboto/Roboto-Regular.eot?#iefix') format('embedded-opentype'),
        url('../fonts/Roboto/Roboto-Regular.woff') format('woff'),
        url('../fonts/Roboto/Roboto-Regular.ttf') format('truetype'),
        url('../fonts/Roboto/Roboto-Regular.svg#Roboto-Regular') format('svg');
    font-weight: normal;
    font-style: normal;
    }
</style>

<g id="_1.0---Epic-Content" data-name=" 1.0---Epic-Content"><g id="D-960---1.0-_03" data-name="D-960---1.0- 03"><g id="Sec-2---Understanding-cystinosis"><g id="Harmful-to-the-whole-body-Copy"><g id="Cystinosis-is-Copy-8"><text class="cls-1" transform="translate(2 17.96)">Cystinosis is</text></g><g id="HARMFUL-TO-THE-WHOLE"><text class="cls-2" transform="translate(0 63.96)">H</text><text class="cls-2" transform="translate(34.34 63.96)">ARMFUL</text><text class="cls-3" transform="translate(223.2 63.96)"> </text><text class="cls-4" transform="translate(233.74 63.96)">T</text><text class="cls-2" transform="translate(262.78 63.96)">O</text><text class="cls-3" transform="translate(295.92 63.96)"> </text><text class="cls-2" transform="translate(306.47 63.96)">THE</text><text class="cls-2" transform="translate(142 106.96)">WHOLE BO<tspan class="cls-5" x="237.75" y="0">D</tspan><tspan class="cls-6" x="267.94" y="0">Y</tspan><tspan x="292.2" y="0">.</tspan></text></g></g></g></g></g><path class="cls-7" d="M34.1,110.7,23.6,102l3.6-2.6L19.6,89,33.4,99.4,28.7,102m74.5,8.7,10.5-8.7-3.6-2.5L117.8,89,103.9,99.5l4.7,2.5M5.3,126.7l13,.4-.2,4.4,13.3-2.9-10.2-1.2.9-5.3m94,5.4-10.2,1.2,13.3,2.9-.2-4.4,13-.4-16.8-4.5M33.4,148.9l-7.8,11.2-2.9-3.4L13,165.3l9.2-14.7,2.9,4.4m78.8-6.1,7.8,11.2,2.9-3.4,9.7,8.6-9.2-14.7-3,4.4" transform="translate(0 1)"/><path class="cls-8" d="M76.7,211.8a7.23,7.23,0,0,1-7.3-7.1V159H67.8v45.6a7.13,7.13,0,0,1-6.9,7.3h-.3a7.23,7.23,0,0,1-7.3-7.1V127.7a16.8,16.8,0,0,0-1.3,6.2v15.5a6,6,0,0,1-6.5,5.4,5.89,5.89,0,0,1-5.4-5.4V134c0-19,9.2-28.3,28.3-28.3s28.2,9,28.7,28.3v15.5a6,6,0,0,1-6.5,5.4,5.89,5.89,0,0,1-5.4-5.4V134a14.68,14.68,0,0,0-1.3-6.2v76.9a7.13,7.13,0,0,1-7,7.2C76.9,211.8,76.8,211.8,76.7,211.8ZM66.9,157h3.6a.94.94,0,0,1,1,1v46.6a5.3,5.3,0,0,0,5.1,5.3h.1a5.21,5.21,0,0,0,5.3-5v-81a1,1,0,0,1,.7-1,1,1,0,0,1,1.1.4,19.56,19.56,0,0,1,3.5,10.8v15.5a4,4,0,0,0,8,0V134c-.5-17.9-9-26.3-26.7-26.3-17.9,0-26.3,8.3-26.3,26.3v15.5a3.89,3.89,0,0,0,4.4,3.5,3.94,3.94,0,0,0,3.5-3.5V134a18.25,18.25,0,0,1,3.5-10.7,1,1,0,0,1,1.8.6v80.7a5.3,5.3,0,0,0,5.1,5.3h.1a5.21,5.21,0,0,0,5.3-5V158A.83.83,0,0,1,66.9,157Zm1.5-52.9A14.62,14.62,0,0,1,53.8,89.5,14.6,14.6,0,1,1,83,89.4h0a14.58,14.58,0,0,1-14.6,14.7Zm0-27.3A12.7,12.7,0,1,0,81,89.5h0A12.51,12.51,0,0,0,68.4,76.8Z" transform="translate(0 1)"/><text class="cls-9" transform="translate(143 125.79)"><tspan class="cls-10">I</tspan><tspan x="5.23" y="0">n p</tspan><tspan class="cls-11" x="28.7" y="0">e</tspan><tspan x="37.3" y="0">ople w</tspan><tspan class="cls-12" x="86.26" y="0">i</tspan><tspan x="91.01" y="0">th </tspan><tspan class="cls-11" x="110.99" y="0">c</tspan><tspan class="cls-13" x="119.42" y="0">ystinosis, an amino acid </tspan><tspan class="cls-14" x="300.16" y="0">c</tspan><tspan x="308.64" y="0">all</tspan><tspan class="cls-11" x="325.6" y="0">e</tspan><tspan x="334.19" y="0">d </tspan><tspan class="cls-11" x="0" y="24">c</tspan><tspan x="8.43" y="24">ystine </tspan><tspan class="cls-15" x="57.57" y="24">g</tspan><tspan class="cls-16" x="66.34" y="24">e</tspan><tspan x="74.9" y="24">ts t</tspan><tspan class="cls-17" x="98.9" y="24">r</tspan><tspan x="105.71" y="24">app</tspan><tspan class="cls-11" x="133.07" y="24">e</tspan><tspan x="141.66" y="24">d inside </tspan><tspan class="cls-11" x="204" y="24">c</tspan><tspan x="212.43" y="24">ells. This </tspan><tspan class="cls-18" x="281.3" y="24">c</tspan><tspan class="cls-19" x="289.78" y="24">a</tspan><tspan x="297.94" y="24">uses </tspan><tspan x="0" y="48">harm or dama</tspan><tspan class="cls-11" x="104.16" y="48">g</tspan><tspan x="112.93" y="48">e to </tspan><tspan class="cls-15" x="145.56" y="48">ev</tspan><tspan x="162.16" y="48">e</tspan><tspan class="cls-20" x="170.83" y="48">r</tspan><tspan x="178.03" y="48">y </tspan><tspan class="cls-11" x="190.68" y="48">c</tspan><tspan x="199.12" y="48">ell and o</tspan><tspan class="cls-11" x="261.8" y="48">r</tspan><tspan x="268.65" y="48">gan in the </tspan><tspan x="0" y="72">bo</tspan><tspan class="cls-19" x="18.67" y="72">d</tspan><tspan class="cls-21" x="28.14" y="72">y</tspan><tspan x="36" y="72">. A person m</tspan><tspan class="cls-22" x="128.51" y="72">a</tspan><tspan x="136.61" y="72">y not </tspan><tspan class="cls-11" x="178.73" y="72">fe</tspan><tspan x="192.65" y="72">el the dama</tspan><tspan class="cls-11" x="278.92" y="72">g</tspan><tspan x="287.69" y="72">e, but </tspan><tspan class="cls-12" x="333.88" y="72">i</tspan><tspan x="338.64" y="72">t </tspan><tspan class="cls-18" x="0" y="96">c</tspan><tspan x="8.48" y="96">an be happening </tspan><tspan class="cls-11" x="135.44" y="96">ev</tspan><tspan x="152.03" y="96">en if the</tspan><tspan class="cls-16" x="213.18" y="96">r</tspan><tspan x="220" y="96">e a</tspan><tspan class="cls-17" x="241.13" y="96">r</tspan><tspan x="247.95" y="96">e no signs or </tspan><tspan x="0" y="120">symptoms.</tspan></text></svg>