<svg id="Layer_1" data-name="Layer 1" xmlns="http://www.w3.org/2000/svg" xmlns:xlink="http://www.w3.org/1999/xlink" viewBox="0 0 506.1 303.36"><defs><style>.cls-1{fill:none;}.cls-2{clip-path:url(#clip-path);}.cls-3{fill:#ebf9fe;}.cls-4{fill:#fff;}.cls-5{fill:#959595;stroke:#959595;}.cls-5,.cls-6{stroke-miterlimit:10;stroke-width:4px;}.cls-6{fill:#243c96;stroke:#243c96;}.cls-7{isolation:isolate;}</style><clipPath id="clip-path" transform="translate(25.1 16.66)"><rect class="cls-1" x="0.5" y="0.5" width="455" height="258"/></clipPath></defs><title>IEPvs504</title><g class="cls-2"><path class="cls-3" d="M-6.6-1.8H481V273.3H-6.6Z" transform="translate(25.1 16.66)"/><path class="cls-4" d="M19.7,94.34a29.86,29.86,0,0,0-29.8,29.4,25.13,25.13,0,0,0-15,22.9A25.44,25.44,0,0,0,.3,172H76.5a23.82,23.82,0,0,0,2.7-47.5,20.8,20.8,0,0,0-33.3-13.9A29.68,29.68,0,0,0,19.7,94.34Zm147.1-81.6a17,17,0,0,0-17,16.8,14.41,14.41,0,0,0,5.9,27.6h43.5a13.64,13.64,0,0,0,1.6-27.2A12,12,0,0,0,189,19.54a11.45,11.45,0,0,0-7.2,2.5,16.92,16.92,0,0,0-15-9.3ZM82.5,43a16.82,16.82,0,0,0-10.1-3.4A16.53,16.53,0,0,0,56,54.14a19,19,0,0,0,2.1,37.8h60.6a20.07,20.07,0,0,0,8.3-38.4,23.82,23.82,0,0,0-23.7-23.4A23.54,23.54,0,0,0,82.5,43Zm189.8,59.3a23.75,23.75,0,0,0-23.7,23.4,20,20,0,0,0-11.9,18.2,20.21,20.21,0,0,0,20.2,20.2h60.6a19,19,0,0,0,2.1-37.8,16.57,16.57,0,0,0-26.5-11.1,23.54,23.54,0,0,0-20.8-12.9ZM409.9-.36a20.8,20.8,0,0,0-33.3,13.9A23.82,23.82,0,0,0,379.3,61h76.2a25.44,25.44,0,0,0,25.4-25.4,25.13,25.13,0,0,0-15-22.9,29.92,29.92,0,0,0-29.8-29.4A29.57,29.57,0,0,0,409.9-.36Z" transform="translate(25.1 16.66)"/><path class="cls-5" d="M241,284.7h-7.4a12,12,0,0,1-12-12V2.5a12,12,0,0,1,12-12H241a12,12,0,0,1,12,12V272.7A12,12,0,0,1,241,284.7Z" transform="translate(25.1 16.66)"/><path class="cls-6" d="M375.4,83.4H218c-6.7,0-12.3-3.8-12.3-8.5v-51c0-4.7,5.5-8.5,12.3-8.5H375.4c4.7,0,20.6,15.5,32.1,26.1a10.61,10.61,0,0,1,0,15.8C396.3,67.6,380.1,83.4,375.4,83.4ZM98.1,166.7H255.5c6.7,0,12.3-3.8,12.3-8.5v-51c0-4.7-5.5-8.5-12.3-8.5H98.1c-4.7,0-20.6,15.5-32.1,26.1a10.61,10.61,0,0,0,0,15.8C77.2,150.9,93.4,166.7,98.1,166.7Z" transform="translate(25.1 16.66)"/><g class="cls-7"><path class="cls-4" d="M90.23,129.59,92,111.46h17.27v5.93H97.68L97,125a7.34,7.34,0,0,1,4.14-1.35,8,8,0,0,1,6.8,3.14c1.6,2.09,2.39,5.05,2.39,8.87a12.77,12.77,0,0,1-2.84,8.65,9.55,9.55,0,0,1-7.6,3.28,10.55,10.55,0,0,1-5.21-1.33,9.79,9.79,0,0,1-3.79-3.71,10.8,10.8,0,0,1-1.41-5.39h6.86a6.52,6.52,0,0,0,1.1,3.45,3,3,0,0,0,5-.43,10.33,10.33,0,0,0,.93-4.94,8,8,0,0,0-1.11-4.65,4,4,0,0,0-6.16-.22l-.45.61Z" transform="translate(25.1 16.66)"/><path class="cls-4" d="M135.63,132.38q0,7.41-2.68,11.32a9.46,9.46,0,0,1-15.26.11Q115,140,114.9,132.9v-6.74q0-7.38,2.68-11.28a9.5,9.5,0,0,1,15.33,0q2.67,3.87,2.72,11Zm-7-7.22a18.13,18.13,0,0,0-.83-6.33,2.77,2.77,0,0,0-2.6-2.1q-3.3,0-3.43,7.71v8.9a18.39,18.39,0,0,0,.85,6.42,2.81,2.81,0,0,0,2.63,2.11,2.68,2.68,0,0,0,2.51-2,17.07,17.07,0,0,0,.87-6Z" transform="translate(25.1 16.66)"/><path class="cls-4" d="M158.57,133.66h3v5.76h-3v7.71h-6.94v-7.71H139.82l-.32-4.49,12.11-23.47h7Zm-12.33,0h5.39V121.72l-.14.27Z" transform="translate(25.1 16.66)"/><path class="cls-4" d="M198.09,134.71q0,6.25-2.15,9.58a7.09,7.09,0,0,1-6.38,3.33,6.14,6.14,0,0,1-5.19-2.62v12.33h-6.94V120.62h6.42l.25,2.43a6.2,6.2,0,0,1,5.41-2.92,7.25,7.25,0,0,1,6.38,3.09q2.15,3.09,2.2,9.46ZM191.18,133a12.42,12.42,0,0,0-.85-5.44,3,3,0,0,0-2.85-1.59,3.3,3.3,0,0,0-3.11,1.79v12.42a3.3,3.3,0,0,0,3.16,1.72,2.86,2.86,0,0,0,2.85-1.75,13.71,13.71,0,0,0,.8-5.41Z" transform="translate(25.1 16.66)"/><path class="cls-4" d="M209.55,147.13h-7V109.5h7Z" transform="translate(25.1 16.66)"/><path class="cls-4" d="M227.51,147.13a9.73,9.73,0,0,1-.58-2.06,5.94,5.94,0,0,1-5.05,2.55,7.48,7.48,0,0,1-5.53-2.2,7.77,7.77,0,0,1-2.19-5.71,8,8,0,0,1,2.66-6.45c1.77-1.51,4.32-2.29,7.66-2.32h2.1v-2.13a4,4,0,0,0-.61-2.53,2.19,2.19,0,0,0-1.79-.73c-1.73,0-2.6,1-2.6,3h-6.93a7.66,7.66,0,0,1,2.76-6.06,10.26,10.26,0,0,1,7-2.39,9.44,9.44,0,0,1,6.75,2.27,8.51,8.51,0,0,1,2.39,6.48v12.47a13,13,0,0,0,1,5.37v.41Zm-4.09-4.95a3.87,3.87,0,0,0,2-.46,3.31,3.31,0,0,0,1.2-1.1V135.1h-1.66a3.54,3.54,0,0,0-2.78,1.13,4.32,4.32,0,0,0-1,3C221.12,141.2,221.89,142.18,223.42,142.18Z" transform="translate(25.1 16.66)"/><path class="cls-4" d="M244.88,120.62l.2,2.62a7.37,7.37,0,0,1,6.15-3.11q6.84,0,7,9.58v17.42h-7v-16.9a6,6,0,0,0-.67-3.27,2.62,2.62,0,0,0-2.36-1,3.22,3.22,0,0,0-2.94,1.94v19.25h-7V120.62Z" transform="translate(25.1 16.66)"/></g><g class="cls-7"><path class="cls-4" d="M280.46,64.32h-7.21V28.65h7.21Z" transform="translate(25.1 16.66)"/><path class="cls-4" d="M304.94,48.89H293.71v9.46H307v6H286.51V28.65h20.43v6H293.71v8.43h11.23Z" transform="translate(25.1 16.66)"/><path class="cls-4" d="M318.34,51.78V64.32h-7.21V28.65h12.16a11.18,11.18,0,0,1,8.44,3.28,11.81,11.81,0,0,1,3.15,8.53,11,11,0,0,1-3.12,8.28q-3.11,3-8.62,3Zm0-6h5a3.91,3.91,0,0,0,3.18-1.35,6,6,0,0,0,1.13-3.92,7,7,0,0,0-1.15-4.25,3.7,3.7,0,0,0-3.09-1.61h-5Z" transform="translate(25.1 16.66)"/></g><path class="cls-1" d="M-6.5-1.3H480.9V273.5H-6.5Z" transform="translate(25.1 16.66)"/><path class="cls-1" d="M57.2-.2H417.1V272.5H57.2Z" transform="translate(25.1 16.66)"/></g></svg>