<?xml version="1.0" encoding="utf-8"?>
<!-- Generator: Adobe Illustrator 22.0.1, SVG Export Plug-In . SVG Version: 6.00 Build 0)  -->
<!DOCTYPE svg PUBLIC "-//W3C//DTD SVG 1.1//EN" "http://www.w3.org/Graphics/SVG/1.1/DTD/svg11.dtd">
<svg version="1.1" id="Layer_1" xmlns="http://www.w3.org/2000/svg" xmlns:xlink="http://www.w3.org/1999/xlink" x="0px" y="0px"
	 viewBox="0 0 776 225.5" style="enable-background:new 0 0 776 225.5;" xml:space="preserve">
<style type="text/css">
	.st0{fill:#F27921;}
	.st1{fill:#2D368E;}
	.st2{fill:#00AC69;}
</style>
<g>
	<g>
		<g>
			<g>
				<g>
					<path class="st0" d="M172.5,171.2c2.4-1.9,4.6-3.8,6.7-6c13.8-37.2,2.4-80.7-30.9-105.9c-5.8-4.4-11.9-8-18.3-10.8
						c-9,0-17.8,1.8-26.1,5.3c-3.9,1.6-7.6,3.7-11.2,6c15.4,0,30.8,4.9,44,14.8c32.2,24.4,38.6,70.5,14.2,102.7
						c-1.8,2.4-3.7,4.6-5.8,6.7c4.1-0.9,8-2.1,11.9-3.7C162.5,178,167.7,174.9,172.5,171.2z"/>
				</g>
				<g>
					<path class="st0" d="M118.4,213.6c-9.3-1.2-18.2-3.6-26.6-7.2c-15.2-0.1-30.5-5-43.5-14.8C16,167.1,9.6,121,34,88.8
						c1.7-2.3,3.6-4.4,5.5-6.4C45,67.9,53.9,55,65.6,44.6C47.5,50,31,61,18.7,77.2C-12.1,117.9-4.1,176,36.6,206.8
						c27.3,20.7,62.4,23.9,91.9,11.4c2.9-1.2,5.8-2.6,8.6-4.1C130.9,214.5,124.6,214.3,118.4,213.6z"/>
				</g>
			</g>
			<g>
				<g>
					<path class="st1" d="M182.9,56.2C163,9.2,108.7-12.9,61.7,6.9C27,21.5,5.9,54.9,5.1,90.3c2.7-5.5,6-10.9,9.8-16
						C20.5,67,27.1,60.5,34.4,55C42.2,41.9,54,31,69.1,24.6c37.2-15.7,80.3,1.8,96,39.1c1.1,2.7,2.1,5.4,2.9,8.1
						c9.9,12.2,16.5,26.5,19.6,41.4C191.9,94.8,190.7,74.9,182.9,56.2z"/>
				</g>
			</g>
			<g>
				<g>
					<path class="st1" d="M160.8,129.1c-7.7,13.3-19.6,24.2-34.8,30.6c-37.2,15.7-80.3-1.8-96-39.1c-1.2-2.7-2.1-5.5-2.9-8.3
						c-3.1,9.6-4,19.9-2.6,30.2c0.4,3,1,5.9,1.8,8.8c25.4,30.6,68.7,42.4,107.1,26.2c6.7-2.8,12.9-6.3,18.5-10.4
						C158.6,155.5,161.6,142.4,160.8,129.1z"/>
				</g>
			</g>
		</g>
		<g>
			<g>
				<g>
					<g>
						<path class="st1" d="M303.4,53.5l-3-12.9c-4.1-1.5-8.9-2.3-14.5-2.3c-7.7,0-13.5,2.8-17.6,8.4c-4.1,5.6-6.1,13.4-6.1,23.4
							c0,10.1,2.2,17.6,6.6,22.5c4.4,4.9,10.3,7.3,17.7,7.3c1.7,0,3.4-0.2,5.4-0.6c1.9-0.4,3.8-0.9,5.6-1.6c1.8-0.7,3.5-1.5,5-2.3
							c1.5-0.8,2.7-1.6,3.7-2.3l2.9-2.3l4.5,7.3c-1.7,1.7-3.6,3.2-5.7,4.6c-2.1,1.4-4.4,2.7-6.9,3.8c-2.4,1.1-5,1.9-7.6,2.5
							c-2.6,0.6-5.3,0.9-8,0.9c-11.5,0-20.4-3.3-26.7-10c-6.3-6.7-9.4-16.4-9.4-29.2c0-6.4,0.9-12.2,2.7-17.4
							c1.8-5.2,4.3-9.6,7.6-13.3c3.3-3.6,7.3-6.5,11.9-8.5c4.6-2,9.8-3,15.6-3c1.7,0,3.6,0.1,5.7,0.4c2.1,0.3,4.1,0.6,6.1,1.1
							c2,0.5,3.9,0.9,5.6,1.4c1.8,0.5,3.2,1,4.3,1.4l3.6,1.4l-0.6,19.1H303.4z"/>
					</g>
					<g>
						<path class="st1" d="M381.5,90.8h7.9l1.2,9.7c0.8,0.3,1.9,0.5,3.6,0.7c1.6,0.2,3.2,0.3,4.8,0.3c4.9,0,8.4-0.7,10.7-2.2
							c2.2-1.5,3.3-3.7,3.3-6.7c0-2-0.8-3.6-2.3-4.9c-1.5-1.2-3.5-2.2-5.8-3c-2.3-0.8-4.9-1.7-7.6-2.5c-2.7-0.8-5.3-1.9-7.6-3.2
							c-2.3-1.3-4.3-3-5.8-5.1c-1.5-2.1-2.3-4.9-2.3-8.4c0-5.6,1.9-10,5.6-12.9c3.8-3,8.8-4.5,15-4.7c2.6,0.1,5.3,0.3,8.1,0.6
							c2.7,0.3,5.5,1,8.4,1.9l2.8,0.9l-0.3,15.2h-7.3l-1.8-8.8c-0.6-0.2-1.8-0.5-3.5-0.8c-1.7-0.3-3.6-0.5-5.5-0.5
							c-1.4,0-2.6,0.1-3.8,0.3c-1.2,0.2-2.3,0.6-3.2,1.1c-0.9,0.5-1.7,1.3-2.3,2.3c-0.6,1-0.8,2.2-0.8,3.6c0,2.2,0.8,3.9,2.3,5.1
							c1.5,1.2,3.5,2.3,5.8,3.2c2.3,0.9,4.9,1.8,7.6,2.6c2.7,0.8,5.3,1.9,7.6,3.2c2.3,1.3,4.3,3,5.8,5c1.5,2,2.3,4.7,2.3,8
							c0,3.2-0.7,5.9-2,8.4c-1.4,2.4-3.2,4.4-5.5,6c-2.3,1.6-5,2.8-8,3.6c-3,0.8-6.3,1.2-9.8,1.2c-1.3,0-2.6-0.1-4-0.2
							c-1.4-0.1-2.8-0.3-4.1-0.5c-1.4-0.2-2.6-0.4-3.8-0.6c-1.2-0.2-2.1-0.5-2.9-0.7l-2.6-0.7L381.5,90.8z"/>
					</g>
					<g>
						<path class="st1" d="M448.3,33.1v16.5h16.4v8.5h-16.4v36.2c0,4.6,1.9,6.9,5.6,6.9c2.4,0,5.3-0.9,8.8-2.8l3,6
							c-5.1,3.8-10.4,5.6-15.8,5.6c-3.8,0-7-1.3-9.4-3.8c-2.4-2.5-3.6-6.7-3.6-12.6V58.1h-11.3v-7.3l11.3-1.1V35.4L448.3,33.1z"/>
					</g>
					<g>
						<path class="st1" d="M491.6,49.1v50.8l8.5,2.8v6.2h-29.4v-6.2l9.6-2.8V58.1l-9.6-2.3v-6.2L491.6,49.1z M485.4,25.8
							c4.9,0,7.3,2.8,7.3,8.5c0,2.3-0.8,4.1-2.5,5.4c-1.7,1.3-3.4,1.9-5.3,1.9c-2,0-3.7-0.7-5-2.1c-1.3-1.4-1.9-3.3-1.9-5.8
							c0-2.5,0.7-4.4,2.1-5.8C481.5,26.5,483.3,25.8,485.4,25.8z"/>
					</g>
					<g>
						<path class="st1" d="M518.7,49.1l1,8c0.8-0.6,1.8-1.4,3.2-2.5c1.4-1.1,3-2.1,4.8-3c1.8-1,3.9-1.8,6.1-2.5
							c2.2-0.7,4.5-1.1,6.9-1.1c6.1,0,10.6,1.8,13.6,5.4c3,3.6,4.5,8.6,4.5,15v31.6l8.5,2.8v6.2h-27.1v-6.2l7.3-2.8V69.4
							c0-4.1-0.8-7.1-2.4-9c-1.6-1.9-4-2.9-7.2-2.9c-1.6,0-3.1,0.2-4.7,0.6c-1.5,0.4-3,1-4.3,1.6c-1.3,0.7-2.5,1.4-3.5,2.2
							c-1,0.8-1.9,1.6-2.5,2.3l-1.9,2.3v33.3l7.3,2.8v6.2H500v-6.2l9.6-2.8V58.1l-9.6-2.3v-6.2L518.7,49.1z"/>
					</g>
					<g>
						<path class="st1" d="M566,79.9c0-4.8,0.7-9.2,2.1-13.2c1.4-4,3.4-7.3,5.9-10.1c2.6-2.8,5.6-4.9,9.1-6.4
							c3.5-1.5,7.4-2.3,11.6-2.3c8.4,0,15,2.7,19.6,8c4.7,5.3,7,12.8,7,22.2c0,4.7-0.7,8.9-2,12.8c-1.4,3.9-3.3,7.2-5.7,10
							c-2.4,2.8-5.4,5-8.9,6.6c-3.5,1.6-7.4,2.4-11.7,2.4c-8.6,0-15.2-2.6-19.9-7.7C568.3,97.2,566,89.7,566,79.9z M594.2,57
							c-10.9,0-16.4,7.3-16.4,22s5.3,22,15.8,22c5.5,0,9.5-1.9,12-5.6c2.5-3.8,3.8-9.4,3.8-16.9C609.5,64.1,604.4,57,594.2,57z"/>
					</g>
					<g>
						<path class="st1" d="M625.3,90.8h7.9l1.2,9.7c0.8,0.3,1.9,0.5,3.6,0.7c1.6,0.2,3.2,0.3,4.8,0.3c4.9,0,8.4-0.7,10.7-2.2
							c2.2-1.5,3.3-3.7,3.3-6.7c0-2-0.8-3.6-2.3-4.9c-1.5-1.2-3.5-2.2-5.8-3c-2.3-0.8-4.9-1.7-7.6-2.5c-2.7-0.8-5.3-1.9-7.6-3.2
							c-2.3-1.3-4.3-3-5.8-5.1c-1.5-2.1-2.3-4.9-2.3-8.4c0-5.6,1.9-10,5.6-12.9c3.8-3,8.8-4.5,15-4.7c2.6,0.1,5.3,0.3,8.1,0.6
							c2.7,0.3,5.5,1,8.4,1.9l2.8,0.9l-0.3,15.2h-7.3l-1.8-8.8c-0.6-0.2-1.8-0.5-3.5-0.8c-1.7-0.3-3.6-0.5-5.5-0.5
							c-1.4,0-2.6,0.1-3.8,0.3c-1.2,0.2-2.3,0.6-3.2,1.1c-0.9,0.5-1.7,1.3-2.3,2.3c-0.6,1-0.8,2.2-0.8,3.6c0,2.2,0.8,3.9,2.3,5.1
							c1.5,1.2,3.5,2.3,5.8,3.2c2.3,0.9,4.9,1.8,7.6,2.6c2.7,0.8,5.3,1.9,7.6,3.2c2.3,1.3,4.3,3,5.8,5c1.5,2,2.3,4.7,2.3,8
							c0,3.2-0.7,5.9-2,8.4c-1.4,2.4-3.2,4.4-5.5,6c-2.3,1.6-5,2.8-8,3.6c-3,0.8-6.3,1.2-9.8,1.2c-1.3,0-2.6-0.1-4-0.2
							c-1.4-0.1-2.8-0.3-4.1-0.5c-1.4-0.2-2.6-0.4-3.8-0.6c-1.2-0.2-2.1-0.5-2.9-0.7l-2.6-0.7L625.3,90.8z"/>
					</g>
					<g>
						<path class="st1" d="M691.3,49.1v50.8l8.5,2.8v6.2h-29.4v-6.2l9.6-2.8V58.1l-9.6-2.3v-6.2L691.3,49.1z M685.1,25.8
							c4.9,0,7.3,2.8,7.3,8.5c0,2.3-0.8,4.1-2.5,5.4c-1.7,1.3-3.4,1.9-5.3,1.9c-2,0-3.7-0.7-5-2.1c-1.3-1.4-1.9-3.3-1.9-5.8
							c0-2.5,0.7-4.4,2.1-5.8C681.2,26.5,683,25.8,685.1,25.8z"/>
					</g>
					<g>
						<path class="st1" d="M704.5,90.8h7.9l1.2,9.7c0.8,0.3,1.9,0.5,3.6,0.7c1.6,0.2,3.2,0.3,4.8,0.3c4.9,0,8.4-0.7,10.7-2.2
							c2.2-1.5,3.3-3.7,3.3-6.7c0-2-0.8-3.6-2.3-4.9c-1.5-1.2-3.5-2.2-5.8-3c-2.3-0.8-4.9-1.7-7.6-2.5c-2.7-0.8-5.3-1.9-7.6-3.2
							c-2.3-1.3-4.3-3-5.8-5.1c-1.5-2.1-2.3-4.9-2.3-8.4c0-5.6,1.9-10,5.6-12.9c3.8-3,8.8-4.5,15-4.7c2.6,0.1,5.3,0.3,8.1,0.6
							c2.7,0.3,5.5,1,8.4,1.9l2.8,0.9l-0.3,15.2h-7.3l-1.8-8.8c-0.6-0.2-1.8-0.5-3.5-0.8c-1.7-0.3-3.6-0.5-5.5-0.5
							c-1.4,0-2.6,0.1-3.8,0.3c-1.2,0.2-2.3,0.6-3.2,1.1c-0.9,0.5-1.7,1.3-2.3,2.3c-0.6,1-0.8,2.2-0.8,3.6c0,2.2,0.8,3.9,2.3,5.1
							c1.5,1.2,3.5,2.3,5.8,3.2c2.3,0.9,4.9,1.8,7.6,2.6c2.7,0.8,5.3,1.9,7.6,3.2c2.3,1.3,4.3,3,5.8,5c1.5,2,2.3,4.7,2.3,8
							c0,3.2-0.7,5.9-2,8.4c-1.4,2.4-3.2,4.4-5.5,6c-2.3,1.6-5,2.8-8,3.6c-3,0.8-6.3,1.2-9.8,1.2c-1.3,0-2.6-0.1-4-0.2
							c-1.4-0.1-2.8-0.3-4.1-0.5c-1.4-0.2-2.6-0.4-3.8-0.6c-1.2-0.2-2.1-0.5-2.9-0.7l-2.6-0.7L704.5,90.8z"/>
					</g>
					<g>
						<path class="st1" d="M340.6,140l1,8c0.8-0.6,1.8-1.4,3.2-2.5c1.4-1.1,3-2.1,4.8-3c1.8-1,3.9-1.8,6.1-2.5
							c2.2-0.7,4.5-1.1,6.9-1.1c6.1,0,10.6,1.8,13.6,5.4c3,3.6,4.5,8.6,4.5,15v31.6l8.5,2.8v6.2H362v-6.2l7.3-2.8v-30.5
							c0-4.1-0.8-7.1-2.4-9s-4-2.9-7.2-2.9c-1.6,0-3.1,0.2-4.7,0.6c-1.5,0.4-3,1-4.3,1.6c-1.3,0.7-2.5,1.4-3.5,2.2s-1.9,1.6-2.5,2.3
							l-1.9,2.3v33.3l7.3,2.8v6.2h-28.2v-6.2l9.6-2.8v-41.8l-9.6-2.3v-6.2L340.6,140z"/>
					</g>
					<g>
						<path class="st1" d="M407.7,140v50.8l8.5,2.8v6.2h-29.4v-6.2l9.6-2.8v-41.8l-9.6-2.3v-6.2L407.7,140z M401.5,116.8
							c4.9,0,7.3,2.8,7.3,8.5c0,2.3-0.8,4.1-2.5,5.4c-1.7,1.3-3.4,1.9-5.3,1.9c-2,0-3.7-0.7-5-2.1c-1.3-1.4-1.9-3.3-1.9-5.8
							c0-2.5,0.7-4.4,2.1-5.8C397.6,117.5,399.4,116.8,401.5,116.8z"/>
					</g>
					<g>
						<path class="st1" d="M435.3,124.1v16.5h16.4v8.5h-16.4v36.2c0,4.6,1.9,6.9,5.6,6.9c2.4,0,5.3-0.9,8.8-2.8l3,6
							c-5.1,3.8-10.4,5.6-15.8,5.6c-3.8,0-7-1.3-9.4-3.8c-2.4-2.5-3.6-6.7-3.6-12.6v-35.6h-11.3v-7.3l11.3-1.1v-14.2L435.3,124.1z"
							/>
					</g>
					<g>
						<path class="st1" d="M502.9,171.4l-39,0.2c0,6.2,1.5,11.1,4.5,14.8c3,3.7,6.9,5.5,11.9,5.5c1.7,0,3.3-0.1,5-0.5
							c1.7-0.3,3.2-0.7,4.7-1.1c1.5-0.5,2.8-1,4-1.5c1.2-0.6,2.2-1.1,3-1.6l2.3-1.5l4,5.9c-2.6,2-4.9,3.6-7.1,4.8
							c-2.1,1.2-4.7,2.2-7.6,3.2c-2.9,0.9-6,1.4-9.4,1.4c-8.9,0-15.6-2.7-20.2-8.1c-4.6-5.4-6.9-12.7-6.9-22.1c0-4.7,0.7-9,2-12.9
							c1.4-3.9,3.3-7.3,5.7-10.1c2.4-2.8,5.4-5,8.8-6.6c3.4-1.6,7.1-2.4,11.2-2.4c15.8,0,23.7,8.8,23.7,26.5L502.9,171.4z
							 M464.4,163.2h27.1c0-4.6-1-8.3-2.9-11.2c-2-2.9-5.1-4.3-9.5-4.3c-4.3,0-7.7,1.5-10.3,4.3C466.2,155,464.7,158.7,464.4,163.2z
							"/>
					</g>
					<g>
						<path class="st1" d="M560.1,112.9v77.9l9.6,2.3v6.2l-19.2,0.6l-0.9-6.4c-5,5-11.3,7.6-18.6,7.6c-7.3,0-12.9-2.6-16.9-7.8
							c-4-5.2-5.9-12.5-5.9-21.7c0-9.9,2.5-17.7,7.6-23.7c5-5.9,12.5-8.9,22.4-8.9c3.7,0,7.3,0.6,10.7,1.8V122l-9.6-2.3v-6.2
							L560.1,112.9z M548.8,183.5v-33.3c-2.6-1.5-6.6-2.3-11.9-2.3c-11.3,0-16.9,7.5-16.9,22.6c0,6.6,1.1,11.9,3.4,15.7
							c2.3,3.8,5.9,5.8,10.7,5.8c3.7,0,6.8-1,9.4-2.9C545.9,187.1,547.7,185.2,548.8,183.5z"/>
					</g>
				</g>
				<g>
					<path class="st1" d="M315.3,129.9v37.8c0,11.1-2.3,19.4-7,25c-4.7,5.6-12.5,8.4-23.6,8.4s-18.9-2.6-23.5-7.7
						c-4.6-5.2-6.9-13.1-6.9-23.9v-39.5l-9.6-2.3v-6.2l32.2-0.6v6.8l-10.7,2.3v39.5c0,8.3,1.4,14,4.3,17.2c2.9,3.2,7.7,4.8,14.6,4.8
						c6.8,0,11.6-1.8,14.3-5.3c2.7-3.5,4.1-9.7,4.1-18.5v-37.8l-10.7-2.3v-6.2l32.2-0.6v6.8L315.3,129.9z"/>
				</g>
			</g>
			<g>
				<path class="st1" d="M353.4,49.6v6.2l7.9,1.7l-12.4,39L335.3,57l7.9-1.1v-6.8l-26.5,0.6v6.2l6.8,1.7l20.2,51.6
					c-2.8,6.1-5.6,10.7-8.3,13.8c-2.7,3.1-6,4.6-9.7,4.6h-3.8v8.1l4.4,0.3c9.1-0.1,16.5-5,22.1-14.7c1.8-3.2,4.6-9.8,8.4-19.6
					l16-44.7l7.3-1.1v-6.8L353.4,49.6z"/>
			</g>
		</g>
	</g>
	<g>
		<path class="st2" d="M114.8,25.8C99.9,28.3,85.9,34.5,73.7,44c-19.5,15.2-32,37-35,61.5c-0.9,7.1-1,14.2-0.2,21.2
			c6.8,11.7,16.8,20.8,28.4,26.6c-7.8-13.7-11-29.5-9-45.4C60.2,88.5,70,71.2,85.5,59.2c5.2-4,10.7-7.3,16.6-9.7
			c11.7-4.9,24.5-6.7,37.5-5.1c2.9,0.4,5.8,0.9,8.6,1.6C139.2,36.1,127.5,29.1,114.8,25.8z"/>
		<path class="st2" d="M203.5,60.3c-7.1-9.1-15.7-16.7-25.3-22.5c3.5,5.1,6.5,10.7,9,16.6c3.7,8.7,5.9,17.6,7,26.5
			c7.8,13.7,11,29.4,9,45.3c-2.4,19.4-12.3,36.7-27.7,48.7c-15.5,12-34.7,17.3-54.1,14.9h0c-2.9-0.4-5.7-0.9-8.4-1.6
			c-15.6,2.5-31.4,1-45.9-3.8c14.2,13.4,32.2,22,51.9,24.5c16.3,2,32.5-0.2,47.3-6.4c7.4-3.1,14.5-7.2,21-12.3
			c19.5-15.2,32-37,35-61.5C225.3,104,218.7,79.8,203.5,60.3z"/>
	</g>
	<g>
		<path class="st1" d="M751.5,40.5v-1.6l1.5-0.4v-8.6h-1.7l-0.5,1.7h-1.7v-3.8l10.4-0.1v3.8h-1.7l-0.5-1.7h-1.7v8.6l1.5,0.4v1.6
			H751.5z"/>
		<path class="st1" d="M765.6,38.9v1.6h-5.1v-1.6l1.3-0.4v-8.6l-1.3-0.5v-1.5l4.6-0.1l2.7,6l2.8-5.9l4.3-0.1v1.6l-1.3,0.5v8.6
			l1.3,0.4v1.6h-5.4v-1.6l1.4-0.4v-6.8c-0.2,0.6-0.5,1.1-0.7,1.8s-0.6,1.3-1,2s-0.6,1.3-0.8,1.7l-1.9,0.1l-2.1-4.3l-0.3-0.9v6.5
			L765.6,38.9z"/>
	</g>
</g>
</svg>
