<svg id="Layer_1" data-name="Layer 1" xmlns="http://www.w3.org/2000/svg" viewBox="0 0 512.83 170.3"><defs>
<style>
    .cls-1,.cls-2,.cls-3,.cls-4{isolation:isolate;}
    .cls-2{font-size:21px;font-family:Roboto-Regular, Roboto;}
    .cls-2,.cls-3{fill:#767676;}
    .cls-3{font-size:48px;font-family:Roboto-Bold, Roboto;font-weight:700;}
    .cls-4{font-size:16px;fill:#58585b;font-family:Lora-Regular, Lora;}
    .cls-5{letter-spacing:0em;}
    .cls-6{letter-spacing:-0.01em;}
    .cls-7{letter-spacing:-0.01em;}
    .cls-8{letter-spacing:-0.01em;}
    .cls-9{letter-spacing:0em;}
    .cls-10{letter-spacing:0em;}
    .cls-11{letter-spacing:0em;}
    .cls-12{letter-spacing:0em;}
    .cls-13{letter-spacing:0em;}
    .cls-14{letter-spacing:-0.01em;}
    .cls-15{letter-spacing:-0.01em;}
    .cls-16{letter-spacing:-0.01em;}
    .cls-17{letter-spacing:-0.01em;}
    .cls-18{letter-spacing:-0.01em;}
    .cls-19{fill:#243c96;}
    .cls-20{fill:#ea7200;}
</style></defs>

<style type="text/css">
    @font-face {
    font-family: 'Lora';
    src: url('../fonts/Lora/Lora-Bold.eot');
    src: url('../fonts/Lora/Lora-Bold.eot?#iefix') format('embedded-opentype'),
        url('../fonts/Lora/Lora-Bold.woff') format('woff'),
        url('../fonts/Lora/Lora-Bold.ttf') format('truetype'),
        url('../fonts/Lora/Lora-Bold.svg#Lora-Bold') format('svg');
    font-weight: bold;
    font-style: normal;
    }

    @font-face {
    font-family: 'Lora';
    src: url('../fonts/Lora/Lora-Regular.eot');
    src: url('../fonts/Lora/Lora-Regular.eot?#iefix') format('embedded-opentype'),
        url('../fonts/Lora/Lora-Regular.woff') format('woff'),
        url('../fonts/Lora/Lora-Regular.ttf') format('truetype'),
        url('../fonts/Lora/Lora-Regular.svg#Lora-Regular') format('svg');
    font-weight: normal;
    font-style: normal;
    }

    @font-face {
    font-family: 'Roboto';
    src: url('../fonts/Roboto/Roboto-Bold.eot');
    src: url('../fonts/Roboto/Roboto-Bold.eot?#iefix') format('embedded-opentype'),
        url('../fonts/Roboto/Roboto-Bold.woff') format('woff'),
        url('../fonts/Roboto/Roboto-Bold.ttf') format('truetype'),
        url('../fonts/Roboto/Roboto-Bold.svg#Roboto-Bold') format('svg');
    font-weight: bold;
    font-style: normal;
    }

    @font-face {
    font-family: 'Roboto';
    src: url('../fonts/Roboto/Roboto-Regular.eot');
    src: url('../fonts/Roboto/Roboto-Regular.eot?#iefix') format('embedded-opentype'),
        url('../fonts/Roboto/Roboto-Regular.woff') format('woff'),
        url('../fonts/Roboto/Roboto-Regular.ttf') format('truetype'),
        url('../fonts/Roboto/Roboto-Regular.svg#Roboto-Regular') format('svg');
    font-weight: normal;
    font-style: normal;
    }
</style>

<title>progressive</title><g id="_1.0---Epic-Content" data-name="1.0---Epic-Content"><g id="D-960---1.0-_04" data-name="D-960---1.0- 04"><g id="Sec-2---Understanding-cystinosis"><g id="Progressive"><g id="Cystinosis-is-Copy-2" class="cls-1"><text class="cls-2" transform="translate(2 17.96)">Cystinosis is</text></g><g id="PROGRESSIVE." class="cls-1"><text class="cls-3" transform="translate(0 63.96)">PROGRESSIVE.</text></g><g id="Cystinosis-gets-wors" class="cls-1"><text class="cls-4" transform="translate(151 93.96)">Cystinosis <tspan class="cls-5" x="80.32" y="0">g</tspan><tspan class="cls-6" x="89.09" y="0">e</tspan><tspan x="97.65" y="0">ts </tspan><tspan class="cls-7" x="115.45" y="0">w</tspan><tspan x="128.08" y="0">orse </tspan><tspan class="cls-8" x="164.65" y="0">ov</tspan><tspan x="181.93" y="0">er time, and dama</tspan><tspan class="cls-8" x="315.79" y="0">g</tspan><tspan x="324.56" y="0">e to </tspan></text><text class="cls-4" transform="translate(151 117.96)"><tspan class="cls-5">c</tspan><tspan x="8.43" y="0">ells </tspan><tspan class="cls-9" x="37.42" y="0">c</tspan><tspan x="45.9" y="0">annot be undone. The </tspan><tspan class="cls-10" x="212.96" y="0">g</tspan><tspan class="cls-11" x="221.72" y="0">oal </tspan><tspan class="cls-5" x="247.9" y="0">o</tspan><tspan class="cls-12" x="257.18" y="0">f t</tspan><tspan class="cls-6" x="272.99" y="0">r</tspan><tspan class="cls-13" x="279.8" y="0">e</tspan><tspan class="cls-6" x="288.44" y="0">a</tspan><tspan x="296.59" y="0">tme</tspan><tspan class="cls-14" x="325.75" y="0">n</tspan><tspan x="335.32" y="0">t is </tspan></text><text class="cls-4" transform="translate(151 141.96)">to sl<tspan class="cls-15" x="31.52" y="0">o</tspan><tspan x="40.72" y="0">w d</tspan><tspan class="cls-16" x="67.31" y="0">o</tspan><tspan x="76.51" y="0">wn dama</tspan><tspan class="cls-5" x="143.63" y="0">g</tspan><tspan x="152.4" y="0">e to the bo</tspan><tspan class="cls-17" x="232.36" y="0">d</tspan><tspan x="241.84" y="0">y </tspan><tspan class="cls-18" x="254.49" y="0">b</tspan><tspan x="263.68" y="0">y </tspan><tspan class="cls-6" x="276.33" y="0">r</tspan><tspan class="cls-5" x="283.15" y="0">e</tspan><tspan x="291.74" y="0">ducing </tspan></text><text class="cls-4" transform="translate(151 165.96)"><tspan class="cls-5">c</tspan><tspan class="cls-11" x="8.43" y="0">ystine buildup in </tspan><tspan class="cls-5" x="136.57" y="0">c</tspan><tspan x="145.01" y="0">ells.</tspan></text></g></g></g></g></g><path class="cls-19" d="M41.87,113.94c0-7.7-1.4-13.13-3.34-16.83H2.87V131.8H38.09C40.15,128.11,41.87,122.42,41.87,113.94Zm21.3,17.77a59.63,59.63,0,0,0,2.43-17.79A62.34,62.34,0,0,0,63.46,97L47.58,97a47.61,47.61,0,0,1,2.7,16.38,48.21,48.21,0,0,1-3.35,18.31Zm26.27.13a80.57,80.57,0,0,0,1.92-17.9,81.55,81.55,0,0,0-1.67-16.78l-17.79.08a70.79,70.79,0,0,1,1.93,16.88,71.3,71.3,0,0,1-2.14,17.8ZM133,114.45,100.68,82.13v15H98.15a86.4,86.4,0,0,1,1.62,16.82,85.81,85.81,0,0,1-1.83,17.87l2.74,0v15Z" transform="translate(0 1.96)"/><path class="cls-20" d="M94.57,89.62v0c-.57-1.75-1.2-3.42-1.89-5a1.12,1.12,0,0,1,0-.13c-.49-1.11-1-2.16-1.55-3.16a2,2,0,0,0-.13-.25c-.16-.3-.33-.6-.5-.89l-.17-.28c-.34-.58-.69-1.14-1-1.67l-.08-.13-.48-.69-.3-.4c-.15-.21-.31-.42-.47-.62l-.36-.45-.72-.85-.45-.5-.43-.44c-.15-.16-.31-.31-.47-.47l-.4-.37c-.27-.25-.55-.49-.83-.72l-.3-.24-.63-.48-.37-.25-.65-.43L82,71c-.31-.19-.63-.36-.94-.52l-.27-.12q-.37-.18-.75-.33l-.33-.13-.85-.29-.17-.05c-.35-.1-.69-.18-1-.25l-.28,0c-.27,0-.54-.09-.82-.12l-.29,0c-.36,0-.72-.05-1.09-.05-5.68,0-10.82,3.84-14.8,10.29-.25-.2-.5-.39-.76-.57l-.25-.16c-.29-.18-.59-.36-.88-.52l-.3-.16c-.37-.18-.74-.36-1.11-.5l0,0c-.39-.14-.78-.27-1.17-.37L55.51,77c-.3-.07-.59-.13-.89-.17l-.35,0a10,10,0,0,0-1.22-.08c-5.41,0-10.23,4.09-13.71,10.79-.21-.15-.41-.31-.63-.45l-.06,0c-.22-.14-.44-.27-.67-.39a.61.61,0,0,1-.14-.07l-.62-.28L37,86.17,36.44,86l-.23-.07-.57-.14-.25-.06-.6-.09-.23,0c-.28,0-.56,0-.84,0-4.7,0-8.75,3.67-11.47,9.62h5.93c1.68-2.78,3.65-4.37,5.54-4.37h0a3.46,3.46,0,0,1,.77.1l.31.09a4.68,4.68,0,0,1,.48.18,3.49,3.49,0,0,1,.39.19l.36.22.47.33.18.16a6.29,6.29,0,0,1,.47.43c-.31.88-.62,1.78-.89,2.72h3c2.43,4.06,4.24,10.66,4.24,18.72,0,8.74-2.12,15.75-4.86,19.68H36.57c.19.6.39,1.19.6,1.76-.1.09-.19.2-.28.28l-.23.2-.45.35a5.81,5.81,0,0,1-.66.4,2.36,2.36,0,0,1-.28.12,3.93,3.93,0,0,1-.54.2l-.24.07a4.14,4.14,0,0,1-.77.09c-1.64,0-3.33-1.19-4.84-3.31H22.76c2.71,5.32,6.55,8.56,11,8.56a7.32,7.32,0,0,0,.81,0h.09a5.52,5.52,0,0,0,.71-.1l.11,0,.68-.16.07,0c.24-.07.48-.15.71-.24h0a10.73,10.73,0,0,0,2.43-1.33c3.48,6.68,8.29,10.77,13.7,10.77a9.39,9.39,0,0,0,1.19-.08l.34,0,.86-.16.35-.09c.33-.08.66-.19,1-.3l.16-.06c.38-.14.75-.31,1.12-.49l.26-.14c.29-.15.57-.31.85-.49l.31-.19c.29-.19.57-.4.85-.61l0,0c4,6.45,9.12,10.28,14.8,10.28h0c.34,0,.68,0,1-.05l.32,0c.27,0,.53-.07.8-.12l.28,0c.34-.07.68-.15,1-.25l.26-.08.78-.26.32-.13c.28-.11.57-.24.85-.37l.15-.07c.32-.16.64-.33,1-.52l.31-.18.7-.45.28-.2c.3-.21.61-.44.9-.68l.22-.18.7-.61.3-.28.69-.68.2-.2c.28-.3.55-.6.83-.92.09-.1.17-.21.26-.32s.4-.48.59-.73l.27-.34c.26-.35.52-.7.77-1.06l.17-.25.6-.93.27-.42.54-.91c.06-.12.13-.23.2-.35.23-.41.45-.83.67-1.26.08-.14.15-.28.22-.43.16-.31.32-.64.47-1,.08-.16.16-.33.23-.49q.3-.63.57-1.29l.14-.33c.17-.41.34-.83.5-1.26l.21-.54.39-1.09.18-.5c.17-.5.34-1,.5-1.53L95,137c.12-.39.23-.78.34-1.18.06-.2.12-.4.17-.6.12-.46.25-.93.36-1.4a83.06,83.06,0,0,0,2.31-19.88,79.57,79.57,0,0,0-3.57-24.3ZM57.7,144c-.15.13-.31.25-.47.37l-.27.2-.46.29-.29.17a5.08,5.08,0,0,1-.47.23l-.3.14a4.59,4.59,0,0,1-.48.17l-.3.1-.54.11-.26.05a5.29,5.29,0,0,1-.8.06h0c-4,0-7.4-3.91-9.86-9.65,3.44-5.11,5.58-13.06,5.58-22.35S46.63,96.68,43.2,91.57c2.46-5.73,5.86-9.64,9.85-9.64a5.93,5.93,0,0,1,.84.06l.24,0,.58.13.28.09.52.19.29.13q.26.12.51.27l.26.15.55.37.2.15c.2.15.39.31.58.47A59.77,59.77,0,0,0,54.18,95.2h5.37a56,56,0,0,1,2-6.43,37.44,37.44,0,0,1,2.71,6.43,62.65,62.65,0,0,1,2.86,18.72,62,62,0,0,1-3.18,19.68c-.15.44-.31.87-.48,1.3a.43.43,0,0,0,0,0c-.16.4-.32.8-.49,1.19l0,.09c-.17.38-.33.75-.51,1.11l0,.09c-.17.37-.35.73-.53,1.08l0,.05c-.09.17-.19.33-.28.49a54.22,54.22,0,0,1-1.78-5.56H54.37a59.28,59.28,0,0,0,3.52,10.38Zm32.83-10.54c-.19.74-.4,1.46-.61,2.17,0,.1-.07.2-.1.3-.19.61-.38,1.2-.59,1.78a2.47,2.47,0,0,1-.1.29c-.46,1.31-1,2.54-1.49,3.7,0,.11-.1.21-.14.32-.24.51-.49,1-.74,1.5l-.08.15q-.42.81-.87,1.56a1.74,1.74,0,0,1-.11.18c-.25.42-.51.83-.77,1.22-.07.09-.13.19-.19.28a22.19,22.19,0,0,1-1.86,2.37l-.21.24c-.26.28-.52.54-.79.79l-.2.2c-.33.3-.65.58-1,.84l-.12.08c-.29.22-.58.42-.87.61l-.27.16a7.45,7.45,0,0,1-.83.45l-.17.09a9.4,9.4,0,0,1-1,.39l-.24.06a7.38,7.38,0,0,1-.78.19l-.28.05a8.4,8.4,0,0,1-1,.07c-3.85,0-7.82-3.23-11-8.92q.77-1,1.47-2.13l.16-.27c.24-.4.47-.8.69-1.22.06-.09.11-.19.16-.28q.81-1.53,1.53-3.24l.09-.22c.2-.5.4-1,.59-1.52,0-.12.09-.23.13-.34.2-.56.39-1.13.58-1.71a.24.24,0,0,0,0-.08h0a65.78,65.78,0,0,0,2.84-19.68A66.51,66.51,0,0,0,69.82,95.2h0v0a45.12,45.12,0,0,0-2.12-5.76.36.36,0,0,0,0-.09A34.78,34.78,0,0,0,65.94,86l0,0c-.29-.49-.58-1-.88-1.41l-.11-.16c-.26-.39-.54-.77-.81-1.14,3.2-5.69,7.17-8.92,11-8.92a7,7,0,0,1,1,.08l.27,0a8.52,8.52,0,0,1,.84.2l.2.06a8.6,8.6,0,0,1,1,.4l.2.1a9.12,9.12,0,0,1,.85.48l.22.13a14.76,14.76,0,0,1,2,1.62l.17.16a20.54,20.54,0,0,1,2,2.27l.06.08c.32.43.64.87.95,1.34l0,.06a30.18,30.18,0,0,1,1.88,3.25l0,0A50,50,0,0,1,90.74,95.2h0a77.89,77.89,0,0,1,2.15,18.72,77.25,77.25,0,0,1-2.36,19.57Z" transform="translate(0 1.96)"/></svg>