<svg id="Layer_1" data-name="Layer 1" xmlns="http://www.w3.org/2000/svg" viewBox="0 0 512.83 253.3"><defs><style>.cls-1,.cls-2{isolation:isolate;fill:#767676;}.cls-1{font-size:21px;font-family:Roboto-Regular, Roboto;}.cls-2{font-size:48px;font-family:Roboto-Bold, Roboto;font-weight:700;}.cls-3{fill:#243c96;}.cls-4{fill:#ea7200;}.cls-5{font-size:23px;fill:#58585b;font-family:Lora-Regular, Lora;}.cls-6{letter-spacing:-0.01em;}.cls-7{letter-spacing:-0.01em;}.cls-8{letter-spacing:-0.01em;}.cls-9{letter-spacing:0em;}.cls-10{letter-spacing:0em;}.cls-11{letter-spacing:-0.01em;}.cls-12{letter-spacing:-0.01em;}.cls-13{letter-spacing:-0.01em;}.cls-14{letter-spacing:-0.01em;}.cls-15{letter-spacing:-0.01em;}.cls-16{letter-spacing:-0.01em;}.cls-17{letter-spacing:-0.01em;}.cls-18{letter-spacing:0em;}</style>

<style type="text/css">
    @font-face {
    font-family: 'Lora';
    src: url('../fonts/Lora/Lora-Bold.eot');
    src: url('../fonts/Lora/Lora-Bold.eot?#iefix') format('embedded-opentype'),
        url('../fonts/Lora/Lora-Bold.woff') format('woff'),
        url('../fonts/Lora/Lora-Bold.ttf') format('truetype'),
        url('../fonts/Lora/Lora-Bold.svg#Lora-Bold') format('svg');
    font-weight: bold;
    font-style: normal;
    }

    @font-face {
    font-family: 'Lora';
    src: url('../fonts/Lora/Lora-Regular.eot');
    src: url('../fonts/Lora/Lora-Regular.eot?#iefix') format('embedded-opentype'),
        url('../fonts/Lora/Lora-Regular.woff') format('woff'),
        url('../fonts/Lora/Lora-Regular.ttf') format('truetype'),
        url('../fonts/Lora/Lora-Regular.svg#Lora-Regular') format('svg');
    font-weight: normal;
    font-style: normal;
    }

    @font-face {
    font-family: 'Roboto';
    src: url('../fonts/Roboto/Roboto-Bold.eot');
    src: url('../fonts/Roboto/Roboto-Bold.eot?#iefix') format('embedded-opentype'),
        url('../fonts/Roboto/Roboto-Bold.woff') format('woff'),
        url('../fonts/Roboto/Roboto-Bold.ttf') format('truetype'),
        url('../fonts/Roboto/Roboto-Bold.svg#Roboto-Bold') format('svg');
    font-weight: bold;
    font-style: normal;
    }

    @font-face {
    font-family: 'Roboto';
    src: url('../fonts/Roboto/Roboto-Regular.eot');
    src: url('../fonts/Roboto/Roboto-Regular.eot?#iefix') format('embedded-opentype'),
        url('../fonts/Roboto/Roboto-Regular.woff') format('woff'),
        url('../fonts/Roboto/Roboto-Regular.ttf') format('truetype'),
        url('../fonts/Roboto/Roboto-Regular.svg#Roboto-Regular') format('svg');
    font-weight: normal;
    font-style: normal;
    }
</style>

</defs><title>progressive-mb</title><g id="_1.0---Epic-Content" data-name=" 1.0---Epic-Content"><g id="D-960---1.0-_04" data-name="D-960---1.0- 04"><g id="Sec-2---Understanding-cystinosis"><g id="Progressive"><g id="Cystinosis-is-Copy-2"><text class="cls-1" transform="translate(2 17.96)">Cystinosis is</text></g><g id="PROGRESSIVE."><text class="cls-2" transform="translate(0 63.96)">PROGRESSIVE.</text></g></g></g></g></g><path class="cls-3" d="M41.87,115.9c0-7.7-1.4-13.13-3.34-16.83H2.87v34.69H38.09C40.15,130.07,41.87,124.38,41.87,115.9Zm21.3,17.77a59.8,59.8,0,0,0,2.43-17.79A62,62,0,0,0,63.46,99H47.58a47.56,47.56,0,0,1,2.7,16.38,48.21,48.21,0,0,1-3.35,18.31Zm26.27.13a80.44,80.44,0,0,0,1.92-17.9,81.5,81.5,0,0,0-1.67-16.78L71.9,99.2a70.58,70.58,0,0,1,1.93,16.88,71.2,71.2,0,0,1-2.14,17.8ZM133,116.41,100.68,84.09v15H98.15a86.3,86.3,0,0,1,1.62,16.82,85.89,85.89,0,0,1-1.83,17.87h2.74v15Z"/><path class="cls-4" d="M94.57,91.58h0q-.85-2.62-1.89-5v-.13c-.49-1.11-1-2.16-1.55-3.16A2,2,0,0,0,91,83c-.16-.3-.33-.6-.5-.89l-.17-.28c-.34-.58-.69-1.14-1-1.67l-.08-.13-.48-.69-.3-.4c-.15-.21-.31-.42-.47-.62l-.36-.45-.72-.85-.45-.5L86,76.12c-.15-.16-.31-.31-.47-.47l-.4-.37c-.27-.25-.55-.49-.83-.72l-.3-.24-.63-.48L83,73.59l-.65-.43L82,73c-.31-.19-.63-.36-.94-.52l-.27-.12L80,72l-.33-.13-.85-.29-.17,0c-.35-.1-.69-.18-1-.25h-.28a8.11,8.11,0,0,1-.82-.12H76.3c-.36,0-.72-.05-1.09-.05-5.68,0-10.82,3.84-14.8,10.29-.25-.2-.5-.39-.76-.57l-.25-.16c-.29-.18-.59-.36-.88-.52l-.3-.16c-.37-.18-.74-.36-1.11-.5h0c-.39-.14-.78-.27-1.17-.37L55.51,79c-.3-.07-.59-.13-.89-.17h-.35a9.87,9.87,0,0,0-1.22-.08c-5.41,0-10.23,4.09-13.71,10.79-.21-.15-.41-.31-.63-.45h-.06c-.22-.14-.44-.27-.67-.39a.61.61,0,0,1-.14-.07l-.62-.28L37,88.13,36.44,88l-.23-.07-.57-.14-.25-.06-.6-.09H33.72c-4.7,0-8.75,3.67-11.47,9.62h5.93c1.68-2.78,3.65-4.37,5.54-4.37h0a3.32,3.32,0,0,1,.77.1l.31.09a4.68,4.68,0,0,1,.48.18l.39.19.36.22.47.33.18.16c.16.14.32.28.47.43-.31.88-.62,1.78-.89,2.72h3c2.43,4.06,4.24,10.66,4.24,18.72,0,8.74-2.12,15.75-4.86,19.68H36.57c.19.6.39,1.19.6,1.76l-.28.28-.23.2-.45.35a5.52,5.52,0,0,1-.66.4,1.39,1.39,0,0,1-.28.12,3.5,3.5,0,0,1-.54.2l-.24.07a4.91,4.91,0,0,1-.77.09c-1.64,0-3.33-1.19-4.84-3.31H22.76c2.71,5.32,6.55,8.56,11,8.56q.41,0,.81,0h.09a5.52,5.52,0,0,0,.71-.1h.11l.68-.16h.07c.24-.07.48-.15.71-.24h0a10.84,10.84,0,0,0,2.43-1.33c3.48,6.68,8.29,10.77,13.7,10.77a9.39,9.39,0,0,0,1.19-.08h.34l.86-.16.35-.09c.33-.08.66-.19,1-.3l.16-.06c.38-.14.75-.31,1.12-.49l.26-.14c.29-.15.57-.31.85-.49l.31-.19c.29-.19.57-.4.85-.61h0c4,6.45,9.12,10.28,14.8,10.28h0a6.57,6.57,0,0,0,1-.05h.32a4.42,4.42,0,0,0,.8-.12h.28c.34-.07.68-.15,1-.25l.26-.08.78-.26.32-.13c.28-.11.57-.24.85-.37l.15-.07,1-.52.31-.18.7-.45.28-.2c.3-.21.61-.44.9-.68l.22-.18.7-.61.3-.28.69-.68.2-.2c.28-.3.55-.6.83-.92.09-.1.17-.21.26-.32s.4-.48.59-.73l.27-.34c.26-.35.52-.7.77-1.06l.17-.25.6-.93.27-.42.54-.91c.06-.12.13-.23.2-.35.23-.41.45-.83.67-1.26.08-.14.15-.28.22-.43.16-.31.32-.64.47-1,.08-.16.16-.33.23-.49q.3-.63.57-1.29l.14-.33c.17-.41.34-.83.5-1.26l.21-.54.39-1.09.18-.5c.17-.5.34-1,.5-1.53L95,139c.12-.39.23-.78.34-1.18.06-.2.12-.4.17-.6.12-.46.25-.93.36-1.4a83.17,83.17,0,0,0,2.31-19.88,79.73,79.73,0,0,0-3.57-24.3ZM57.7,146c-.15.13-.31.25-.47.37l-.27.2-.46.29-.29.17-.47.23-.3.14a4.59,4.59,0,0,1-.48.17l-.3.1-.54.11-.26,0a5.29,5.29,0,0,1-.8.06h0c-4,0-7.4-3.91-9.86-9.65,3.44-5.11,5.58-13.06,5.58-22.35S46.63,98.64,43.2,93.53c2.46-5.73,5.86-9.64,9.85-9.64a5.93,5.93,0,0,1,.84.06h.24l.58.13.28.09.52.19.29.13q.26.12.51.27l.26.15.55.37.2.15c.2.15.39.31.58.47a59.44,59.44,0,0,0-3.72,11.26h5.37a55.61,55.61,0,0,1,2-6.43,37.42,37.42,0,0,1,2.71,6.43,62.56,62.56,0,0,1,2.86,18.72,62.1,62.1,0,0,1-3.18,19.68c-.15.44-.31.87-.48,1.3h0c-.16.4-.32.8-.49,1.19v.09c-.17.38-.33.75-.51,1.11v.09c-.17.37-.35.73-.53,1.08v.05c-.09.17-.19.33-.28.49a54.46,54.46,0,0,1-1.78-5.56h-5.5a59.3,59.3,0,0,0,3.52,10.38Zm32.83-10.54c-.19.74-.4,1.46-.61,2.17a1.18,1.18,0,0,1-.1.3c-.19.61-.38,1.2-.59,1.78a2.47,2.47,0,0,1-.1.29c-.46,1.31-1,2.54-1.49,3.7,0,.11-.1.21-.14.32-.24.51-.49,1-.74,1.5l-.08.15q-.42.81-.87,1.56a1.74,1.74,0,0,1-.11.18c-.25.42-.51.83-.77,1.22-.07.09-.13.19-.19.28a23.65,23.65,0,0,1-1.86,2.37l-.21.24c-.26.28-.52.54-.79.79l-.2.2c-.33.3-.65.58-1,.84l-.12.08c-.29.22-.58.42-.87.61l-.27.16a6.66,6.66,0,0,1-.83.45l-.17.09a9.4,9.4,0,0,1-1,.39l-.24.06a7.38,7.38,0,0,1-.78.19l-.28,0a8.4,8.4,0,0,1-1,.07c-3.85,0-7.82-3.23-11-8.92q.76-1,1.47-2.13l.16-.27c.24-.4.47-.8.69-1.22.06-.09.11-.19.16-.28q.81-1.53,1.53-3.24l.09-.22c.2-.5.4-1,.59-1.52a1.09,1.09,0,0,1,.13-.34c.2-.56.39-1.13.58-1.71v-.08h0a65.59,65.59,0,0,0,2.84-19.68,66.36,66.36,0,0,0-2.54-18.69h0A45.14,45.14,0,0,0,67.7,91.4v-.09A34.42,34.42,0,0,0,65.94,88h0c-.29-.49-.58-1-.88-1.41L65,86.39c-.26-.39-.54-.77-.81-1.14,3.2-5.69,7.17-8.92,11-8.92a6.74,6.74,0,0,1,1,.08h.27a8.52,8.52,0,0,1,.84.2l.2.06a8.68,8.68,0,0,1,1,.4l.2.1a7.12,7.12,0,0,1,.85.48l.22.13a14.76,14.76,0,0,1,2,1.62l.17.16a21.51,21.51,0,0,1,2,2.27l.06.08c.32.43.64.87,1,1.34v.06a30.82,30.82,0,0,1,1.88,3.25h0a49.57,49.57,0,0,1,4,10.6h0a78.17,78.17,0,0,1,2.15,18.72,77.32,77.32,0,0,1-2.36,19.57Z"/><text class="cls-5" transform="translate(150.5 99.4)">Cystinosis <tspan class="cls-6" x="115.46" y="0">g</tspan><tspan class="cls-7" x="128.06" y="0">e</tspan><tspan x="140.37" y="0">ts </tspan><tspan class="cls-8" x="165.97" y="0">w</tspan><tspan x="184.11" y="0">orse </tspan><tspan class="cls-9" x="236.69" y="0">ov</tspan><tspan x="261.53" y="0">er time, </tspan><tspan x="0" y="30">and dama</tspan><tspan class="cls-6" x="103.68" y="30">g</tspan><tspan x="116.29" y="30">e to </tspan><tspan class="cls-9" x="163.21" y="30">c</tspan><tspan x="175.33" y="30">ells </tspan><tspan class="cls-10" x="217" y="30">c</tspan><tspan x="229.19" y="30">annot be </tspan><tspan x="0" y="60">undone. The </tspan><tspan class="cls-6" x="140.04" y="60">g</tspan><tspan x="152.65" y="60">oal </tspan><tspan class="cls-9" x="190.28" y="60">o</tspan><tspan x="203.62" y="60">f t</tspan><tspan class="cls-11" x="226.34" y="60">r</tspan><tspan class="cls-10" x="236.14" y="60">e</tspan><tspan class="cls-7" x="248.56" y="60">a</tspan><tspan x="260.27" y="60">tme</tspan><tspan class="cls-12" x="302.19" y="60">n</tspan><tspan x="315.95" y="60">t is </tspan><tspan x="0" y="90">to sl</tspan><tspan class="cls-13" x="45.31" y="90">o</tspan><tspan x="58.53" y="90">w d</tspan><tspan class="cls-14" x="96.76" y="90">o</tspan><tspan x="109.98" y="90">wn dama</tspan><tspan class="cls-9" x="206.47" y="90">g</tspan><tspan x="219.07" y="90">e to the bo</tspan><tspan class="cls-15" x="334.03" y="90">d</tspan><tspan x="347.64" y="90">y </tspan><tspan class="cls-16" x="0" y="120">b</tspan><tspan x="13.2" y="120">y </tspan><tspan class="cls-17" x="31.39" y="120">r</tspan><tspan class="cls-9" x="41.19" y="120">e</tspan><tspan x="53.54" y="120">ducing </tspan><tspan class="cls-6" x="132.46" y="120">c</tspan><tspan x="144.58" y="120">ystine buildup in </tspan><tspan class="cls-18" x="0" y="150">c</tspan><tspan x="12.12" y="150">ells.</tspan></text></svg>