<svg id="Layer_1" data-name="Layer 1" xmlns="http://www.w3.org/2000/svg" viewBox="0 0 513.2 239.8"><defs><style>.cls-1,.cls-2{isolation:isolate;}.cls-1{font-size:21px;font-family:Roboto-Regular, Roboto;}.cls-1,.cls-2,.cls-4{fill:#767676;}.cls-2{font-size:48px;font-family:Roboto-Bold, Roboto;font-weight:700;}.cls-3{fill:#243c96;}.cls-4{font-size:23px;font-family:Lora-Regular, Lora;}.cls-5{letter-spacing:-0.01em;}.cls-6{letter-spacing:0.02em;}.cls-7{letter-spacing:0em;}.cls-8{letter-spacing:-0.01em;}.cls-9{letter-spacing:-0.01em;}.cls-10{letter-spacing:0em;}.cls-11{letter-spacing:-0.01em;}.cls-12{letter-spacing:0em;}.cls-13{letter-spacing:0em;}.cls-14{letter-spacing:-0.01em;}.cls-15{letter-spacing:-0.04em;}</style></defs>

<style type="text/css">
    @font-face {
    font-family: 'Lora';
    src: url('../../../../fonts/Lora/Lora-Bold.eot');
    src: url('../../../../fonts/Lora/Lora-Bold.eot?#iefix') format('embedded-opentype'),
        url('../../../../fonts/Lora/Lora-Bold.woff') format('woff'),
        url('../../../../fonts/Lora/Lora-Bold.ttf') format('truetype'),
        url('../../../../fonts/Lora/Lora-Bold.svg#Lora-Bold') format('svg');
    font-weight: bold;
    font-style: normal;
    }

    @font-face {
    font-family: 'Lora';
    src: url('../../../../fonts/Lora/Lora-Regular.eot');
    src: url('../../../../fonts/Lora/Lora-Regular.eot?#iefix') format('embedded-opentype'),
        url('../../../../fonts/Lora/Lora-Regular.woff') format('woff'),
        url('../../../../fonts/Lora/Lora-Regular.ttf') format('truetype'),
        url('../../../../fonts/Lora/Lora-Regular.svg#Lora-Regular') format('svg');
    font-weight: normal;
    font-style: normal;
    }

    @font-face {
    font-family: 'Roboto';
    src: url('../../../../fonts/Roboto/Roboto-Bold.eot');
    src: url('../../../../fonts/Roboto/Roboto-Bold.eot?#iefix') format('embedded-opentype'),
        url('../../../../fonts/Roboto/Roboto-Bold.woff') format('woff'),
        url('../../../../fonts/Roboto/Roboto-Bold.ttf') format('truetype'),
        url('../../../../fonts/Roboto/Roboto-Bold.svg#Roboto-Bold') format('svg');
    font-weight: bold;
    font-style: normal;
    }

    @font-face {
    font-family: 'Roboto';
    src: url('../../../../fonts/Roboto/Roboto-Regular.eot');
    src: url('../../../../fonts/Roboto/Roboto-Regular.eot?#iefix') format('embedded-opentype'),
        url('../../../../fonts/Roboto/Roboto-Regular.woff') format('woff'),
        url('../../../../fonts/Roboto/Roboto-Regular.ttf') format('truetype'),
        url('../../../../fonts/Roboto/Roboto-Regular.svg#Roboto-Regular') format('svg');
    font-weight: normal;
    font-style: normal;
    }
</style>

<title>rare</title><g id="_1.0---Epic-Content" data-name=" 1.0---Epic-Content"><g id="D-960---1.0-_01" data-name="D-960---1.0- 01"><g id="Sec-2---Understanding-Cystinosis"><g id="Rare"><g id="Cystinosis-is-Copy-4"><text class="cls-1" transform="translate(2 17.96)">Cystinosis is</text></g><g id="RARE."><text class="cls-2" transform="translate(0 63.96)">RARE.</text></g></g></g></g></g><path class="cls-3" d="M16.7,90.1A209.8,209.8,0,0,0,59,99.2c23.6,2.5,39.3,2.8,39.3,2.8l1.5,1.5a7.72,7.72,0,0,1,4.5.5c2.3,1,3.3,1.2,6.3.5s2.8,1.3,2.8,1.3-6.3,3.3-7,6,3.5-1.3,3.5-1.3l2.5,1.8,6-4.8-.2,2.3s3.3.2,4,1.8,3.5-2.8,7-.5,2.5,1,2.5,1l-4.8,1-2.8,1.5-1.8-.5-2.3,5.3,1,.5,1.8-3s-2,6-2,7.5,1,9.1,3,8.8,2.8-3.5,3.3-5.3-2.8-5-1.5-7.3a16.58,16.58,0,0,0,1.5-3.3l.5,2.8,1.8-5.8s5.3-.5,5.3,3.5-2.3,3.3-1.8,5,1.2-1.5,2.5-2,3.5,1.5,3,4.5a13.46,13.46,0,0,1-3,5.8s4.5,2.3,8.3-1,4.8-5.5,5.8-6.3-.5-2.5-.5-2.5,5.5-1,6.5-.8,2.5-1.8,2.5-1.8l-1.2-2.5,3.5-4.8,10.6-2.3-.2-1.5,2.5-1.3s0-9.1.8-10.1,1.5,1.3,1.5,1.3l1.5-.2s-.2-1.8.8-1.5,1.4,3.3,2.4,4.8,3.5,3.3,4.3,4.8-3.5,2.3-5.5,5.5-3.8,5.3-3.3,6.8,1,4.3,2.5,4.3,1-2.3,1-2.3l1.3,2.3-11.1,5-.8,1,4.8-1.2.8,1-5,1.5-1.5-.8v2.3l.8,1.5-1.3,4.6-3-2,2.3,5.3-.8,2.7-2.5-2.5-1.3-3.5.2,6,4.3,7,1,3.3-1.2,2.5-7,6.5-1.5,3.5-6,6.3s-2,4.3-.8,6.8,7.3,14.3,7.3,14.3,3.7,4.8.7,8.4c-1,.6-2.1.6-4.4-2.1l-6.5-8.1-.2-3.8-6.5-6-4.8,2.5-4-3s-5.3,1-7.3.8-3.3,2.5-5.3,1.8,1,4.5,1,4.5-7.5,1.3-10.1-.8-9.6-1.3-10.8.2-2.5,3.5-4.8,4.3-7,2.3-4.5,11.8c-2,.8-8-3-8-3l-1.3-5-1.8-1.2s-4.1-10.7-9.8-8.8c-2.9.9-3.2,2.5-3.2,2.5l-4.4-2s-.5-4-2.3-6.3-4.5-5.3-4.5-5.3l-6.8-.5v2.3l-11.3-2L25,166.9l1-1.5-9.6-.5s0-4-4.8-7.8-6-3.8-6-3.8l1.3-3-2.8-6-1-6,1.3-.5-3-6.3,1.3-3.3L.9,124.9l2.3-3.3.5-3.3L3.2,116l7-15.6,1-7.8,3.8,2,.5,4.5,1.8-1.5-.6-7.5Z" transform="translate(1 0)"/><text class="cls-4" transform="translate(215.33 90.04)">About 500 to 600 p<tspan class="cls-5" x="207.09" y="0">e</tspan><tspan x="219.44" y="0">ople in </tspan><tspan x="0" y="30">the Un</tspan><tspan class="cls-6" x="72.45" y="30">i</tspan><tspan x="79.28" y="30">t</tspan><tspan class="cls-5" x="88.18" y="30">e</tspan><tspan x="100.53" y="30">d </tspan><tspan class="cls-7" x="120.33" y="30">S</tspan><tspan x="133.28" y="30">t</tspan><tspan class="cls-8" x="142.18" y="30">a</tspan><tspan x="153.89" y="30">tes h</tspan><tspan class="cls-9" x="205.73" y="30">a</tspan><tspan class="cls-5" x="217.33" y="30">v</tspan><tspan x="228.83" y="30">e </tspan><tspan class="cls-10" x="0" y="60">c</tspan><tspan x="12.12" y="60">ystinosis. An estim</tspan><tspan class="cls-11" x="210.61" y="60">a</tspan><tspan x="222.32" y="60">t</tspan><tspan class="cls-5" x="231.22" y="60">e</tspan><tspan x="243.57" y="60">d 20 </tspan><tspan x="0" y="90">n</tspan><tspan class="cls-7" x="13.96" y="90">e</tspan><tspan x="26.33" y="90">w </tspan><tspan class="cls-12" x="50.81" y="90">c</tspan><tspan x="63" y="90">ases </tspan><tspan class="cls-5" x="114.68" y="90">o</tspan><tspan x="128.02" y="90">f </tspan><tspan class="cls-13" x="141.84" y="90">c</tspan><tspan x="153.96" y="90">ystinosis a</tspan><tspan class="cls-8" x="265.22" y="90">r</tspan><tspan x="275.01" y="90">e </tspan><tspan x="0" y="120">diagnos</tspan><tspan class="cls-5" x="82.87" y="120">e</tspan><tspan x="95.22" y="120">d </tspan><tspan class="cls-12" x="115.02" y="120">e</tspan><tspan x="127.44" y="120">ach </tspan><tspan class="cls-14" x="171.37" y="120">y</tspan><tspan class="cls-12" x="183.29" y="120">e</tspan><tspan x="195.71" y="120">a</tspan><tspan class="cls-15" x="207.57" y="120">r</tspan><tspan x="216.57" y="120">.</tspan></text></svg>