<svg id="Layer_1" data-name="Layer 1" xmlns="http://www.w3.org/2000/svg" viewBox="0 0 509.64 245.8"><defs><style>.cls-1,.cls-2{isolation:isolate;}.cls-1{font-size:21px;font-family:Roboto-Regular, Roboto;}.cls-1,.cls-2,.cls-4{fill:#767676;}.cls-2{font-size:48px;font-family:Roboto-Bold, Roboto;font-weight:700;}.cls-3{fill:#243c96;}.cls-4{font-size:16px;font-family:Lora-Regular, Lora;}.cls-5{letter-spacing:-0.01em;}.cls-6{letter-spacing:0.02em;}.cls-7{letter-spacing:0em;}.cls-8{letter-spacing:-0.01em;}.cls-9{letter-spacing:-0.01em;}.cls-10{letter-spacing:0em;}.cls-11{letter-spacing:-0.01em;}.cls-12{letter-spacing:0em;}.cls-13{letter-spacing:0em;}.cls-14{letter-spacing:-0.01em;}.cls-15{letter-spacing:-0.01em;}.cls-16{letter-spacing:0em;}.cls-17{letter-spacing:-0.04em;}</style></defs>

<style type="text/css">
    @font-face {
    font-family: 'Lora';
    src: url('../../../fonts/Lora/Lora-Bold.eot');
    src: url('../../../fonts/Lora/Lora-Bold.eot?#iefix') format('embedded-opentype'),
        url('../../../fonts/Lora/Lora-Bold.woff') format('woff'),
        url('../../../fonts/Lora/Lora-Bold.ttf') format('truetype'),
        url('../../../fonts/Lora/Lora-Bold.svg#Lora-Bold') format('svg');
    font-weight: bold;
    font-style: normal;
    }

    @font-face {
    font-family: 'Lora';
    src: url('../../../fonts/Lora/Lora-Regular.eot');
    src: url('../../../fonts/Lora/Lora-Regular.eot?#iefix') format('embedded-opentype'),
        url('../../../fonts/Lora/Lora-Regular.woff') format('woff'),
        url('../../../fonts/Lora/Lora-Regular.ttf') format('truetype'),
        url('../../../fonts/Lora/Lora-Regular.svg#Lora-Regular') format('svg');
    font-weight: normal;
    font-style: normal;
    }

    @font-face {
    font-family: 'Roboto';
    src: url('../../../fonts/Roboto/Roboto-Bold.eot');
    src: url('../../../fonts/Roboto/Roboto-Bold.eot?#iefix') format('embedded-opentype'),
        url('../../../fonts/Roboto/Roboto-Bold.woff') format('woff'),
        url('../../../fonts/Roboto/Roboto-Bold.ttf') format('truetype'),
        url('../../../fonts/Roboto/Roboto-Bold.svg#Roboto-Bold') format('svg');
    font-weight: bold;
    font-style: normal;
    }

    @font-face {
    font-family: 'Roboto';
    src: url('../../../fonts/Roboto/Roboto-Regular.eot');
    src: url('../../../fonts/Roboto/Roboto-Regular.eot?#iefix') format('embedded-opentype'),
        url('../../../fonts/Roboto/Roboto-Regular.woff') format('woff'),
        url('../../../fonts/Roboto/Roboto-Regular.ttf') format('truetype'),
        url('../../../fonts/Roboto/Roboto-Regular.svg#Roboto-Regular') format('svg');
    font-weight: normal;
    font-style: normal;
    }
</style>

<title>rare</title><g id="_1.0---Epic-Content" data-name=" 1.0---Epic-Content"><g id="D-960---1.0-_01" data-name="D-960---1.0- 01"><g id="Sec-2---Understanding-Cystinosis"><g id="Rare"><g id="Cystinosis-is-Copy-4"><text class="cls-1" transform="translate(2 17.96)">Cystinosis is</text></g><g id="RARE."><text class="cls-2" transform="translate(0 63.96)">RARE.</text></g></g></g></g></g><path class="cls-3" d="M16.7,80.1A209.8,209.8,0,0,0,59,89.2C82.6,91.7,98.3,92,98.3,92l1.5,1.5a7.72,7.72,0,0,1,4.5.5c2.3,1,3.3,1.2,6.3.5s2.8,1.3,2.8,1.3-6.3,3.3-7,6,3.5-1.3,3.5-1.3l2.5,1.8,6-4.8-.2,2.3s3.3.2,4,1.8,3.5-2.8,7-.5,2.5,1,2.5,1l-4.8,1-2.8,1.5-1.8-.5-2.3,5.3,1,.5,1.8-3s-2,6-2,7.5,1,9.1,3,8.8,2.8-3.5,3.3-5.3-2.8-5-1.5-7.3a16.58,16.58,0,0,0,1.5-3.3l.5,2.8,1.8-5.8s5.3-.5,5.3,3.5-2.3,3.3-1.8,5,1.2-1.5,2.5-2,3.5,1.5,3,4.5a13.46,13.46,0,0,1-3,5.8s4.5,2.3,8.3-1,4.8-5.5,5.8-6.3-.5-2.5-.5-2.5,5.5-1,6.5-.8,2.5-1.8,2.5-1.8l-1.2-2.5,3.5-4.8,10.6-2.3-.2-1.5,2.5-1.3s0-9.1.8-10.1,1.5,1.3,1.5,1.3l1.5-.2s-.2-1.8.8-1.5,1.4,3.3,2.4,4.8,3.5,3.3,4.3,4.8-3.5,2.3-5.5,5.5-3.8,5.3-3.3,6.8,1,4.3,2.5,4.3,1-2.3,1-2.3l1.3,2.3-11.1,5-.8,1,4.8-1.2.8,1-5,1.5-1.5-.8v2.3l.8,1.5-1.3,4.6-3-2,2.3,5.3-.8,2.7-2.5-2.5-1.3-3.5.2,6,4.3,7,1,3.3-1.2,2.5-7,6.5-1.5,3.5-6,6.3s-2,4.3-.8,6.8,7.3,14.3,7.3,14.3,3.7,4.8.7,8.4c-1,.6-2.1.6-4.4-2.1l-6.5-8.1-.2-3.8-6.5-6-4.8,2.5-4-3s-5.3,1-7.3.8-3.3,2.5-5.3,1.8,1,4.5,1,4.5-7.5,1.3-10.1-.8-9.6-1.3-10.8.2-2.5,3.5-4.8,4.3-7,2.3-4.5,11.8c-2,.8-8-3-8-3l-1.3-5-1.8-1.2s-4.1-10.7-9.8-8.8c-2.9.9-3.2,2.5-3.2,2.5l-4.4-2s-.5-4-2.3-6.3-4.5-5.3-4.5-5.3l-6.8-.5v2.3l-11.3-2L25,156.9l1-1.5-9.6-.5s0-4-4.8-7.8-6-3.8-6-3.8l1.3-3-2.8-6-1-6,1.3-.5-3-6.3,1.3-3.3L.9,114.9l2.3-3.3.5-3.3L3.2,106l7-15.6,1-7.8,3.8,2,.5,4.5,1.8-1.5-.6-7.5Z" transform="translate(1 0)"/><text class="cls-4" transform="translate(215.33 90.75)">About 500 to 600 p<tspan class="cls-5" x="144.06" y="0">e</tspan><tspan x="152.65" y="0">ople in the Un</tspan><tspan class="cls-6" x="257.61" y="0">i</tspan><tspan x="262.36" y="0">t</tspan><tspan class="cls-5" x="268.56" y="0">e</tspan><tspan x="277.15" y="0">d </tspan><tspan class="cls-7" x="0" y="24">S</tspan><tspan x="9.01" y="24">t</tspan><tspan class="cls-8" x="15.2" y="24">a</tspan><tspan x="23.34" y="24">tes h</tspan><tspan class="cls-9" x="59.41" y="24">a</tspan><tspan class="cls-10" x="67.47" y="24">v</tspan><tspan x="75.47" y="24">e </tspan><tspan class="cls-5" x="88.35" y="24">c</tspan><tspan x="96.78" y="24">ystinosis. An estim</tspan><tspan class="cls-11" x="234.86" y="24">a</tspan><tspan class="cls-12" x="243.01" y="24">t</tspan><tspan class="cls-5" x="249.2" y="24">e</tspan><tspan x="257.79" y="24">d 20 </tspan><tspan x="0" y="48">n</tspan><tspan class="cls-7" x="9.71" y="48">e</tspan><tspan x="18.32" y="48">w </tspan><tspan class="cls-13" x="35.34" y="48">c</tspan><tspan x="43.82" y="48">ases </tspan><tspan class="cls-5" x="79.78" y="48">o</tspan><tspan x="89.06" y="48">f </tspan><tspan class="cls-5" x="98.67" y="48">c</tspan><tspan x="107.1" y="48">ystinosis a</tspan><tspan class="cls-14" x="184.5" y="48">r</tspan><tspan x="191.31" y="48">e diagnos</tspan><tspan class="cls-5" x="261.84" y="48">e</tspan><tspan x="270.43" y="48">d </tspan><tspan class="cls-13" x="0" y="72">e</tspan><tspan x="8.64" y="72">ach </tspan><tspan class="cls-15" x="39.2" y="72">y</tspan><tspan class="cls-16" x="47.49" y="72">e</tspan><tspan x="56.13" y="72">a</tspan><tspan class="cls-17" x="64.38" y="72">r</tspan><tspan x="70.64" y="72">.</tspan></text></svg>