<?xml version="1.0" encoding="utf-8"?>
<!-- Generator: Adobe Illustrator 21.1.0, SVG Export Plug-In . SVG Version: 6.00 Build 0)  -->
<svg version="1.1" id="Resources_Graphic" xmlns="http://www.w3.org/2000/svg" xmlns:xlink="http://www.w3.org/1999/xlink" x="0px"
	 y="0px" viewBox="0 0 455 258" enable-background="new 0 0 455 258" xml:space="preserve">
<rect fill="#E4E4EE" width="455" height="258"/>
<path fill="#243C96" d="M366.5,195.6h-14.3V43.1c0-10.5-8.6-19.1-19.1-19.1H123.4c-10.5,0-19.1,8.6-19.1,19.1v152.5H90
	c-2.9,0-4.8,1.9-4.8,4.8c0,15.7,12.9,28.6,28.6,28.6h228.8c15.7,0,28.6-12.9,28.6-28.6C371.2,197.5,369.3,195.6,366.5,195.6z
	 M109.8,43.1c0-5.2,8.3-13.5,13.5-13.5h209.7c5.2,0,13.5,8.3,13.5,13.5v152.5H109.8V43.1z M347.6,224.5H108.8
	c-9.1,0-20.8-16.5-18.6-24.3h109.4c0,2.9,1.9,4.8,4.8,4.8h47.7c2.9,0,4.8-1.9,4.8-4.8h109.4C368,210,356.7,224.5,347.6,224.5z"/>
<g>
	<g>
		<path fill="#243C96" d="M328.3,43.1H128.2c-2.9,0-4.8,1.9-4.8,4.8v133.5c0,2.9,1.9,4.8,4.8,4.8h200.2c2.9,0,4.8-1.9,4.8-4.8V47.9
			C333.1,45,331.2,43.1,328.3,43.1z M295,152.7c0,8.1-6.2,14.3-14.3,14.3H175.8c-8.1,0-14.3-6.2-14.3-14.3V76.5
			c0-8.1,6.2-14.3,14.3-14.3h104.9c8.1,0,14.3,6.2,14.3,14.3V152.7z M280.7,68.7H175.8c-2.9,0-7.8,4.9-7.8,7.8v76.3
			c0,2.9,4.9,7.8,7.8,7.8h104.9c2.9,0,7.8-4.9,7.8-7.8V76.5C288.5,73.6,283.5,68.7,280.7,68.7z M223.5,86c0-2.9,1.9-4.8,4.8-4.8
			s4.8,1.9,4.8,4.8v4.8c0,2.9-1.9,4.8-4.8,4.8s-4.8-1.9-4.8-4.8V86z M242.5,148H214c-2.9,0-4.8-1.9-4.8-4.8c0-2.9,1.9-4.8,4.8-4.8
			h9.5v-23.8H214c-2.9,0-4.8-1.9-4.8-4.8s1.9-4.8,4.8-4.8h14.3c2.9,0,4.8,1.9,4.8,4.8v28.6h9.5c2.9,0,4.8,1.9,4.8,4.8
			C247.3,146.1,245.4,148,242.5,148z"/>
	</g>
</g>
</svg>
