<svg xmlns="http://www.w3.org/2000/svg" xmlns:xlink="http://www.w3.org/1999/xlink" viewBox="0 0 455 258">
  <path fill="#E4E4EE" d="M0 0h455v258H0z"/>
  <defs>
    <path id="a" d="M0 0h455v258H0z"/>
  </defs>
  <clipPath id="b">
    <use xlink:href="#a" overflow="visible"/>
  </clipPath>
  <g opacity=".1" clip-path="url(#b)">
    <circle cx="402.3" cy="100.8" r="27.1"/>
    <path d="M402.3 130.3c-16.3 0-29.5-13.3-29.5-29.5s13.3-29.5 29.5-29.5c16.3 0 29.5 13.3 29.5 29.5s-13.2 29.5-29.5 29.5zm0-54.1c-13.5 0-24.6 11-24.6 24.6s11 24.6 24.6 24.6c13.5 0 24.6-11 24.6-24.6s-11.1-24.6-24.6-24.6z"/>
  </g>
  <g clip-path="url(#b)">
    <circle fill="#FFF" cx="400.5" cy="99" r="27.1"/>
    <path fill="#2E3191" d="M400.5 128.6c-16.3 0-29.5-13.3-29.5-29.5s13.3-29.5 29.5-29.5S430 82.9 430 99.1s-13.2 29.5-29.5 29.5zm0-54.2C387 74.4 376 85.5 376 99s11 24.6 24.6 24.6 24.6-11 24.6-24.6-11.1-24.6-24.7-24.6z"/>
  </g>
  <path clip-path="url(#b)" fill="#2E3191" d="M400.5 117.8c-10.3 0-18.8-8.4-18.8-18.8s8.4-18.8 18.8-18.8 18.8 8.4 18.8 18.8-8.4 18.8-18.8 18.8zm0-32.6c-7.6 0-13.8 6.2-13.8 13.8 0 7.6 6.2 13.8 13.8 13.8s13.8-6.2 13.8-13.8c0-7.6-6.2-13.8-13.8-13.8z"/>
  <path clip-path="url(#b)" fill="#2E3191" d="M400.5 107.8c-4.9 0-8.8-4-8.8-8.8 0-4.9 4-8.8 8.8-8.8s8.8 4 8.8 8.8c0 4.9-3.9 8.8-8.8 8.8zm0-12.6c-2.1 0-3.8 1.7-3.8 3.8 0 2.1 1.7 3.8 3.8 3.8s3.8-1.7 3.8-3.8c.1-2.1-1.7-3.8-3.8-3.8z"/>
  <g opacity=".1" clip-path="url(#b)">
    <circle cx="394.7" cy="-29.7" r="27.1"/>
    <path d="M394.7-.2c-16.3 0-29.5-13.3-29.5-29.5s13.3-29.5 29.5-29.5 29.5 13.3 29.5 29.5S411-.2 394.7-.2zm0-54.1c-13.5 0-24.6 11-24.6 24.6s11 24.6 24.6 24.6 24.6-11 24.6-24.6-11-24.6-24.6-24.6z"/>
  </g>
  <g clip-path="url(#b)">
    <circle fill="#FFF" cx="393" cy="-31.5" r="27.1"/>
    <path fill="#2E3191" d="M393-1.9c-16.3 0-29.5-13.3-29.5-29.5S376.7-61 393-61s29.5 13.3 29.5 29.5S409.3-1.9 393-1.9zm0-54.1c-13.5 0-24.6 11-24.6 24.6s11 24.6 24.6 24.6c13.5 0 24.6-11 24.6-24.6S406.5-56 393-56z"/>
  </g>
  <path clip-path="url(#b)" fill="#2E3191" d="M393-12.7c-10.3 0-18.8-8.4-18.8-18.8s8.4-18.8 18.8-18.8c10.3 0 18.8 8.4 18.8 18.8s-8.5 18.8-18.8 18.8zm0-32.5c-7.6 0-13.8 6.2-13.8 13.8s6.2 13.8 13.8 13.8c7.6 0 13.8-6.2 13.8-13.8s-6.2-13.8-13.8-13.8z"/>
  <path clip-path="url(#b)" fill="#2E3191" d="M393-22.6c-4.9 0-8.8-4-8.8-8.8s4-8.8 8.8-8.8 8.8 4 8.8 8.8-4 8.8-8.8 8.8zm0-12.7c-2.1 0-3.8 1.7-3.8 3.8s1.7 3.8 3.8 3.8 3.8-1.7 3.8-3.8-1.7-3.8-3.8-3.8z"/>
  <g opacity=".1" clip-path="url(#b)">
    <circle cx="15.7" cy="130.3" r="41"/>
    <path d="M15.7 175.1C-9 175.1-29 155-29 130.4s20-44.8 44.7-44.8 44.7 20.1 44.7 44.7-20.1 44.8-44.7 44.8zm0-82c-20.5 0-37.2 16.7-37.2 37.2s16.7 37.2 37.2 37.2 37.2-16.7 37.2-37.2-16.7-37.2-37.2-37.2z"/>
  </g>
  <g clip-path="url(#b)">
    <circle fill="#FFF" cx="13" cy="127.7" r="41"/>
    <path fill="#2E3191" d="M13 172.4c-24.7 0-44.7-20.1-44.7-44.7s20-44.8 44.7-44.8 44.7 20.1 44.7 44.7-20 44.8-44.7 44.8zm0-81.9c-20.5 0-37.2 16.7-37.2 37.2s16.7 37.2 37.2 37.2 37.2-16.7 37.2-37.2S33.5 90.5 13 90.5z"/>
  </g>
  <path clip-path="url(#b)" fill="#2E3191" d="M13 156.1c-15.7 0-28.4-12.7-28.4-28.4S-2.7 99.3 13 99.3s28.4 12.7 28.4 28.4-12.7 28.4-28.4 28.4zm0-49.3c-11.5 0-20.9 9.4-20.9 20.9s9.4 20.9 20.9 20.9 20.9-9.4 20.9-20.9-9.4-20.9-20.9-20.9z"/>
  <path clip-path="url(#b)" fill="#2E3191" d="M13 141c-7.4 0-13.3-6-13.3-13.3 0-7.4 6-13.3 13.3-13.3s13.3 6 13.3 13.3c0 7.3-5.9 13.3-13.3 13.3zm0-19.1c-3.2 0-5.8 2.6-5.8 5.8s2.6 5.8 5.8 5.8 5.8-2.6 5.8-5.8-2.6-5.8-5.8-5.8z"/>
  <g clip-path="url(#b)">
    <g opacity=".1">
      <circle cx="421.4" cy="180.4" r="59.7"/>
      <path d="M421.4 245.6c-35.9 0-65.2-29.2-65.2-65.2s29.2-65.2 65.2-65.2 65.2 29.2 65.2 65.2-29.3 65.2-65.2 65.2zm0-119.4c-29.9 0-54.2 24.3-54.2 54.2s24.3 54.2 54.2 54.2c29.9 0 54.2-24.3 54.2-54.2s-24.4-54.2-54.2-54.2z"/>
    </g>
    <circle fill="#FFF" stroke="#F26C0D" stroke-width="6" stroke-miterlimit="10" cx="417.5" cy="176.6" r="59.7"/>
    <circle fill="#FFF" cx="417.5" cy="176.6" r="59.7"/>
    <path fill="#2E3191" d="M417.5 241.7c-35.9 0-65.2-29.2-65.2-65.2s29.2-65.2 65.2-65.2 65.2 29.2 65.2 65.2-29.3 65.2-65.2 65.2zm0-119.3c-29.9 0-54.2 24.3-54.2 54.2s24.3 54.2 54.2 54.2c29.9 0 54.2-24.3 54.2-54.2s-24.3-54.2-54.2-54.2z"/>
    <path fill="#2E3191" d="M417.5 218c-22.8 0-41.4-18.6-41.4-41.4s18.6-41.4 41.4-41.4c22.8 0 41.4 18.6 41.4 41.4S440.3 218 417.5 218zm0-71.9c-16.8 0-30.4 13.6-30.4 30.4s13.6 30.4 30.4 30.4 30.4-13.6 30.4-30.4-13.6-30.4-30.4-30.4z"/>
    <path fill="#2E3191" d="M417.5 196c-10.7 0-19.4-8.7-19.4-19.4s8.7-19.4 19.4-19.4 19.4 8.7 19.4 19.4-8.7 19.4-19.4 19.4zm0-27.9c-4.7 0-8.5 3.8-8.5 8.5s3.8 8.5 8.5 8.5 8.5-3.8 8.5-8.5-3.8-8.5-8.5-8.5z"/>
  </g>
  <g opacity=".1" clip-path="url(#b)">
    <circle cx="341.3" cy="-2.3" r="41"/>
    <path d="M341.3 42.4c-24.7 0-44.7-20.1-44.7-44.7s20-44.7 44.7-44.7S386-27 386-2.3s-20.1 44.7-44.7 44.7zm0-81.9c-20.5 0-37.2 16.7-37.2 37.2s16.7 37.2 37.2 37.2 37.2-16.7 37.2-37.2-16.7-37.2-37.2-37.2z"/>
  </g>
  <g clip-path="url(#b)">
    <circle fill="#FFF" cx="338.6" cy="-4.9" r="41"/>
    <path fill="#2E3191" d="M338.6 39.8c-24.7 0-44.7-20.1-44.7-44.7s20.1-44.7 44.7-44.7c24.7 0 44.7 20.1 44.7 44.7s-20 44.7-44.7 44.7zm0-81.9c-20.5 0-37.2 16.7-37.2 37.2s16.7 37.2 37.2 37.2 37.2-16.7 37.2-37.2-16.7-37.2-37.2-37.2z"/>
  </g>
  <g clip-path="url(#b)">
    <g opacity=".1">
      <circle cx="199.2" cy="46.8" r="54.6"/>
      <path d="M199.2 106.5c-32.9 0-59.6-26.8-59.6-59.6s26.8-59.6 59.6-59.6 59.6 26.8 59.6 59.6-26.8 59.6-59.6 59.6zm0-109.3c-27.3 0-49.6 22.2-49.6 49.6s22.2 49.6 49.6 49.6 49.6-22.2 49.6-49.6-22.3-49.6-49.6-49.6z"/>
    </g>
    <circle fill="#FFF" stroke="#F26C0D" stroke-width="6" stroke-miterlimit="10" cx="195.6" cy="43.3" r="54.6"/>
    <circle fill="#FFF" cx="195.6" cy="43.3" r="54.6"/>
    <path fill="#2E3191" d="M195.6 102.9c-32.9 0-59.6-26.8-59.6-59.6s26.8-59.6 59.6-59.6 59.6 26.8 59.6 59.6-26.7 59.6-59.6 59.6zm0-109.2C168.3-6.3 146 16 146 43.3s22.2 49.6 49.6 49.6 49.6-22.2 49.6-49.6S223-6.3 195.6-6.3z"/>
    <path fill="#2E3191" d="M195.6 81.2c-20.9 0-37.9-17-37.9-37.9s17-37.9 37.9-37.9 37.9 17 37.9 37.9-17 37.9-37.9 37.9zm0-65.7c-15.3 0-27.8 12.5-27.8 27.8s12.5 27.8 27.8 27.8 27.8-12.5 27.8-27.8-12.4-27.8-27.8-27.8z"/>
    <path fill="#2E3191" d="M195.6 61.1c-9.8 0-17.8-8-17.8-17.8s8-17.8 17.8-17.8 17.8 8 17.8 17.8-8 17.8-17.8 17.8zm0-25.5c-4.3 0-7.7 3.5-7.7 7.7s3.5 7.7 7.7 7.7c4.3 0 7.7-3.5 7.7-7.7s-3.4-7.7-7.7-7.7z"/>
  </g>
  <g clip-path="url(#b)">
    <g opacity=".1">
      <circle cx="382.3" cy="330" r="88.6"/>
      <path d="M382.3 426.7c-53.3 0-96.7-43.4-96.7-96.7s43.4-96.7 96.7-96.7S479 276.7 479 330s-43.4 96.7-96.7 96.7zm0-177.1c-44.3 0-80.4 36.1-80.4 80.4s36.1 80.4 80.4 80.4 80.4-36.1 80.4-80.4-36.1-80.4-80.4-80.4z"/>
    </g>
    <circle fill="#FFF" stroke="#F26C0D" stroke-width="6" stroke-miterlimit="10" cx="376.6" cy="324.2" r="88.6"/>
    <circle fill="#FFF" cx="376.6" cy="324.2" r="88.6"/>
    <path fill="#2E3191" d="M376.6 421c-53.3 0-96.7-43.4-96.7-96.7s43.4-96.7 96.7-96.7 96.7 43.4 96.7 96.7-43.4 96.7-96.7 96.7zm0-177.2c-44.3 0-80.4 36.1-80.4 80.4s36.1 80.4 80.4 80.4 80.4-36.1 80.4-80.4-36.1-80.4-80.4-80.4z"/>
    <path fill="#2E3191" d="M376.6 385.7c-33.9 0-61.4-27.6-61.4-61.4s27.6-61.4 61.4-61.4 61.4 27.6 61.4 61.4-27.6 61.4-61.4 61.4zm0-106.6c-24.9 0-45.1 20.2-45.1 45.1 0 24.9 20.2 45.1 45.1 45.1s45.1-20.2 45.1-45.1c0-24.8-20.3-45.1-45.1-45.1z"/>
    <path fill="#2E3191" d="M376.6 353.1c-15.9 0-28.8-12.9-28.8-28.8s12.9-28.8 28.8-28.8 28.8 12.9 28.8 28.8-12.9 28.8-28.8 28.8zm0-41.4c-6.9 0-12.6 5.6-12.6 12.6 0 6.9 5.6 12.6 12.6 12.6s12.6-5.6 12.6-12.6c-.1-7-5.7-12.6-12.6-12.6z"/>
  </g>
  <g clip-path="url(#b)">
    <g opacity=".1">
      <circle cx="287.3" cy="247.3" r="54.2"/>
      <path d="M287.3 306.5c-32.7 0-59.2-26.6-59.2-59.2s26.6-59.2 59.2-59.2 59.2 26.6 59.2 59.2-26.5 59.2-59.2 59.2zm0-108.5c-27.2 0-49.2 22.1-49.2 49.2s22.1 49.2 49.2 49.2 49.2-22.1 49.2-49.2-22-49.2-49.2-49.2z"/>
    </g>
    <circle fill="#FFF" stroke="#F26C0D" stroke-width="6" stroke-miterlimit="10" cx="283.8" cy="243.8" r="54.2"/>
    <circle fill="#FFF" cx="283.8" cy="243.8" r="54.2"/>
    <path fill="#2E3191" d="M283.8 303c-32.7 0-59.2-26.6-59.2-59.2s26.6-59.2 59.2-59.2 59.2 26.6 59.2 59.2-26.6 59.2-59.2 59.2zm0-108.5c-27.2 0-49.2 22.1-49.2 49.2s22.1 49.2 49.2 49.2c27.2 0 49.2-22.1 49.2-49.2s-22-49.2-49.2-49.2z"/>
    <path fill="#2E3191" d="M283.8 281.4c-20.7 0-37.6-16.9-37.6-37.6s16.9-37.6 37.6-37.6c20.7 0 37.6 16.9 37.6 37.6s-16.9 37.6-37.6 37.6zm0-65.3c-15.2 0-27.6 12.4-27.6 27.6s12.4 27.6 27.6 27.6c15.2 0 27.6-12.4 27.6-27.6s-12.4-27.6-27.6-27.6z"/>
    <path fill="#2E3191" d="M283.8 261.4c-9.7 0-17.7-7.9-17.7-17.7 0-9.7 7.9-17.7 17.7-17.7s17.7 7.9 17.7 17.7c0 9.8-8 17.7-17.7 17.7zm0-25.3c-4.2 0-7.7 3.4-7.7 7.7 0 4.2 3.4 7.7 7.7 7.7 4.2 0 7.7-3.4 7.7-7.7 0-4.3-3.5-7.7-7.7-7.7z"/>
  </g>
  <g clip-path="url(#b)">
    <g opacity=".1">
      <circle cx="79.6" cy="262.4" r="59.7"/>
      <path d="M79.6 327.6c-35.9 0-65.2-29.2-65.2-65.2s29.2-65.2 65.2-65.2 65.2 29.2 65.2 65.2-29.3 65.2-65.2 65.2zm0-119.4c-29.9 0-54.2 24.3-54.2 54.2s24.3 54.2 54.2 54.2 54.2-24.3 54.2-54.2-24.3-54.2-54.2-54.2z"/>
    </g>
    <circle fill="#FFF" stroke="#F26C0D" stroke-width="6" stroke-miterlimit="10" cx="75.7" cy="258.5" r="59.7"/>
    <circle fill="#FFF" cx="75.7" cy="258.5" r="59.7"/>
    <path fill="#2E3191" d="M75.7 323.7c-35.9 0-65.2-29.2-65.2-65.2s29.2-65.2 65.2-65.2 65.2 29.2 65.2 65.2-29.3 65.2-65.2 65.2zm0-119.4c-29.9 0-54.2 24.3-54.2 54.2s24.3 54.2 54.2 54.2 54.2-24.3 54.2-54.2-24.3-54.2-54.2-54.2z"/>
    <path fill="#2E3191" d="M75.7 299.9c-22.8 0-41.4-18.6-41.4-41.4s18.6-41.4 41.4-41.4 41.4 18.6 41.4 41.4-18.6 41.4-41.4 41.4zm0-71.8c-16.8 0-30.4 13.6-30.4 30.4s13.6 30.4 30.4 30.4 30.4-13.6 30.4-30.4-13.6-30.4-30.4-30.4z"/>
    <path fill="#2E3191" d="M75.7 277.9c-10.7 0-19.4-8.7-19.4-19.4s8.7-19.4 19.4-19.4 19.4 8.7 19.4 19.4-8.7 19.4-19.4 19.4zm0-27.9c-4.7 0-8.5 3.8-8.5 8.5s3.8 8.5 8.5 8.5 8.5-3.8 8.5-8.5-3.8-8.5-8.5-8.5z"/>
  </g>
  <g clip-path="url(#b)">
    <g opacity=".1">
      <circle cx="73.3" cy="14.8" r="54.2"/>
      <path d="M73.3 74C40.6 74 14 47.5 14 14.8s26.6-59.2 59.2-59.2 59.2 26.6 59.2 59.2S105.9 74 73.3 74zm0-108.4C46.1-34.4 24-12.3 24 14.8S46.1 64 73.3 64s49.2-22.1 49.2-49.2-22.1-49.2-49.2-49.2z"/>
    </g>
    <circle fill="#FFF" stroke="#F26C0D" stroke-width="6" stroke-miterlimit="10" cx="69.7" cy="11.3" r="54.2"/>
    <circle fill="#FFF" cx="69.7" cy="11.3" r="54.2"/>
    <path fill="#2E3191" d="M69.7 70.5c-32.7 0-59.2-26.6-59.2-59.2s26.6-59.2 59.2-59.2S129-21.4 129 11.3s-26.6 59.2-59.3 59.2zm0-108.4c-27.2 0-49.2 22.1-49.2 49.2s22.1 49.2 49.2 49.2S119 38.4 119 11.3 96.9-37.9 69.7-37.9z"/>
    <path fill="#2E3191" d="M69.7 48.9C49 48.9 32.1 32 32.1 11.3S49-26.3 69.7-26.3s37.6 16.9 37.6 37.6-16.8 37.6-37.6 37.6zm0-65.2c-15.2 0-27.6 12.4-27.6 27.6s12.4 27.6 27.6 27.6 27.6-12.4 27.6-27.6S85-16.3 69.7-16.3z"/>
    <path fill="#2E3191" d="M69.7 29c-9.7 0-17.6-8-17.6-17.7S60-6.4 69.7-6.4s17.7 7.9 17.7 17.7S79.5 29 69.7 29zm0-25.4C65.5 3.6 62 7 62 11.3s3.4 7.7 7.7 7.7c4.2 0 7.7-3.4 7.7-7.7S74 3.6 69.7 3.6z"/>
  </g>
  <path clip-path="url(#b)" fill="#2E3191" d="M338.6 23.5c-15.7 0-28.4-12.7-28.4-28.4s12.7-28.4 28.4-28.4S367-20.6 367-4.9s-12.7 28.4-28.4 28.4zm0-49.3c-11.5 0-20.9 9.4-20.9 20.9S327.1 16 338.6 16c11.5 0 20.9-9.4 20.9-20.9s-9.4-20.9-20.9-20.9z"/>
  <path clip-path="url(#b)" fill="#2E3191" d="M338.6 8.4c-7.4 0-13.3-6-13.3-13.3s6-13.3 13.3-13.3 13.3 6 13.3 13.3S346 8.4 338.6 8.4zm0-19.2c-3.2 0-5.8 2.6-5.8 5.8s2.6 5.8 5.8 5.8 5.8-2.6 5.8-5.8-2.6-5.8-5.8-5.8z"/>
  <ellipse opacity=".1" clip-path="url(#b)" cx="137.9" cy="144.9" rx="83" ry="83.3"/>
  <ellipse clip-path="url(#b)" fill="#FFF" cx="133.8" cy="141.7" rx="82.7" ry="83"/>
  <path clip-path="url(#b)" fill="#2E3191" d="M134.2 58.1c-15.3 0-29.6 4.1-41.9 11.3l.6.5-.6 12.8 2.1 2c11.3-8 25-12.7 39.9-12.7 38.2 0 69.4 31.1 69.4 69.4s-31.1 69.4-69.4 69.4-69.4-31.1-69.4-69.4c0-13.8 4.1-26.7 11.1-37.6l-2.5-2.5-12.7.7c-6.3 11.8-10 25.2-10 39.5 0 46 37.4 83.4 83.4 83.4s83.4-37.4 83.4-83.4-37.4-83.4-83.4-83.4z"/>
  <path clip-path="url(#b)" fill="#2E3191" d="M134.2 88.5c-10.3 0-19.8 2.9-28 8l9 8.8 9.8-9.6 2.1 7.6c2.3-.4 4.7-.7 7.1-.7 21.5 0 38.9 17.5 38.9 38.9s-17.5 38.9-38.9 38.9-38.9-17.4-38.9-38.9c0-1.8.2-3.6.4-5.4l-9.3-2.5 9.9-9.7-8.3-8.2c-4.3 7.6-6.7 16.4-6.7 25.8 0 29.2 23.8 53 53 53s53-23.8 53-53-23.8-53-53.1-53z"/>
  <path clip-path="url(#b)" fill="#2E3191" d="M134.2 116.6c-1.1 0-2.2.1-3.3.3l3.8 13.8c5.7.3 10.3 5 10.3 10.8 0 6-4.9 10.8-10.8 10.8-5.3 0-9.7-3.8-10.6-8.8l-14.2-3.8c0 .6-.1 1.2-.1 1.7 0 13.7 11.2 24.9 24.9 24.9s24.9-11.2 24.9-24.9-11.1-24.8-24.9-24.8z"/>
  <ellipse opacity=".1" clip-path="url(#b)" cx="297.1" cy="108.4" rx="95" ry="95.4"/>
  <ellipse clip-path="url(#b)" fill="#FFF" cx="293.1" cy="104.4" rx="95" ry="95.4"/>
  <path clip-path="url(#b)" fill="#F26C0D" d="M293 9.1c-17.5 0-33.9 4.7-48 13l.6.6-.7 14.6 2.4 2.3c12.9-9.1 28.7-14.5 45.7-14.5 43.8 0 79.4 35.6 79.4 79.4S336.8 184 293 184s-79.4-35.6-79.4-79.4c0-15.9 4.7-30.6 12.7-43l-2.9-2.8-14.5.7c-7.3 13.5-11.4 28.9-11.4 45.2 0 52.7 42.8 95.5 95.5 95.5s95.5-42.8 95.5-95.5S345.7 9.1 293 9.1z"/>
  <path clip-path="url(#b)" fill="#F26C0D" d="M293 43.9c-11.7 0-22.7 3.4-32 9.2l10.3 10.1 11.2-11 2.4 8.7c2.6-.5 5.3-.8 8.1-.8 24.6 0 44.6 20 44.6 44.6s-20 44.6-44.6 44.6-44.6-20-44.6-44.6c0-2.1.2-4.2.5-6.2l-10.6-2.8 11.3-11.1-9.6-9.4c-4.9 8.7-7.7 18.8-7.7 29.5 0 33.4 27.2 60.7 60.7 60.7s60.7-27.2 60.7-60.7-27.3-60.8-60.7-60.8z"/>
  <path clip-path="url(#b)" fill="#F26C0D" d="M293 76.1c-1.3 0-2.6.1-3.8.3l4.4 15.9c6.6.3 11.8 5.7 11.8 12.3 0 6.8-5.6 12.4-12.4 12.4-6 0-11.1-4.3-12.2-10.1l-16.2-4.3c0 .7-.1 1.3-.1 2 0 15.7 12.8 28.5 28.5 28.5s28.5-12.8 28.5-28.5-12.8-28.5-28.5-28.5zm-233.8-31l-.6 12.8-6.2-6.1-10.6 10.3 6.2 6.1-13 .6 27.7 27.3 13.1-.6 28.9 28.4-6.8 6.7 33.2 8.9-9-32.7-6.8 6.7-29-28.4.6-12.8"/>
  <g clip-path="url(#b)">
    <ellipse opacity=".1" cx="187" cy="273.9" rx="63.9" ry="64.2"/>
    <ellipse fill="#FFF" cx="184.1" cy="271.1" rx="63.7" ry="64"/>
    <path fill="#2E3191" d="M184.2 207.1c-11.8 0-22.8 3.2-32.3 8.7l.4.4-.5 9.8 1.6 1.6c8.7-6.1 19.3-9.8 30.7-9.8 29.4 0 53.4 24 53.4 53.4s-24 53.4-53.4 53.4-53.4-24-53.4-53.4c0-10.7 3.2-20.6 8.6-28.9l-1.9-1.9-9.8.5c-4.9 9.1-7.7 19.4-7.7 30.4 0 35.4 28.8 64.2 64.2 64.2s64.2-28.8 64.2-64.2-28.7-64.2-64.1-64.2z"/>
    <path fill="#2E3191" d="M184.2 230.5c-7.9 0-15.3 2.3-21.5 6.2l6.9 6.8 7.5-7.4 1.6 5.8c1.8-.3 3.6-.5 5.5-.5 16.5 0 30 13.4 30 30 0 16.5-13.4 30-30 30s-30-13.4-30-30c0-1.4.1-2.8.3-4.2l-7.1-1.9 7.6-7.5-6.4-6.3c-3.3 5.9-5.2 12.6-5.2 19.9 0 22.5 18.3 40.8 40.8 40.8s40.8-18.3 40.8-40.8-18.3-40.9-40.8-40.9z"/>
    <path fill="#2E3191" d="M184.2 252.2c-.9 0-1.7.1-2.6.2l2.9 10.7c4.4.2 8 3.8 8 8.3 0 4.6-3.7 8.3-8.3 8.3-4.1 0-7.4-2.9-8.2-6.8l-10.9-2.9c0 .4-.1.9-.1 1.3 0 10.6 8.6 19.2 19.2 19.2s19.2-8.6 19.2-19.2-8.6-19.1-19.2-19.1z"/>
    <path fill="#F26C0D" d="M126.4 197.1l-.4 9.8-4.8-4.6-8.1 7.9 4.7 4.7-10 .5 21.3 21 10.1-.5 22.2 21.9-5.2 5.2 25.6 6.8-7-25.1-5.2 5.1-22.3-21.9.5-9.8"/>
  </g>
  <path clip-path="url(#b)" fill="#00A862" d="M207.1-5.8l-.7 14.6-7.1-6.9-12.1 11.8 7.1 7-14.9.7 31.7 31.2 14.9-.7 33.2 32.6-7.8 7.6 38 10.2-10.3-37.4-7.8 7.7L238.1 40l.7-14.6"/>
</svg>
