<svg xmlns="http://www.w3.org/2000/svg" viewBox="0 0 455 258">
  <path fill="#E4E4EE" d="M0 0h455v258H0z"/>
  <path fill="none" d="M445.241 0h-3.453c1.67 3.362 1.668 7.473-.38 10.949-3.22 5.466-10.262 7.287-15.728 4.066-5.232-3.083-7.112-9.663-4.439-15.015h-3.453c1.67 3.362 1.668 7.473-.38 10.949-3.22 5.466-10.262 7.287-15.728 4.066-5.232-3.083-7.112-9.663-4.439-15.015h-3.453c1.67 3.362 1.668 7.473-.38 10.949-3.22 5.466-10.262 7.287-15.728 4.066-5.232-3.083-7.112-9.663-4.439-15.015h-3.451c1.67 3.362 1.668 7.473-.38 10.949-3.22 5.466-10.262 7.287-15.728 4.066-5.232-3.083-7.112-9.663-4.439-15.015h-3.451c1.67 3.362 1.668 7.473-.38 10.949-3.22 5.466-10.262 7.287-15.728 4.066-5.232-3.083-7.112-9.663-4.439-15.015h-3.451c1.67 3.362 1.668 7.473-.38 10.949-3.22 5.466-10.262 7.287-15.728 4.066-5.232-3.083-7.112-9.663-4.439-15.015h-3.451c1.67 3.362 1.668 7.473-.38 10.949-3.22 5.466-10.262 7.287-15.728 4.066-5.232-3.083-7.112-9.663-4.439-15.015h-3.451c1.67 3.362 1.668 7.473-.38 10.949-3.22 5.466-10.262 7.287-15.728 4.066-5.232-3.083-7.112-9.663-4.439-15.015H249.8c1.67 3.362 1.668 7.473-.38 10.949-3.22 5.466-10.262 7.287-15.728 4.066-5.232-3.083-7.112-9.663-4.439-15.015h-3.451c1.67 3.362 1.668 7.473-.38 10.949-3.22 5.466-10.262 7.287-15.728 4.066-5.232-3.083-7.112-9.663-4.439-15.015h-3.451c1.67 3.362 1.668 7.473-.38 10.949-3.22 5.466-10.262 7.287-15.728 4.066-5.232-3.083-7.112-9.663-4.439-15.015H177.8c1.67 3.362 1.668 7.473-.38 10.949-3.22 5.466-10.262 7.287-15.728 4.066-5.232-3.083-7.112-9.663-4.439-15.015h-3.451c1.67 3.362 1.668 7.473-.38 10.949-3.22 5.466-10.262 7.287-15.728 4.066-5.232-3.083-7.112-9.663-4.439-15.015h-3.451c1.67 3.362 1.668 7.473-.38 10.949-3.22 5.466-10.262 7.287-15.728 4.066-5.232-3.083-7.112-9.663-4.439-15.015h-3.451c1.67 3.362 1.668 7.473-.38 10.949-3.22 5.466-10.262 7.287-15.728 4.066C84.464 11.932 82.584 5.352 85.256 0h-3.627c1.67 3.362 1.668 7.473-.38 10.949-3.22 5.466-10.262 7.287-15.728 4.066C60.289 11.932 58.41 5.352 61.082 0h-3.453c1.67 3.362 1.668 7.473-.38 10.949-3.22 5.466-10.262 7.287-15.728 4.066C36.289 11.932 34.41 5.352 37.082 0h-3.453c1.67 3.362 1.668 7.473-.38 10.949-3.22 5.466-10.262 7.287-15.728 4.066C12.289 11.932 10.41 5.352 13.082 0H9.629c1.67 3.362 1.668 7.473-.38 10.949-2.021 3.432-5.55 5.424-9.249 5.636v18.426c1.772.099 3.548.602 5.183 1.565 5.466 3.22 7.287 10.262 4.066 15.728-2.021 3.433-5.55 5.425-9.249 5.637v18.885c1.772.099 3.548.602 5.183 1.565 5.466 3.22 7.287 10.262 4.066 15.728-2.021 3.433-5.55 5.425-9.249 5.638v18.885c1.772.099 3.548.602 5.183 1.565 5.466 3.22 7.287 10.262 4.066 15.728-2.022 3.432-5.551 5.424-9.25 5.637v18.885c1.772.099 3.548.602 5.183 1.565 5.466 3.22 7.287 10.262 4.066 15.728-2.022 3.432-5.551 5.425-9.25 5.637v18.885c1.772.099 3.548.602 5.183 1.565 5.466 3.22 7.287 10.262 4.066 15.728-2.022 3.432-5.551 5.424-9.25 5.637v18.885c1.772.099 3.548.602 5.183 1.565 4.387 2.584 6.418 7.63 5.388 12.347h1.572c-.597-2.731-.218-5.682 1.313-8.281 3.22-5.466 10.262-7.287 15.728-4.066 4.387 2.584 6.418 7.63 5.388 12.347h1.572c-.597-2.731-.218-5.682 1.313-8.281 3.22-5.466 10.262-7.287 15.728-4.066 4.387 2.584 6.418 7.63 5.388 12.347h1.572c-.597-2.731-.218-5.682 1.313-8.281 3.22-5.466 10.262-7.287 15.728-4.066 4.387 2.584 6.418 7.63 5.388 12.347h1.746c-.597-2.731-.218-5.682 1.313-8.281 3.22-5.466 10.262-7.287 15.728-4.066 4.387 2.584 6.418 7.63 5.388 12.347h1.57c-.597-2.731-.218-5.682 1.313-8.281 3.22-5.466 10.262-7.287 15.728-4.066 4.387 2.584 6.418 7.63 5.388 12.347h1.57c-.597-2.731-.218-5.682 1.313-8.281 3.22-5.466 10.262-7.287 15.728-4.066 4.387 2.584 6.418 7.63 5.388 12.347h1.57c-.597-2.731-.218-5.682 1.313-8.281 3.22-5.466 10.262-7.287 15.728-4.066 4.387 2.584 6.418 7.63 5.388 12.347h1.57c-.597-2.731-.218-5.682 1.313-8.281 3.22-5.466 10.262-7.287 15.728-4.066 4.387 2.584 6.418 7.63 5.388 12.347h1.57c-.597-2.731-.218-5.682 1.313-8.281 3.22-5.466 10.262-7.287 15.728-4.066 4.387 2.584 6.418 7.63 5.388 12.347h1.57c-.597-2.731-.218-5.682 1.313-8.281 3.22-5.466 10.262-7.287 15.728-4.066 4.387 2.584 6.418 7.63 5.388 12.347h1.57c-.597-2.731-.218-5.682 1.313-8.281 3.22-5.466 10.262-7.287 15.728-4.066 4.387 2.584 6.418 7.63 5.388 12.347h1.57c-.597-2.731-.218-5.682 1.313-8.281 3.22-5.466 10.262-7.287 15.728-4.066 4.387 2.584 6.418 7.63 5.388 12.347h1.57c-.597-2.731-.218-5.682 1.313-8.281 3.22-5.466 10.262-7.287 15.728-4.066 4.387 2.584 6.418 7.63 5.388 12.347h1.57c-.597-2.731-.218-5.682 1.313-8.281 3.22-5.466 10.262-7.287 15.728-4.066 4.387 2.584 6.418 7.63 5.388 12.347h1.57c-.597-2.731-.218-5.682 1.313-8.281 3.22-5.466 10.262-7.287 15.728-4.066 4.387 2.584 6.418 7.63 5.388 12.347h1.57c-.597-2.731-.218-5.682 1.313-8.281 3.22-5.466 10.262-7.287 15.728-4.066 4.387 2.584 6.418 7.63 5.388 12.347h1.572c-.597-2.731-.218-5.682 1.313-8.281 3.22-5.466 10.262-7.287 15.728-4.066 4.387 2.584 6.418 7.63 5.388 12.347h1.572c-.597-2.731-.218-5.682 1.313-8.281 3.22-5.466 10.262-7.287 15.728-4.066 4.387 2.584 6.418 7.63 5.388 12.347h1.572c-.597-2.731-.218-5.682 1.313-8.281 2.047-3.474 5.638-5.468 9.386-5.639v-18.872c-1.818-.079-3.643-.588-5.32-1.576-5.466-3.22-7.287-10.262-4.066-15.728 2.047-3.474 5.638-5.468 9.386-5.639v-18.872c-1.818-.079-3.643-.588-5.32-1.576-5.466-3.22-7.287-10.262-4.066-15.728 2.047-3.474 5.638-5.468 9.386-5.639v-18.872c-1.818-.079-3.643-.588-5.32-1.576-5.466-3.22-7.287-10.262-4.066-15.728 2.047-3.474 5.638-5.468 9.386-5.639V99.762c-1.818-.079-3.643-.588-5.32-1.576-5.466-3.22-7.287-10.262-4.066-15.728 2.047-3.474 5.638-5.468 9.386-5.639V57.947c-1.818-.079-3.643-.588-5.32-1.576-5.466-3.22-7.287-10.262-4.066-15.728 2.047-3.474 5.638-5.468 9.386-5.639V16.591c-1.818-.079-3.643-.588-5.32-1.576-5.239-3.083-7.118-9.663-4.446-15.015z"/>
  <path fill="#FFF" d="M101.358 245.653c-5.466-3.22-12.508-1.4-15.728 4.066-1.531 2.598-1.91 5.55-1.313 8.281h22.428c1.031-4.717-1-9.763-5.387-12.347zm23.998 0c-5.466-3.22-12.508-1.4-15.728 4.066-1.531 2.598-1.91 5.55-1.313 8.281h22.428c1.031-4.717-1-9.763-5.387-12.347zm-48.173 0c-5.466-3.22-12.508-1.4-15.728 4.066-1.531 2.598-1.91 5.55-1.313 8.281H82.57c1.032-4.717-1-9.763-5.387-12.347zm72.172 0c-5.466-3.22-12.508-1.4-15.728 4.066-1.531 2.598-1.91 5.55-1.313 8.281h22.428c1.031-4.717-1-9.763-5.387-12.347zm23.999 0c-5.466-3.22-12.508-1.4-15.728 4.066-1.531 2.598-1.91 5.55-1.313 8.281h22.428c1.031-4.717-1-9.763-5.387-12.347zm23.998 0c-5.466-3.22-12.508-1.4-15.728 4.066-1.531 2.598-1.91 5.55-1.313 8.281h22.428c1.032-4.717-1-9.763-5.387-12.347zm23.999 0c-5.466-3.22-12.508-1.4-15.728 4.066-1.531 2.598-1.91 5.55-1.313 8.281h22.428c1.031-4.717-1-9.763-5.387-12.347zm23.999 0c-5.466-3.22-12.508-1.4-15.728 4.066-1.531 2.598-1.91 5.55-1.313 8.281h22.428c1.031-4.717-1-9.763-5.387-12.347zm23.998 0c-5.466-3.22-12.508-1.4-15.728 4.066-1.531 2.598-1.91 5.55-1.313 8.281h22.428c1.032-4.717-1-9.763-5.387-12.347zm23.999 0c-5.466-3.22-12.508-1.4-15.728 4.066-1.531 2.598-1.91 5.55-1.313 8.281h22.428c1.031-4.717-1-9.763-5.387-12.347zm23.999 0c-5.466-3.22-12.508-1.4-15.728 4.066-1.531 2.598-1.91 5.55-1.313 8.281h22.428c1.031-4.717-1-9.763-5.387-12.347zm23.999 0c-5.466-3.22-12.508-1.4-15.728 4.066-1.531 2.598-1.91 5.55-1.313 8.281h22.428c1.031-4.717-1.001-9.763-5.387-12.347zm23.998 0c-5.466-3.22-12.508-1.4-15.728 4.066-1.531 2.598-1.91 5.55-1.313 8.281h22.428c1.032-4.717-1-9.763-5.387-12.347zm23.999 0c-5.466-3.22-12.508-1.4-15.728 4.066-1.531 2.598-1.91 5.55-1.313 8.281h22.428c1.031-4.717-1-9.763-5.387-12.347zm-336.159 0c-5.466-3.22-12.508-1.4-15.728 4.066-1.531 2.598-1.91 5.55-1.313 8.281H58.57c1.032-4.717-1-9.763-5.387-12.347zm-24 0c-5.466-3.22-12.508-1.4-15.728 4.066-1.531 2.598-1.91 5.55-1.313 8.281H34.57c1.032-4.717-1-9.763-5.387-12.347zm384.159 0c-5.466-3.22-12.508-1.4-15.728 4.066-1.531 2.598-1.91 5.55-1.313 8.281h22.428c1.031-4.717-1-9.763-5.387-12.347zm24 0c-5.466-3.22-12.508-1.4-15.728 4.066-1.531 2.598-1.91 5.55-1.313 8.281h22.428c1.031-4.717-1-9.763-5.387-12.347zM9.25 52.305c3.22-5.466 1.4-12.508-4.066-15.728C3.548 35.613 1.772 35.11 0 35.011v22.93c3.699-.212 7.228-2.204 9.25-5.636zm0 41.815c3.22-5.466 1.4-12.508-4.066-15.728-1.636-.964-3.412-1.467-5.184-1.565v22.93c3.699-.213 7.228-2.205 9.25-5.637zm0 41.815c3.22-5.466 1.4-12.508-4.066-15.728-1.635-.963-3.411-1.466-5.183-1.565v22.93c3.698-.213 7.227-2.205 9.249-5.637zm0 41.815c3.22-5.466 1.4-12.508-4.066-15.728-1.635-.963-3.411-1.466-5.183-1.565v22.93c3.698-.212 7.227-2.205 9.249-5.637zm0 41.816c3.22-5.466 1.4-12.508-4.066-15.728-1.635-.963-3.411-1.466-5.183-1.565v22.93c3.698-.213 7.227-2.205 9.249-5.637zm-4.067 26.087c-1.635-.963-3.411-1.466-5.183-1.565V258h10.571c1.031-4.717-1.001-9.763-5.388-12.347zM89.696 15.015c5.466 3.22 12.508 1.4 15.728-4.066 2.048-3.476 2.05-7.586.38-10.949H85.256c-2.672 5.352-.792 11.932 4.44 15.015zm23.998 0c5.466 3.22 12.508 1.4 15.728-4.066 2.048-3.476 2.05-7.586.38-10.949h-20.547c-2.672 5.352-.793 11.932 4.439 15.015zm-48.173 0c5.466 3.22 12.508 1.4 15.728-4.066C83.298 7.473 83.3 3.362 81.629 0H61.082c-2.672 5.352-.793 11.932 4.439 15.015zm72.172 0c5.466 3.22 12.508 1.4 15.728-4.066 2.048-3.476 2.05-7.586.38-10.949h-20.547c-2.672 5.352-.793 11.932 4.439 15.015zm23.999 0c5.466 3.22 12.508 1.4 15.728-4.066 2.048-3.476 2.05-7.586.38-10.949h-20.547c-2.673 5.352-.793 11.932 4.439 15.015zm23.999 0c5.466 3.22 12.508 1.4 15.728-4.066 2.048-3.476 2.05-7.586.38-10.949h-20.547c-2.673 5.352-.794 11.932 4.439 15.015zm23.998 0c5.466 3.22 12.508 1.4 15.728-4.066 2.048-3.476 2.05-7.586.38-10.949H205.25c-2.672 5.352-.793 11.932 4.439 15.015zm-168.168 0c5.466 3.22 12.508 1.4 15.728-4.066C59.298 7.473 59.3 3.362 57.629 0H37.082c-2.672 5.352-.793 11.932 4.439 15.015zm-24 0c5.466 3.22 12.508 1.4 15.728-4.066C35.298 7.473 35.3 3.362 33.629 0H13.082c-2.672 5.352-.793 11.932 4.439 15.015zM9.25 10.949C11.298 7.473 11.3 3.362 9.629 0H0v16.585c3.699-.212 7.228-2.204 9.25-5.636zm224.438 4.066c5.466 3.22 12.508 1.4 15.728-4.066 2.048-3.476 2.05-7.586.38-10.949h-20.547c-2.673 5.352-.793 11.932 4.439 15.015zm23.999 0c5.466 3.22 12.508 1.4 15.728-4.066 2.048-3.476 2.05-7.586.38-10.949h-20.547c-2.673 5.352-.794 11.932 4.439 15.015zm23.998 0c5.466 3.22 12.508 1.4 15.728-4.066 2.048-3.476 2.05-7.586.38-10.949h-20.547c-2.672 5.352-.793 11.932 4.439 15.015zm23.999 0c5.466 3.22 12.508 1.4 15.728-4.066 2.048-3.476 2.05-7.586.38-10.949h-20.547c-2.673 5.352-.793 11.932 4.439 15.015zm23.999 0c5.466 3.22 12.508 1.4 15.728-4.066 2.048-3.476 2.05-7.586.38-10.949h-20.547c-2.673 5.352-.793 11.932 4.439 15.015zm23.998 0c5.466 3.22 12.508 1.4 15.728-4.066 2.048-3.476 2.05-7.586.38-10.949h-20.547c-2.672 5.352-.793 11.932 4.439 15.015zm23.999 0c5.466 3.22 12.508 1.4 15.728-4.066 2.048-3.476 2.05-7.586.38-10.949h-20.547c-2.672 5.352-.793 11.932 4.439 15.015zm24 0c5.466 3.22 12.508 1.4 15.728-4.066 2.048-3.476 2.05-7.586.38-10.949h-20.547c-2.672 5.352-.793 11.932 4.439 15.015zm24 0c5.466 3.22 12.508 1.4 15.728-4.066 2.048-3.476 2.05-7.586.38-10.949h-20.547c-2.672 5.352-.793 11.932 4.439 15.015zm19.934 25.628c-3.22 5.466-1.4 12.508 4.066 15.728 1.677.988 3.502 1.497 5.32 1.576V35.004c-3.748.171-7.339 2.165-9.386 5.639zm0 41.815c-3.22 5.466-1.4 12.508 4.066 15.728 1.677.988 3.502 1.497 5.32 1.576V76.819c-3.748.171-7.339 2.165-9.386 5.639zm0 41.815c-3.22 5.466-1.4 12.508 4.066 15.728 1.677.988 3.502 1.497 5.32 1.576v-22.943c-3.748.171-7.339 2.165-9.386 5.639zm0 41.816c-3.22 5.466-1.4 12.508 4.066 15.728 1.677.988 3.502 1.497 5.32 1.576V160.45c-3.748.17-7.339 2.164-9.386 5.639zm0 41.815c-3.22 5.466-1.4 12.508 4.066 15.728 1.677.988 3.502 1.497 5.32 1.576v-22.943c-3.748.171-7.339 2.165-9.386 5.639zm0 41.815c-1.531 2.598-1.91 5.55-1.313 8.281H455v-13.92c-3.748.171-7.339 2.165-9.386 5.639zM445.241 0c-2.672 5.352-.793 11.932 4.439 15.015 1.677.988 3.502 1.497 5.32 1.576V0h-9.759z"/>
  <ellipse transform="rotate(-59.496 83.35 25.7)" fill="#FFF" cx="83.352" cy="25.7" rx="11.487" ry="11.487"/>
  <ellipse transform="rotate(-59.496 107.35 25.7)" fill="#FFF" cx="107.35" cy="25.7" rx="11.487" ry="11.487"/>
  <ellipse transform="rotate(-59.496 131.348 25.7)" fill="#FFF" cx="131.349" cy="25.7" rx="11.487" ry="11.487"/>
  <ellipse transform="rotate(-59.496 155.347 25.7)" fill="#FFF" cx="155.348" cy="25.7" rx="11.487" ry="11.487"/>
  <ellipse transform="rotate(-59.496 179.345 25.7)" fill="#FFF" cx="179.347" cy="25.7" rx="11.487" ry="11.487"/>
  <ellipse transform="rotate(-59.496 203.344 25.7)" fill="#FFF" cx="203.345" cy="25.7" rx="11.487" ry="11.487"/>
  <ellipse transform="rotate(-59.496 227.342 25.7)" fill="#FFF" cx="227.344" cy="25.7" rx="11.487" ry="11.487"/>
  <ellipse transform="rotate(-59.496 251.34 25.7)" fill="#FFF" cx="251.343" cy="25.7" rx="11.487" ry="11.487"/>
  <ellipse transform="rotate(-59.496 275.34 25.7)" fill="#FFF" cx="275.341" cy="25.7" rx="11.487" ry="11.487"/>
  <ellipse transform="rotate(-59.496 299.338 25.7)" fill="#FFF" cx="299.34" cy="25.7" rx="11.487" ry="11.487"/>
  <ellipse transform="rotate(-59.496 323.336 25.7)" fill="#FFF" cx="323.339" cy="25.7" rx="11.487" ry="11.487"/>
  <ellipse transform="rotate(-59.496 347.335 25.7)" fill="#FFF" cx="347.337" cy="25.7" rx="11.487" ry="11.487"/>
  <ellipse transform="rotate(-59.496 371.333 25.7)" fill="#FFF" cx="371.336" cy="25.7" rx="11.487" ry="11.487"/>
  <ellipse transform="rotate(-59.496 95.526 46.473)" fill="#FFF" cx="95.527" cy="46.474" rx="11.487" ry="11.487"/>
  <ellipse transform="rotate(-59.496 119.525 46.473)" fill="#FFF" cx="119.525" cy="46.474" rx="11.487" ry="11.487"/>
  <ellipse transform="rotate(-59.496 71.352 46.473)" fill="#FFF" cx="71.352" cy="46.474" rx="11.487" ry="11.487"/>
  <ellipse transform="rotate(-59.496 143.523 46.473)" fill="#FFF" cx="143.524" cy="46.474" rx="11.487" ry="11.487"/>
  <ellipse transform="rotate(-59.496 167.522 46.473)" fill="#FFF" cx="167.523" cy="46.474" rx="11.487" ry="11.487"/>
  <ellipse transform="rotate(-59.496 191.52 46.473)" fill="#FFF" cx="191.521" cy="46.474" rx="11.487" ry="11.487"/>
  <ellipse transform="rotate(-59.496 215.52 46.473)" fill="#FFF" cx="215.52" cy="46.474" rx="11.487" ry="11.487"/>
  <ellipse transform="rotate(-59.496 239.517 46.473)" fill="#FFF" cx="239.519" cy="46.474" rx="11.487" ry="11.487"/>
  <ellipse transform="rotate(-59.496 263.516 46.472)" fill="#FFF" cx="263.518" cy="46.474" rx="11.487" ry="11.487"/>
  <ellipse transform="rotate(-59.496 287.514 46.472)" fill="#FFF" cx="287.516" cy="46.474" rx="11.487" ry="11.487"/>
  <ellipse transform="rotate(-59.496 311.513 46.472)" fill="#FFF" cx="311.515" cy="46.474" rx="11.487" ry="11.487"/>
  <ellipse transform="rotate(-59.496 335.51 46.472)" fill="#FFF" cx="335.514" cy="46.474" rx="11.487" ry="11.487"/>
  <ellipse transform="rotate(-59.496 359.51 46.472)" fill="#FFF" cx="359.512" cy="46.474" rx="11.487" ry="11.487"/>
  <ellipse transform="rotate(-59.496 383.508 46.472)" fill="#FFF" cx="383.511" cy="46.474" rx="11.487" ry="11.487"/>
  <ellipse transform="rotate(-59.496 83.35 67.515)" fill="#FFF" cx="83.352" cy="67.516" rx="11.487" ry="11.487"/>
  <ellipse transform="rotate(-59.496 107.35 67.515)" fill="#FFF" cx="107.35" cy="67.516" rx="11.487" ry="11.487"/>
  <ellipse transform="rotate(-59.496 131.348 67.515)" fill="#FFF" cx="131.349" cy="67.516" rx="11.487" ry="11.487"/>
  <ellipse transform="rotate(-59.496 155.347 67.515)" fill="#FFF" cx="155.348" cy="67.516" rx="11.487" ry="11.487"/>
  <ellipse transform="rotate(-59.496 179.345 67.515)" fill="#FFF" cx="179.347" cy="67.516" rx="11.487" ry="11.487"/>
  <ellipse transform="rotate(-59.496 203.344 67.515)" fill="#FFF" cx="203.345" cy="67.516" rx="11.487" ry="11.487"/>
  <ellipse transform="rotate(-59.496 227.342 67.515)" fill="#FFF" cx="227.344" cy="67.516" rx="11.487" ry="11.487"/>
  <ellipse transform="rotate(-59.496 251.34 67.515)" fill="#FFF" cx="251.343" cy="67.516" rx="11.487" ry="11.487"/>
  <ellipse transform="rotate(-59.496 275.34 67.514)" fill="#FFF" cx="275.341" cy="67.516" rx="11.487" ry="11.487"/>
  <ellipse transform="rotate(-59.496 299.338 67.514)" fill="#FFF" cx="299.34" cy="67.516" rx="11.487" ry="11.487"/>
  <ellipse transform="rotate(-59.496 323.336 67.514)" fill="#FFF" cx="323.339" cy="67.516" rx="11.487" ry="11.487"/>
  <ellipse transform="rotate(-59.496 347.335 67.514)" fill="#FFF" cx="347.337" cy="67.516" rx="11.487" ry="11.487"/>
  <ellipse transform="rotate(-59.496 371.333 67.514)" fill="#FFF" cx="371.336" cy="67.516" rx="11.487" ry="11.487"/>
  <ellipse transform="rotate(-59.496 95.526 88.288)" fill="#FFF" cx="95.527" cy="88.289" rx="11.487" ry="11.487"/>
  <ellipse transform="rotate(-59.496 119.525 88.288)" fill="#FFF" cx="119.525" cy="88.289" rx="11.487" ry="11.487"/>
  <ellipse transform="rotate(-59.496 71.352 88.288)" fill="#FFF" cx="71.352" cy="88.289" rx="11.487" ry="11.487"/>
  <ellipse transform="rotate(-59.496 143.523 88.288)" fill="#FFF" cx="143.524" cy="88.289" rx="11.487" ry="11.487"/>
  <ellipse transform="rotate(-59.496 167.522 88.288)" fill="#FFF" cx="167.523" cy="88.289" rx="11.487" ry="11.487"/>
  <ellipse transform="rotate(-59.496 191.52 88.288)" fill="#FFF" cx="191.521" cy="88.289" rx="11.487" ry="11.487"/>
  <ellipse transform="rotate(-59.496 215.52 88.288)" fill="#FFF" cx="215.52" cy="88.289" rx="11.487" ry="11.487"/>
  <ellipse transform="rotate(-59.496 239.517 88.288)" fill="#FFF" cx="239.519" cy="88.289" rx="11.487" ry="11.487"/>
  <ellipse transform="rotate(-59.496 263.516 88.287)" fill="#FFF" cx="263.518" cy="88.289" rx="11.487" ry="11.487"/>
  <ellipse transform="rotate(-59.496 287.514 88.287)" fill="#FFF" cx="287.516" cy="88.289" rx="11.487" ry="11.487"/>
  <ellipse transform="rotate(-59.496 311.513 88.287)" fill="#FFF" cx="311.515" cy="88.289" rx="11.487" ry="11.487"/>
  <ellipse transform="rotate(-59.496 335.51 88.287)" fill="#FFF" cx="335.514" cy="88.289" rx="11.487" ry="11.487"/>
  <ellipse transform="rotate(-59.496 359.51 88.287)" fill="#FFF" cx="359.512" cy="88.289" rx="11.487" ry="11.487"/>
  <ellipse transform="rotate(-59.496 383.508 88.287)" fill="#FFF" cx="383.511" cy="88.289" rx="11.487" ry="11.487"/>
  <ellipse transform="rotate(-59.496 83.35 109.33)" fill="#FFF" cx="83.352" cy="109.331" rx="11.487" ry="11.487"/>
  <ellipse transform="rotate(-59.496 107.35 109.33)" fill="#FFF" cx="107.35" cy="109.331" rx="11.487" ry="11.487"/>
  <ellipse transform="rotate(-59.496 131.348 109.33)" fill="#FFF" cx="131.349" cy="109.331" rx="11.487" ry="11.487"/>
  <ellipse transform="rotate(-59.496 155.347 109.33)" fill="#FFF" cx="155.348" cy="109.331" rx="11.487" ry="11.487"/>
  <ellipse transform="rotate(-59.496 179.345 109.33)" fill="#FFF" cx="179.347" cy="109.331" rx="11.487" ry="11.487"/>
  <ellipse transform="rotate(-59.496 203.344 109.33)" fill="#FFF" cx="203.345" cy="109.331" rx="11.487" ry="11.487"/>
  <ellipse transform="rotate(-59.496 227.342 109.33)" fill="#FFF" cx="227.344" cy="109.331" rx="11.487" ry="11.487"/>
  <ellipse transform="rotate(-59.496 251.34 109.33)" fill="#FFF" cx="251.343" cy="109.331" rx="11.487" ry="11.487"/>
  <ellipse transform="rotate(-59.496 275.34 109.33)" fill="#FFF" cx="275.341" cy="109.331" rx="11.487" ry="11.487"/>
  <ellipse transform="rotate(-59.496 299.338 109.33)" fill="#FFF" cx="299.34" cy="109.331" rx="11.487" ry="11.487"/>
  <ellipse transform="rotate(-59.496 323.336 109.33)" fill="#FFF" cx="323.339" cy="109.331" rx="11.487" ry="11.487"/>
  <ellipse transform="rotate(-59.496 347.335 109.33)" fill="#FFF" cx="347.337" cy="109.331" rx="11.487" ry="11.487"/>
  <ellipse transform="rotate(-59.496 371.334 109.33)" fill="#FFF" cx="371.336" cy="109.331" rx="11.487" ry="11.487"/>
  <ellipse transform="rotate(-59.496 95.526 130.103)" fill="#FFF" cx="95.527" cy="130.104" rx="11.487" ry="11.487"/>
  <ellipse transform="rotate(-59.496 119.525 130.103)" fill="#FFF" cx="119.525" cy="130.104" rx="11.487" ry="11.487"/>
  <ellipse transform="rotate(-59.496 71.352 130.103)" fill="#FFF" cx="71.352" cy="130.104" rx="11.487" ry="11.487"/>
  <ellipse transform="rotate(-59.496 143.523 130.103)" fill="#FFF" cx="143.524" cy="130.104" rx="11.487" ry="11.487"/>
  <ellipse transform="rotate(-59.496 167.522 130.103)" fill="#FFF" cx="167.523" cy="130.104" rx="11.487" ry="11.487"/>
  <ellipse transform="rotate(-59.496 191.52 130.103)" fill="#FFF" cx="191.521" cy="130.104" rx="11.487" ry="11.487"/>
  <ellipse transform="rotate(-59.496 215.52 130.103)" fill="#FFF" cx="215.52" cy="130.104" rx="11.487" ry="11.487"/>
  <ellipse transform="rotate(-59.496 239.517 130.103)" fill="#FFF" cx="239.519" cy="130.104" rx="11.487" ry="11.487"/>
  <ellipse transform="rotate(-59.496 263.516 130.102)" fill="#FFF" cx="263.518" cy="130.104" rx="11.487" ry="11.487"/>
  <ellipse transform="rotate(-59.496 287.514 130.102)" fill="#FFF" cx="287.516" cy="130.104" rx="11.487" ry="11.487"/>
  <ellipse transform="rotate(-59.496 311.513 130.102)" fill="#FFF" cx="311.515" cy="130.104" rx="11.487" ry="11.487"/>
  <ellipse transform="rotate(-59.496 335.51 130.102)" fill="#FFF" cx="335.514" cy="130.104" rx="11.487" ry="11.487"/>
  <ellipse transform="rotate(-59.496 359.51 130.102)" fill="#FFF" cx="359.512" cy="130.104" rx="11.487" ry="11.487"/>
  <ellipse transform="rotate(-59.496 383.508 130.102)" fill="#FFF" cx="383.511" cy="130.104" rx="11.487" ry="11.487"/>
  <ellipse transform="rotate(-59.496 83.35 151.145)" fill="#FFF" cx="83.352" cy="151.146" rx="11.487" ry="11.487"/>
  <ellipse transform="rotate(-59.496 107.35 151.145)" fill="#FFF" cx="107.35" cy="151.146" rx="11.487" ry="11.487"/>
  <ellipse transform="rotate(-59.496 131.35 151.145)" fill="#FFF" cx="131.349" cy="151.146" rx="11.487" ry="11.487"/>
  <ellipse transform="rotate(-59.496 155.347 151.145)" fill="#FFF" cx="155.348" cy="151.146" rx="11.487" ry="11.487"/>
  <ellipse transform="rotate(-59.496 179.346 151.145)" fill="#FFF" cx="179.347" cy="151.146" rx="11.487" ry="11.487"/>
  <ellipse transform="rotate(-59.496 203.344 151.145)" fill="#FFF" cx="203.345" cy="151.146" rx="11.487" ry="11.487"/>
  <ellipse transform="rotate(-59.496 227.343 151.145)" fill="#FFF" cx="227.344" cy="151.146" rx="11.487" ry="11.487"/>
  <ellipse transform="rotate(-59.496 251.34 151.144)" fill="#FFF" cx="251.343" cy="151.146" rx="11.487" ry="11.487"/>
  <ellipse transform="rotate(-59.496 275.34 151.144)" fill="#FFF" cx="275.341" cy="151.146" rx="11.487" ry="11.487"/>
  <ellipse transform="rotate(-59.496 299.338 151.144)" fill="#FFF" cx="299.34" cy="151.146" rx="11.487" ry="11.487"/>
  <ellipse transform="rotate(-59.496 323.337 151.144)" fill="#FFF" cx="323.339" cy="151.146" rx="11.487" ry="11.487"/>
  <ellipse transform="rotate(-59.496 347.335 151.144)" fill="#FFF" cx="347.337" cy="151.146" rx="11.487" ry="11.487"/>
  <ellipse transform="rotate(-59.496 371.334 151.144)" fill="#FFF" cx="371.336" cy="151.146" rx="11.487" ry="11.487"/>
  <ellipse transform="rotate(-59.496 95.526 171.918)" fill="#FFF" cx="95.527" cy="171.919" rx="11.487" ry="11.487"/>
  <ellipse transform="rotate(-59.496 119.525 171.918)" fill="#FFF" cx="119.525" cy="171.919" rx="11.487" ry="11.487"/>
  <ellipse transform="rotate(-59.496 71.352 171.918)" fill="#FFF" cx="71.352" cy="171.919" rx="11.487" ry="11.487"/>
  <ellipse transform="rotate(-59.496 143.523 171.918)" fill="#FFF" cx="143.524" cy="171.919" rx="11.487" ry="11.487"/>
  <ellipse transform="rotate(-59.496 167.522 171.918)" fill="#FFF" cx="167.523" cy="171.919" rx="11.487" ry="11.487"/>
  <ellipse transform="rotate(-59.496 191.52 171.918)" fill="#FFF" cx="191.521" cy="171.919" rx="11.487" ry="11.487"/>
  <ellipse transform="rotate(-59.496 215.52 171.918)" fill="#FFF" cx="215.52" cy="171.919" rx="11.487" ry="11.487"/>
  <ellipse transform="rotate(-59.496 239.517 171.917)" fill="#FFF" cx="239.519" cy="171.919" rx="11.487" ry="11.487"/>
  <ellipse transform="rotate(-59.496 263.516 171.917)" fill="#FFF" cx="263.518" cy="171.919" rx="11.487" ry="11.487"/>
  <ellipse transform="rotate(-59.496 287.515 171.917)" fill="#FFF" cx="287.516" cy="171.919" rx="11.487" ry="11.487"/>
  <ellipse transform="rotate(-59.496 311.513 171.917)" fill="#FFF" cx="311.515" cy="171.919" rx="11.487" ry="11.487"/>
  <ellipse transform="rotate(-59.496 335.512 171.917)" fill="#FFF" cx="335.514" cy="171.919" rx="11.487" ry="11.487"/>
  <ellipse transform="rotate(-59.496 359.51 171.917)" fill="#FFF" cx="359.512" cy="171.919" rx="11.487" ry="11.487"/>
  <ellipse transform="rotate(-59.496 383.51 171.917)" fill="#FFF" cx="383.511" cy="171.919" rx="11.487" ry="11.487"/>
  <ellipse transform="rotate(-59.496 83.352 192.96)" fill="#FFF" cx="83.352" cy="192.962" rx="11.487" ry="11.487"/>
  <ellipse transform="rotate(-59.496 107.35 192.96)" fill="#FFF" cx="107.35" cy="192.962" rx="11.487" ry="11.487"/>
  <ellipse transform="rotate(-59.496 131.35 192.96)" fill="#FFF" cx="131.349" cy="192.962" rx="11.487" ry="11.487"/>
  <ellipse transform="rotate(-59.496 155.347 192.96)" fill="#FFF" cx="155.348" cy="192.962" rx="11.487" ry="11.487"/>
  <ellipse transform="rotate(-59.496 179.346 192.96)" fill="#FFF" cx="179.347" cy="192.962" rx="11.487" ry="11.487"/>
  <ellipse transform="rotate(-59.496 203.344 192.96)" fill="#FFF" cx="203.345" cy="192.962" rx="11.487" ry="11.487"/>
  <ellipse transform="rotate(-59.496 227.343 192.96)" fill="#FFF" cx="227.344" cy="192.962" rx="11.487" ry="11.487"/>
  <ellipse transform="rotate(-59.496 251.34 192.96)" fill="#FFF" cx="251.343" cy="192.962" rx="11.487" ry="11.487"/>
  <ellipse transform="rotate(-59.496 275.34 192.96)" fill="#FFF" cx="275.341" cy="192.962" rx="11.487" ry="11.487"/>
  <ellipse transform="rotate(-59.496 299.338 192.96)" fill="#FFF" cx="299.34" cy="192.962" rx="11.487" ry="11.487"/>
  <ellipse transform="rotate(-59.496 323.337 192.96)" fill="#FFF" cx="323.339" cy="192.962" rx="11.487" ry="11.487"/>
  <ellipse transform="rotate(-59.496 347.335 192.96)" fill="#FFF" cx="347.337" cy="192.962" rx="11.487" ry="11.487"/>
  <ellipse transform="rotate(-59.496 371.334 192.96)" fill="#FFF" cx="371.336" cy="192.962" rx="11.487" ry="11.487"/>
  <ellipse transform="rotate(-59.496 95.527 213.733)" fill="#FFF" cx="95.527" cy="213.735" rx="11.487" ry="11.487"/>
  <ellipse transform="rotate(-59.496 119.525 213.733)" fill="#FFF" cx="119.525" cy="213.735" rx="11.487" ry="11.487"/>
  <ellipse transform="rotate(-59.496 71.352 213.733)" fill="#FFF" cx="71.352" cy="213.735" rx="11.487" ry="11.487"/>
  <ellipse transform="rotate(-59.496 143.524 213.733)" fill="#FFF" cx="143.524" cy="213.735" rx="11.487" ry="11.487"/>
  <ellipse transform="rotate(-59.496 167.522 213.733)" fill="#FFF" cx="167.523" cy="213.735" rx="11.487" ry="11.487"/>
  <ellipse transform="rotate(-59.496 191.52 213.733)" fill="#FFF" cx="191.521" cy="213.735" rx="11.487" ry="11.487"/>
  <ellipse transform="rotate(-59.496 215.52 213.732)" fill="#FFF" cx="215.52" cy="213.735" rx="11.487" ry="11.487"/>
  <ellipse transform="rotate(-59.496 239.518 213.732)" fill="#FFF" cx="239.519" cy="213.735" rx="11.487" ry="11.487"/>
  <ellipse transform="rotate(-59.496 263.516 213.732)" fill="#FFF" cx="263.518" cy="213.735" rx="11.487" ry="11.487"/>
  <ellipse transform="rotate(-59.496 287.515 213.732)" fill="#FFF" cx="287.516" cy="213.735" rx="11.487" ry="11.487"/>
  <ellipse transform="rotate(-59.496 311.513 213.732)" fill="#FFF" cx="311.515" cy="213.735" rx="11.487" ry="11.487"/>
  <ellipse transform="rotate(-59.496 335.512 213.732)" fill="#FFF" cx="335.514" cy="213.735" rx="11.487" ry="11.487"/>
  <ellipse transform="rotate(-59.496 359.51 213.732)" fill="#FFF" cx="359.512" cy="213.735" rx="11.487" ry="11.487"/>
  <ellipse transform="rotate(-59.496 383.51 213.732)" fill="#FFF" cx="383.511" cy="213.735" rx="11.487" ry="11.487"/>
  <ellipse transform="rotate(-59.496 83.352 234.775)" fill="#FFF" cx="83.352" cy="234.777" rx="11.487" ry="11.487"/>
  <ellipse transform="rotate(-59.496 107.35 234.775)" fill="#FFF" cx="107.35" cy="234.777" rx="11.487" ry="11.487"/>
  <ellipse transform="rotate(-59.496 131.35 234.775)" fill="#FFF" cx="131.349" cy="234.777" rx="11.487" ry="11.487"/>
  <ellipse transform="rotate(-59.496 155.347 234.775)" fill="#FFF" cx="155.348" cy="234.777" rx="11.487" ry="11.487"/>
  <ellipse transform="rotate(-59.496 179.346 234.775)" fill="#FFF" cx="179.347" cy="234.777" rx="11.487" ry="11.487"/>
  <ellipse transform="rotate(-59.496 203.344 234.775)" fill="#FFF" cx="203.345" cy="234.777" rx="11.487" ry="11.487"/>
  <ellipse transform="rotate(-59.496 227.343 234.774)" fill="#FFF" cx="227.344" cy="234.777" rx="11.487" ry="11.487"/>
  <ellipse transform="rotate(-59.496 251.34 234.774)" fill="#FFF" cx="251.343" cy="234.777" rx="11.487" ry="11.487"/>
  <ellipse transform="rotate(-59.496 275.34 234.774)" fill="#FFF" cx="275.341" cy="234.777" rx="11.487" ry="11.487"/>
  <ellipse transform="rotate(-59.496 299.338 234.774)" fill="#FFF" cx="299.34" cy="234.777" rx="11.487" ry="11.487"/>
  <ellipse transform="rotate(-59.496 323.337 234.774)" fill="#FFF" cx="323.339" cy="234.777" rx="11.487" ry="11.487"/>
  <ellipse transform="rotate(-59.496 347.335 234.774)" fill="#FFF" cx="347.337" cy="234.777" rx="11.487" ry="11.487"/>
  <ellipse transform="rotate(-59.496 371.334 234.774)" fill="#FFF" cx="371.336" cy="234.777" rx="11.487" ry="11.487"/>
  <path fill="none" d="M71.433 12.838h312.119v235.29H71.433z"/>
  <ellipse transform="rotate(-59.496 59.35 25.7)" fill="#FFF" cx="59.352" cy="25.7" rx="11.487" ry="11.487"/>
  <ellipse transform="rotate(-59.496 47.352 46.473)" fill="#FFF" cx="47.352" cy="46.474" rx="11.487" ry="11.487"/>
  <ellipse transform="rotate(-59.496 59.35 67.515)" fill="#FFF" cx="59.352" cy="67.516" rx="11.487" ry="11.487"/>
  <ellipse transform="rotate(-59.496 47.352 88.288)" fill="#FFF" cx="47.352" cy="88.289" rx="11.487" ry="11.487"/>
  <ellipse transform="rotate(-59.496 59.352 109.33)" fill="#FFF" cx="59.352" cy="109.331" rx="11.487" ry="11.487"/>
  <ellipse transform="rotate(-59.496 47.352 130.103)" fill="#FFF" cx="47.352" cy="130.104" rx="11.487" ry="11.487"/>
  <ellipse transform="rotate(-59.496 59.352 151.145)" fill="#FFF" cx="59.352" cy="151.146" rx="11.487" ry="11.487"/>
  <ellipse transform="rotate(-59.496 47.352 171.918)" fill="#FFF" cx="47.352" cy="171.919" rx="11.487" ry="11.487"/>
  <ellipse transform="rotate(-59.496 59.352 192.96)" fill="#FFF" cx="59.352" cy="192.962" rx="11.487" ry="11.487"/>
  <ellipse transform="rotate(-59.496 47.353 213.733)" fill="#FFF" cx="47.352" cy="213.735" rx="11.487" ry="11.487"/>
  <ellipse transform="rotate(-59.496 59.352 234.775)" fill="#FFF" cx="59.352" cy="234.777" rx="11.487" ry="11.487"/>
  <path fill="none" d="M47.433 12.838h312.119v235.29H47.433z"/>
  <ellipse transform="rotate(-59.496 35.352 25.7)" fill="#FFF" cx="35.352" cy="25.7" rx="11.487" ry="11.487"/>
  <ellipse transform="rotate(-59.496 23.352 46.473)" fill="#FFF" cx="23.352" cy="46.474" rx="11.487" ry="11.487"/>
  <ellipse transform="rotate(-59.496 35.352 67.515)" fill="#FFF" cx="35.352" cy="67.516" rx="11.487" ry="11.487"/>
  <ellipse transform="rotate(-59.496 23.352 88.288)" fill="#FFF" cx="23.352" cy="88.289" rx="11.487" ry="11.487"/>
  <ellipse transform="rotate(-59.496 35.352 109.33)" fill="#FFF" cx="35.352" cy="109.331" rx="11.487" ry="11.487"/>
  <ellipse transform="rotate(-59.496 23.353 130.103)" fill="#FFF" cx="23.352" cy="130.104" rx="11.487" ry="11.487"/>
  <ellipse transform="rotate(-59.496 35.352 151.145)" fill="#FFF" cx="35.352" cy="151.146" rx="11.487" ry="11.487"/>
  <ellipse transform="rotate(-59.496 23.353 171.918)" fill="#FFF" cx="23.352" cy="171.919" rx="11.487" ry="11.487"/>
  <ellipse transform="rotate(-59.496 35.352 192.96)" fill="#FFF" cx="35.352" cy="192.962" rx="11.487" ry="11.487"/>
  <ellipse transform="rotate(-59.496 23.353 213.733)" fill="#FFF" cx="23.352" cy="213.735" rx="11.487" ry="11.487"/>
  <ellipse transform="rotate(-59.496 35.352 234.775)" fill="#FFF" cx="35.352" cy="234.777" rx="11.487" ry="11.487"/>
  <path fill="none" d="M23.433 12.838h312.119v235.29H23.433z"/>
  <path fill="none" d="M-.567 12.838h312.119v235.29H-.567z"/>
  <ellipse transform="rotate(-59.496 395.333 25.7)" fill="#FFF" cx="395.336" cy="25.7" rx="11.487" ry="11.487"/>
  <ellipse transform="rotate(-59.496 407.508 46.472)" fill="#FFF" cx="407.511" cy="46.474" rx="11.487" ry="11.487"/>
  <ellipse transform="rotate(-59.496 395.333 67.514)" fill="#FFF" cx="395.336" cy="67.516" rx="11.487" ry="11.487"/>
  <ellipse transform="rotate(-59.496 407.508 88.287)" fill="#FFF" cx="407.511" cy="88.289" rx="11.487" ry="11.487"/>
  <ellipse transform="rotate(-59.496 395.333 109.33)" fill="#FFF" cx="395.336" cy="109.331" rx="11.487" ry="11.487"/>
  <ellipse transform="rotate(-59.496 407.508 130.102)" fill="#FFF" cx="407.511" cy="130.104" rx="11.487" ry="11.487"/>
  <ellipse transform="rotate(-59.496 395.333 151.144)" fill="#FFF" cx="395.336" cy="151.146" rx="11.487" ry="11.487"/>
  <ellipse transform="rotate(-59.496 407.508 171.917)" fill="#FFF" cx="407.511" cy="171.919" rx="11.487" ry="11.487"/>
  <ellipse transform="rotate(-59.496 395.334 192.96)" fill="#FFF" cx="395.336" cy="192.962" rx="11.487" ry="11.487"/>
  <ellipse transform="rotate(-59.496 407.508 213.732)" fill="#FFF" cx="407.511" cy="213.735" rx="11.487" ry="11.487"/>
  <ellipse transform="rotate(-59.496 395.334 234.774)" fill="#FFF" cx="395.336" cy="234.777" rx="11.487" ry="11.487"/>
  <path fill="none" d="M95.433 12.838h312.119v235.29H95.433z"/>
  <ellipse transform="rotate(-59.496 419.333 25.7)" fill="#FFF" cx="419.336" cy="25.7" rx="11.487" ry="11.487"/>
  <ellipse transform="rotate(-59.496 431.508 46.472)" fill="#FFF" cx="431.511" cy="46.474" rx="11.487" ry="11.487"/>
  <ellipse transform="rotate(-59.496 419.333 67.514)" fill="#FFF" cx="419.336" cy="67.516" rx="11.487" ry="11.487"/>
  <ellipse transform="rotate(-59.496 431.508 88.287)" fill="#FFF" cx="431.511" cy="88.289" rx="11.487" ry="11.487"/>
  <ellipse transform="rotate(-59.496 419.333 109.33)" fill="#FFF" cx="419.336" cy="109.331" rx="11.487" ry="11.487"/>
  <ellipse transform="rotate(-59.496 431.508 130.102)" fill="#FFF" cx="431.511" cy="130.104" rx="11.487" ry="11.487"/>
  <ellipse transform="rotate(-59.496 419.333 151.144)" fill="#FFF" cx="419.336" cy="151.146" rx="11.487" ry="11.487"/>
  <ellipse transform="rotate(-59.496 431.508 171.917)" fill="#FFF" cx="431.511" cy="171.919" rx="11.487" ry="11.487"/>
  <ellipse transform="rotate(-59.496 419.333 192.96)" fill="#FFF" cx="419.336" cy="192.962" rx="11.487" ry="11.487"/>
  <ellipse transform="rotate(-59.496 431.508 213.732)" fill="#FFF" cx="431.511" cy="213.735" rx="11.487" ry="11.487"/>
  <ellipse transform="rotate(-59.496 419.333 234.774)" fill="#FFF" cx="419.336" cy="234.777" rx="11.487" ry="11.487"/>
  <path fill="none" d="M119.433 12.838h312.119v235.29H119.433z"/>
  <ellipse transform="rotate(-59.496 443.333 25.7)" fill="#FFF" cx="443.336" cy="25.7" rx="11.487" ry="11.487"/>
  <ellipse transform="rotate(-59.496 443.333 67.514)" fill="#FFF" cx="443.336" cy="67.516" rx="11.487" ry="11.487"/>
  <ellipse transform="rotate(-59.496 443.333 109.33)" fill="#FFF" cx="443.336" cy="109.331" rx="11.487" ry="11.487"/>
  <ellipse transform="rotate(-59.496 443.333 151.144)" fill="#FFF" cx="443.336" cy="151.146" rx="11.487" ry="11.487"/>
  <ellipse transform="rotate(-59.496 443.333 192.96)" fill="#FFF" cx="443.336" cy="192.962" rx="11.487" ry="11.487"/>
  <ellipse transform="rotate(-59.496 443.333 234.774)" fill="#FFF" cx="443.336" cy="234.777" rx="11.487" ry="11.487"/>
  <path fill="none" d="M143.433 12.838h312.119v235.29H143.433z"/>
  <path opacity=".1" d="M282.809 127.755c-12.733-22.008-30.171-52.149-50.873-110.315-.449-1.263-1.645-2.105-2.984-2.105h-.016c-1.345.007-2.54.863-2.979 2.135-20.377 59.134-38.091 89.317-51.025 111.356-11.744 20.01-18.833 32.089-18.833 51.254 0 40.171 32.682 72.852 72.852 72.852s72.852-32.682 72.852-72.852c.002-19.491-7.148-31.85-18.994-52.325z"/>
  <path fill="#B30B0B" d="M280.434 121.42C267.7 99.412 250.263 69.271 229.561 11.105 229.112 9.842 227.916 9 226.577 9h-.016c-1.345.007-2.54.863-2.979 2.135-20.377 59.134-38.091 89.317-51.025 111.356-11.744 20.01-18.833 32.089-18.833 51.254 0 40.171 32.682 72.852 72.852 72.852s72.852-32.682 72.852-72.852c.001-19.491-7.149-31.85-18.994-52.325z"/>
  <circle fill="#860808" cx="226.557" cy="118.575" r="13.329"/>
  <circle fill="#860808" cx="226.577" cy="228.807" r="13.329"/>
  <circle fill="#860808" cx="281.693" cy="173.691" r="13.329"/>
  <circle fill="#860808" cx="171.461" cy="173.691" r="13.329"/>
  <ellipse transform="rotate(-59.496 254.552 126.202)" fill="#860808" cx="254.554" cy="126.204" rx="13.329" ry="13.329"/>
  <ellipse transform="rotate(-59.496 198.6 221.177)" fill="#FFF" cx="198.6" cy="221.179" rx="13.329" ry="13.329"/>
  <ellipse transform="rotate(-59.496 274.063 201.666)" fill="#860808" cx="274.065" cy="201.668" rx="13.329" ry="13.329"/>
  <ellipse transform="rotate(-59.496 179.09 145.713)" fill="#860808" cx="179.09" cy="145.714" rx="13.329" ry="13.329"/>
  <ellipse transform="rotate(-29.588 274.543 146.47)" fill="#860808" cx="274.503" cy="146.473" rx="13.329" ry="13.329"/>
  <ellipse transform="rotate(-29.588 178.685 200.92)" fill="#860808" cx="178.651" cy="200.91" rx="13.329" ry="13.329"/>
  <ellipse transform="rotate(-29.588 253.84 221.623)" fill="#860808" cx="253.796" cy="221.617" rx="13.329" ry="13.329"/>
  <ellipse transform="rotate(-29.588 199.39 125.765)" fill="#860808" cx="199.358" cy="125.765" rx="13.329" ry="13.329"/>
  <ellipse transform="rotate(-14.55 217.86 140.24)" fill="#860808" cx="217.902" cy="140.26" rx="8.353" ry="8.353"/>
  <ellipse transform="rotate(-14.55 235.203 207.092)" fill="#860808" cx="235.252" cy="207.123" rx="8.353" ry="8.353"/>
  <ellipse transform="rotate(-14.55 259.957 164.994)" fill="#860808" cx="260.009" cy="165.017" rx="8.353" ry="8.353"/>
  <ellipse transform="rotate(-14.55 193.105 182.338)" fill="#860808" cx="193.145" cy="182.366" rx="8.353" ry="8.353"/>
  <ellipse transform="rotate(-74.044 236.056 140.48)" fill="#FFF" cx="236.073" cy="140.484" rx="8.353" ry="8.353"/>
  <ellipse transform="rotate(-74.044 217.064 206.892)" fill="#860808" cx="217.081" cy="206.899" rx="8.353" ry="8.353"/>
  <ellipse transform="rotate(-74.044 259.766 183.183)" fill="#860808" cx="259.785" cy="183.187" rx="8.353" ry="8.353"/>
  <ellipse transform="rotate(-74.044 193.354 164.19)" fill="#860808" cx="193.369" cy="164.195" rx="8.353" ry="8.353"/>
  <ellipse transform="rotate(-44.14 251.363 149.642)" fill="#860808" cx="251.364" cy="149.638" rx="8.353" ry="8.353"/>
  <ellipse transform="rotate(-44.14 201.788 197.748)" fill="#860808" cx="201.79" cy="197.744" rx="8.353" ry="8.353"/>
  <ellipse transform="rotate(-44.14 250.63 198.483)" fill="#FFF" cx="250.63" cy="198.478" rx="8.353" ry="8.353"/>
  <ellipse transform="rotate(-44.14 202.523 148.908)" fill="#860808" cx="202.524" cy="148.905" rx="8.353" ry="8.353"/>
  <ellipse transform="translate(-.24 .356)" fill="#860808" cx="226.557" cy="153.204" rx="4.955" ry="4.955"/>
  <ellipse transform="translate(-.305 .356)" fill="#860808" cx="226.609" cy="194.179" rx="4.955" ry="4.955"/>
  <ellipse transform="translate(-.272 .388)" fill="#860808" cx="247.065" cy="173.659" rx="4.955" ry="4.955"/>
  <ellipse transform="translate(-.273 .324)" fill="#FFF" cx="206.09" cy="173.724" rx="4.955" ry="4.955"/>
  <ellipse transform="rotate(-59.59 236.935 156.026)" fill="#860808" cx="236.949" cy="156.023" rx="4.955" ry="4.955"/>
  <ellipse transform="rotate(-59.59 216.19 191.36)" fill="#860808" cx="216.205" cy="191.36" rx="4.955" ry="4.955"/>
  <ellipse transform="rotate(-59.59 244.23 184.066)" fill="#860808" cx="244.245" cy="184.063" rx="4.955" ry="4.955"/>
  <ellipse transform="rotate(-59.59 208.896 163.32)" fill="#860808" cx="208.909" cy="163.32" rx="4.955" ry="4.955"/>
  <ellipse transform="rotate(-29.68 244.39 163.54)" fill="#860808" cx="244.376" cy="163.546" rx="4.955" ry="4.955"/>
  <ellipse transform="rotate(-29.68 208.792 183.833)" fill="#860808" cx="208.778" cy="183.837" rx="4.955" ry="4.955"/>
  <ellipse transform="rotate(-29.68 236.738 191.485)" fill="#860808" cx="236.723" cy="191.49" rx="4.955" ry="4.955"/>
  <ellipse transform="rotate(-29.68 216.445 155.887)" fill="#860808" cx="216.432" cy="155.892" rx="4.955" ry="4.955"/>
  <ellipse transform="rotate(-16.773 223.14 162.38)" fill="#860808" cx="223.174" cy="162.4" rx="2.852" ry="2.852"/>
  <ellipse transform="rotate(-16.773 229.943 184.958)" fill="#860808" cx="229.98" cy="184.982" rx="2.852" ry="2.852"/>
  <ellipse transform="rotate(-16.773 237.83 170.267)" fill="#860808" cx="237.868" cy="170.288" rx="2.852" ry="2.852"/>
  <ellipse transform="rotate(-16.773 215.25 177.07)" fill="#860808" cx="215.286" cy="177.094" rx="2.852" ry="2.852"/>
  <ellipse transform="rotate(-76.267 229.38 162.238)" fill="#860808" cx="229.377" cy="162.236" rx="2.852" ry="2.852"/>
  <ellipse transform="rotate(-76.267 223.78 185.15)" fill="#860808" cx="223.778" cy="185.147" rx="2.852" ry="2.852"/>
  <ellipse transform="rotate(-76.267 238.036 176.494)" fill="#860808" cx="238.033" cy="176.491" rx="2.852" ry="2.852"/>
  <ellipse transform="rotate(-76.267 215.124 170.894)" fill="#860808" cx="215.121" cy="170.892" rx="2.852" ry="2.852"/>
  <ellipse transform="rotate(-46.365 234.7 165.146)" fill="#860808" cx="234.715" cy="165.156" rx="2.852" ry="2.852"/>
  <ellipse transform="rotate(-46.365 218.425 182.215)" fill="#860808" cx="218.439" cy="182.226" rx="2.852" ry="2.852"/>
  <ellipse transform="rotate(-46.365 235.096 181.817)" fill="#860808" cx="235.112" cy="181.829" rx="2.852" ry="2.852"/>
  <ellipse transform="rotate(-46.365 218.027 165.543)" fill="#860808" cx="218.042" cy="165.554" rx="2.852" ry="2.852"/>
  <ellipse transform="rotate(-31.362 223.063 167.966)" fill="#860808" cx="223.087" cy="167.964" rx="1.622" ry="1.622"/>
  <ellipse transform="rotate(-31.362 230.043 179.42)" fill="#860808" cx="230.067" cy="179.419" rx="1.622" ry="1.622"/>
  <ellipse transform="rotate(-31.362 232.28 170.203)" fill="#860808" cx="232.304" cy="170.201" rx="1.622" ry="1.622"/>
  <ellipse transform="rotate(-31.362 220.826 177.182)" fill="#860808" cx="220.85" cy="177.182" rx="1.622" ry="1.622"/>
  <ellipse transform="rotate(-.81 226.452 166.714)" fill="#860808" cx="226.477" cy="166.985" rx="1.622" ry="1.622"/>
  <ellipse transform="rotate(-.81 226.664 180.12)" fill="#860808" cx="226.677" cy="180.398" rx="1.622" ry="1.622"/>
  <ellipse transform="rotate(-.81 233.26 173.31)" fill="#860808" cx="233.283" cy="173.592" rx="1.622" ry="1.622"/>
  <ellipse transform="rotate(-.81 219.856 173.516)" fill="#860808" cx="219.871" cy="173.791" rx="1.622" ry="1.622"/>
  <ellipse transform="rotate(-60.948 229.845 167.825)" fill="#860808" cx="229.834" cy="167.828" rx="1.622" ry="1.622"/>
  <ellipse transform="rotate(-60.948 223.332 179.552)" fill="#860808" cx="223.32" cy="179.555" rx="1.622" ry="1.622"/>
  <ellipse transform="rotate(-60.948 232.452 176.945)" fill="#860808" cx="232.44" cy="176.948" rx="1.622" ry="1.622"/>
  <ellipse transform="rotate(-60.948 220.725 170.432)" fill="#860808" cx="220.714" cy="170.435" rx="1.622" ry="1.622"/>
  <ellipse transform="rotate(-14.55 235.206 96.88)" fill="#860808" cx="235.252" cy="96.891" rx="8.353" ry="8.353"/>
  <ellipse transform="rotate(-74.044 217.066 96.667)" fill="#860808" cx="217.081" cy="96.667" rx="8.353" ry="8.353"/>
  <ellipse transform="rotate(-44.14 198.873 102.144)" fill="#FFF" cx="198.874" cy="102.141" rx="8.353" ry="8.353"/>
  <ellipse transform="rotate(-44.14 253.546 102.88)" fill="#860808" cx="253.547" cy="102.875" rx="8.353" ry="8.353"/>
  <ellipse transform="translate(-.067 .356)" fill="#860808" cx="226.545" cy="42.972" rx="4.955" ry="4.955"/>
  <ellipse transform="translate(-.132 .356)" fill="#860808" cx="226.557" cy="83.947" rx="4.955" ry="4.955"/>
  <ellipse transform="rotate(-59.59 233.442 51.582)" fill="#860808" cx="233.452" cy="51.575" rx="4.955" ry="4.955"/>
  <ellipse transform="rotate(-59.59 216.195 81.133)" fill="#860808" cx="216.205" cy="81.128" rx="4.955" ry="4.955"/>
  <ellipse transform="rotate(-59.59 219.217 69.848)" fill="#860808" cx="219.227" cy="69.842" rx="4.955" ry="4.955"/>
  <ellipse transform="rotate(-59.59 213.723 60.666)" fill="#860808" cx="213.733" cy="60.66" rx="4.955" ry="4.955"/>
  <ellipse transform="rotate(-59.59 239.896 60.667)" fill="#860808" cx="239.906" cy="60.66" rx="4.955" ry="4.955"/>
  <ellipse transform="rotate(-59.59 233.66 69.848)" fill="#860808" cx="233.671" cy="69.842" rx="4.955" ry="4.955"/>
  <ellipse transform="rotate(-59.59 226.547 60.666)" fill="#860808" cx="226.557" cy="60.66" rx="4.955" ry="4.955"/>
  <ellipse transform="rotate(-59.59 244.234 73.838)" fill="#860808" cx="244.245" cy="73.831" rx="4.955" ry="4.955"/>
  <ellipse transform="rotate(-29.68 208.787 73.598)" fill="#860808" cx="208.778" cy="73.605" rx="4.955" ry="4.955"/>
  <ellipse transform="rotate(-59.59 247.15 84.948)" fill="#FFF" cx="247.162" cy="84.942" rx="4.955" ry="4.955"/>
  <ellipse transform="rotate(-29.68 205.87 84.71)" fill="#860808" cx="205.862" cy="84.716" rx="4.955" ry="4.955"/>
  <ellipse transform="rotate(-29.68 186.037 110.533)" fill="#860808" cx="186.027" cy="110.538" rx="4.955" ry="4.955"/>
  <ellipse transform="rotate(-29.68 267.898 110.53)" fill="#860808" cx="267.885" cy="110.538" rx="4.955" ry="4.955"/>
  <ellipse transform="rotate(-29.68 178.746 123.695)" fill="#860808" cx="178.735" cy="123.699" rx="4.955" ry="4.955"/>
  <ellipse transform="rotate(-29.68 275.19 123.69)" fill="#860808" cx="275.177" cy="123.699" rx="4.955" ry="4.955"/>
  <ellipse transform="rotate(-29.68 236.733 81.25)" fill="#860808" cx="236.723" cy="81.259" rx="4.955" ry="4.955"/>
  <ellipse transform="rotate(-29.68 219.937 51.567)" fill="#FFF" cx="219.929" cy="51.575" rx="4.955" ry="4.955"/>
  <ellipse transform="rotate(-16.773 219.896 36.456)" fill="#860808" cx="219.929" cy="36.459" rx="2.852" ry="2.852"/>
  <ellipse transform="rotate(-16.773 217.043 43.008)" fill="#860808" cx="217.076" cy="43.011" rx="2.852" ry="2.852"/>
  <ellipse transform="rotate(-16.773 211.598 52.305)" fill="#860808" cx="211.63" cy="52.309" rx="2.852" ry="2.852"/>
  <ellipse transform="rotate(-16.773 242.17 52.305)" fill="#860808" cx="242.206" cy="52.309" rx="2.852" ry="2.852"/>
  <ellipse transform="rotate(-16.773 236.27 42.963)" fill="#860808" cx="236.304" cy="42.966" rx="2.852" ry="2.852"/>
  <ellipse transform="rotate(-16.773 233.416 36.457)" fill="#860808" cx="233.452" cy="36.459" rx="2.852" ry="2.852"/>
  <ellipse transform="rotate(-16.773 230.783 28.437)" fill="#860808" cx="230.818" cy="28.438" rx="2.852" ry="2.852"/>
  <ellipse transform="rotate(-16.773 222.748 28.437)" fill="#860808" cx="222.781" cy="28.438" rx="2.852" ry="2.852"/>
  <ellipse transform="rotate(-16.773 226.643 33.938)" fill="#FFF" cx="226.677" cy="33.94" rx="2.852" ry="2.852"/>
  <ellipse transform="rotate(-16.773 226.523 74.908)" fill="#860808" cx="226.557" cy="74.916" rx="2.852" ry="2.852"/>
  <ellipse transform="rotate(-16.773 226.643 22.733)" fill="#860808" cx="226.677" cy="22.733" rx="2.852" ry="2.852"/>
  <ellipse transform="rotate(-76.267 247.165 64.983)" fill="#860808" cx="247.162" cy="64.982" rx="2.852" ry="2.852"/>
  <ellipse transform="rotate(-76.267 206.67 64.983)" fill="#860808" cx="206.666" cy="64.982" rx="2.852" ry="2.852"/>
  <ellipse transform="rotate(-46.365 200.95 77.59)" fill="#860808" cx="200.962" cy="77.595" rx="2.852" ry="2.852"/>
  <ellipse transform="rotate(-46.365 196.493 88.93)" fill="#860808" cx="196.506" cy="88.935" rx="2.852" ry="2.852"/>
  <ellipse transform="rotate(-46.365 257.804 88.93)" fill="#860808" cx="257.821" cy="88.935" rx="2.852" ry="2.852"/>
  <ellipse transform="rotate(-46.365 252.1 77.763)" fill="#860808" cx="252.117" cy="77.768" rx="2.852" ry="2.852"/>
  <ellipse transform="rotate(-.81 224.65 17.353)" fill="#860808" cx="224.779" cy="17.529" rx="1.622" ry="1.622"/>
  <ellipse transform="rotate(-.81 228.313 17.35)" fill="#860808" cx="228.445" cy="17.529" rx="1.622" ry="1.622"/>
  <ellipse transform="rotate(-.81 226.44 13.38)" fill="#860808" cx="226.577" cy="13.556" rx="1.622" ry="1.622"/>
  <ellipse transform="rotate(-.81 226.48 68.44)" fill="#FFF" cx="226.577" cy="68.65" rx="1.622" ry="1.622"/>
  <path fill="none" d="M0 0v23.976c.214-1.41.687-2.803 1.454-4.107 3.22-5.466 10.262-7.287 15.728-4.066 5.466 3.22 7.287 10.262 4.066 15.728-3.22 5.466-10.262 7.287-15.728 4.066C2.43 33.777.508 30.735 0 27.446v38.346c.214-1.41.687-2.803 1.454-4.107 3.22-5.466 10.262-7.287 15.728-4.066s7.287 10.262 4.066 15.728c-3.22 5.466-10.262 7.287-15.728 4.066C2.43 75.592.508 72.55 0 69.261v38.346c.214-1.41.687-2.803 1.454-4.107 3.22-5.466 10.262-7.287 15.728-4.066 5.466 3.22 7.287 10.262 4.066 15.728-3.22 5.466-10.262 7.287-15.728 4.066-3.09-1.821-5.013-4.863-5.521-8.151v38.346c.214-1.41.687-2.803 1.454-4.107 3.22-5.466 10.262-7.287 15.728-4.066s7.287 10.262 4.066 15.728c-3.22 5.466-10.262 7.287-15.728 4.066-3.09-1.821-5.013-4.863-5.521-8.151v38.346c.214-1.41.687-2.803 1.454-4.107 3.22-5.466 10.262-7.287 15.728-4.066 5.466 3.22 7.287 10.262 4.066 15.728-3.22 5.466-10.262 7.287-15.728 4.066-3.09-1.821-5.013-4.863-5.521-8.151v38.346c.214-1.41.687-2.803 1.454-4.107 3.22-5.466 10.262-7.287 15.728-4.066s7.287 10.262 4.066 15.728c-3.22 5.466-10.262 7.287-15.728 4.066-3.09-1.821-5.013-4.863-5.521-8.151V258h455V0H0z"/>
  <path fill="#FFF" d="M5.521 35.598c5.466 3.22 12.508 1.4 15.728-4.066 3.22-5.466 1.4-12.508-4.066-15.728-5.466-3.22-12.508-1.4-15.728 4.066C.687 21.173.214 22.567 0 23.976v3.47c.508 3.289 2.43 6.331 5.521 8.152zm0 41.815c5.466 3.22 12.508 1.4 15.728-4.066 3.22-5.466 1.4-12.508-4.066-15.728s-12.508-1.4-15.728 4.066C.687 62.988.214 64.382 0 65.792v3.47c.508 3.288 2.43 6.33 5.521 8.151zm0 41.815c5.466 3.22 12.508 1.4 15.728-4.066 3.22-5.466 1.4-12.508-4.066-15.728-5.466-3.22-12.508-1.4-15.728 4.066-.768 1.304-1.241 2.697-1.454 4.107v3.47c.507 3.288 2.429 6.331 5.52 8.151zm0 41.816c5.466 3.22 12.508 1.4 15.728-4.066 3.22-5.466 1.4-12.508-4.066-15.728s-12.508-1.4-15.728 4.066c-.768 1.304-1.241 2.697-1.454 4.107v3.47c.507 3.287 2.429 6.33 5.52 8.151zm0 41.815c5.466 3.22 12.508 1.4 15.728-4.066 3.22-5.466 1.4-12.508-4.066-15.728-5.466-3.22-12.508-1.4-15.728 4.066-.768 1.304-1.241 2.697-1.454 4.107v3.47c.507 3.288 2.429 6.33 5.52 8.151zm0 41.815c5.466 3.22 12.508 1.4 15.728-4.066 3.22-5.466 1.4-12.508-4.066-15.728s-12.508-1.4-15.728 4.066c-.768 1.304-1.241 2.697-1.454 4.107v3.47c.507 3.288 2.429 6.33 5.52 8.151z"/>
</svg>
