<svg xmlns="http://www.w3.org/2000/svg" viewBox="0 0 24 25">
  <path fill="#58585B" d="M0 11.574h24v2.894H0zM0 0h24v2.894H0zm0 5.787h24v2.894H0z"/>
  <path d="M1.361 17.354l2.041 6.154 2.041-6.154H6.71v7.543h-.982V21.96l.091-2.943-2.046 5.879h-.752L.985 19.037l.091 2.922v2.937H.093v-7.543h1.268zm10.295 4.055H8.89v2.673h3.223v.814H7.907v-7.543h4.151v.814H8.89v2.429h2.766v.813zm6.326 3.487h-.988l-3.131-5.812v5.812h-.988v-7.543h.988l3.142 5.838v-5.838h.978v7.543zm5.871-7.542v5.361c-.008.716-.223 1.275-.645 1.678-.423.405-1.012.607-1.768.607-.773 0-1.364-.198-1.772-.593s-.616-.959-.623-1.692v-5.361h.978v5.322c0 .507.112.885.336 1.136.224.251.584.375 1.082.375.501 0 .864-.124 1.088-.375.224-.251.336-.629.336-1.136v-5.322h.988z" fill="#696969"/>
</svg>
