<svg xmlns="http://www.w3.org/2000/svg" xmlns:xlink="http://www.w3.org/1999/xlink" viewBox="0 0 172.3 55.03"><defs><style>.cls-1{fill:none;}.cls-2{fill:#2c72b9;}.cls-3{clip-path:url(#clip-path);}.cls-4{fill:#231f20;}</style><clipPath id="clip-path" transform="translate(0 0)"><rect class="cls-1" width="172.3" height="55.03"/></clipPath></defs><title>Asset 2</title><g id="Layer_2" data-name="Layer 2"><g id="Nav"><path class="cls-2" d="M65.54,51.42h.26c.83,0,1.73-.16,1.73-1.2s-1-1.14-1.78-1.14h-.22v2.34Zm0,3.47h-.81V48.36h.94c2,0,2.63.69,2.63,1.89,0,1.38-1,1.91-2.29,1.91h-.47v2.74Z" transform="translate(0 0)"/><polygon class="cls-2" points="87.61 50.99 87.61 48.36 88.43 48.36 88.43 54.89 87.61 54.89 87.61 51.75 84.5 51.75 84.5 54.89 83.69 54.89 83.69 48.36 84.5 48.36 84.5 50.99 87.61 50.99 87.61 50.99"/><path class="cls-2" d="M106.78,49.86l-1.16,2.64h2.32l-1.16-2.64Zm-1.5,3.39-.74,1.64h-.88l3.12-6.81,3.12,6.81H109l-.75-1.64Z" transform="translate(0 0)"/><path class="cls-2" d="M126,51.45h.26c.83,0,1.73-.16,1.73-1.2s-1-1.17-1.78-1.17H126v2.37Zm3.25,3.44h-1l-1.92-2.77H126v2.77h-.81V48.36h1a3.45,3.45,0,0,1,1.72.3,1.81,1.81,0,0,1,.86,1.56A1.78,1.78,0,0,1,127.19,52l2.06,2.84Z" transform="translate(0 0)"/><polygon class="cls-2" points="145.74 50.58 145.73 50.58 144.96 54.89 144.12 54.89 145.46 48.08 147.7 53.23 149.95 48.08 151.28 54.89 150.44 54.89 149.68 50.58 149.66 50.58 147.7 55.03 145.74 50.58 145.74 50.58"/><g class="cls-3"><path class="cls-2" d="M169.18,49.86,168,52.51h2.32l-1.16-2.64Zm-1.5,3.39-.75,1.64h-.87l3.12-6.81,3.12,6.81h-.88l-.74-1.64Z" transform="translate(0 0)"/><path class="cls-2" d="M71.93,15.3A58.29,58.29,0,0,0,56.3,13.95a60.45,60.45,0,0,1,4.76-10.8A33,33,0,0,0,53,.28C51.24,2.58,48.47,7.09,45.9,15A96,96,0,0,0,27.4,19.54C30.5,8.33,34,2.55,36,0a54.07,54.07,0,0,0-8.74,2.19c-1.22.41-2.4.86-3.55,1.35C21.39,7.45,18.54,13.9,16.27,24c0,.18-.08.35-.12.53C5.82,30.1.7,35.9,0,36.73.63,36,4.78,31.52,15.57,27.3a142,142,0,0,0-3,24.61c0,.15,0,.3,0,.44a36.48,36.48,0,0,0,10.09,2.56c0-.14,0-.28,0-.44-.17-4.09-.08-14.53,3.53-30.11l.11-.45a135.3,135.3,0,0,1,18-3.21c-.27,1.06-.54,2.16-.8,3.31a141.88,141.88,0,0,0-3.71,29.21c0,.15,0,.3,0,.44,1.52-.38,3-.81,4.56-1.33a54.29,54.29,0,0,0,5.5-2.21c0-.15,0-.29,0-.44a129.8,129.8,0,0,1,3.55-25.32c.37-1.61.75-3.12,1.15-4.55,1.61-.09,3.27-.18,5-.24,5.48,0,9.84.22,13.33.56a19,19,0,0,0-.87-4.83Z" transform="translate(0 0)"/></g><polygon class="cls-4" points="73.98 33.67 73.98 27.45 75.9 27.45 75.9 42.86 73.98 42.86 73.98 35.46 66.64 35.46 66.64 42.86 64.72 42.86 64.72 27.45 66.64 27.45 66.64 33.67 73.98 33.67 73.98 33.67"/><path class="cls-4" d="M94.28,35.16a6.15,6.15,0,1,0-12.3,0,6.15,6.15,0,1,0,12.3,0Zm1.92,0a8.07,8.07,0,0,1-16.14,0,8.07,8.07,0,0,1,16.14,0Z" transform="translate(0 0)"/><path class="cls-4" d="M102.84,34.75h.61c2,0,4.09-.37,4.09-2.82s-2.28-2.76-4.19-2.76h-.51v5.58Zm7.66,8.11h-2.32l-4.54-6.52h-.8v6.52h-1.92V27.45h2.33a8.14,8.14,0,0,1,4.07.72,4.27,4.27,0,0,1,2,3.68,4.2,4.2,0,0,1-3.7,4.31l4.87,6.7Z" transform="translate(0 0)"/><polygon class="cls-4" points="117.97 42.86 116.05 42.86 116.05 27.45 117.97 27.45 117.97 42.86 117.97 42.86"/><polygon class="cls-4" points="134.59 41.11 134.59 42.86 123.66 42.86 131.46 29.21 124.76 29.21 124.76 27.45 134.59 27.45 126.78 41.11 134.59 41.11 134.59 41.11"/><path class="cls-4" d="M152.23,35.16a6.15,6.15,0,1,0-12.3,0,6.15,6.15,0,1,0,12.3,0Zm1.92,0a8.07,8.07,0,0,1-16.15,0,8.07,8.07,0,0,1,16.15,0Z" transform="translate(0 0)"/><polygon class="cls-4" points="158.69 26.71 170.26 38.83 170.26 27.45 172.18 27.45 172.18 43.5 160.61 31.38 160.61 42.86 158.69 42.86 158.69 26.71 158.69 26.71"/></g></g></svg>