<?xml version="1.0" standalone="no"?>
<!DOCTYPE svg PUBLIC "-//W3C//DTD SVG 1.1//EN" "http://www.w3.org/Graphics/SVG/1.1/DTD/svg11.dtd" >
<svg xmlns="http://www.w3.org/2000/svg">
<metadata>
Created by FontPrep 20130207 at Tue Feb 24 12:29:34 2015
 By Matt Kircher
1993 Martin Majoor
</metadata>
<defs>
<font id="e939da63d2118d945b4f42d665eee236" horiz-adv-x='1024' >
  <font-face 
    font-family="ScalaSans-BoldItalic"
    font-weight="5"
    font-style="italic"
    font-stretch="normal"
    units-per-em="2048"
    panose-1="0 0 0 0 0 0 0 0 0 0"
    ascent="1638"
    descent="-410"
    x-height="952"
    cap-height="1352"
    bbox="-420 -547 2073 1835"
    underline-thickness="167"
    underline-position="0"
    unicode-range="U+0020-FB04"
  />
<missing-glyph horiz-adv-x="1523" 
d="M188 94h1147v1336h-1147v-1336zM94 0v1524h1336v-1524h-1336z" />
    <glyph glyph-name=".notdef" horiz-adv-x="1523" 
d="M188 94h1147v1336h-1147v-1336zM94 0v1524h1336v-1524h-1336z" />
    <glyph glyph-name=".null" horiz-adv-x="0" 
 />
    <glyph glyph-name="nonmarkingreturn" horiz-adv-x="682" 
 />
    <glyph glyph-name="space" unicode=" " horiz-adv-x="512" 
 />
    <glyph glyph-name="exclam" unicode="!" horiz-adv-x="540" 
d="M127 399l154 1055l266 53l-189 -1108h-231zM37 122q0 69 51.5 118t119.5 49t111 -47t43 -116t-53 -118t-121 -49t-109.5 47t-41.5 116z" />
    <glyph glyph-name="quotedbl" unicode="&#x22;" horiz-adv-x="843" 
d="M578 887l73 465h170l-73 -465h-170zM248 887l74 465h170l-72 -465h-172z" />
    <glyph glyph-name="numbersign" unicode="#" 
d="M446 588h195l39 192h-199zM-43 389l37 199h231l39 192h-233l45 207h233l70 361h219l-70 -361h197l68 361h223l-68 -361h221l-45 -207h-223l-35 -192h226l-37 -199h-228l-73 -389h-222l72 389h-198l-74 -389h-221l75 389h-229z" />
    <glyph glyph-name="dollar" unicode="$" horiz-adv-x="1112" 
d="M844 350q0 65 -25.5 99t-97.5 75l-49 -331q92 16 132 54t40 103zM530 1020q0 -74 115 -137l47 288q-78 0 -120 -38.5t-42 -112.5zM268 997q0 160 127 270.5t330 110.5l18 115h134l-19 -115q55 -6 75.5 -8t71 -14.5t80 -23.5t91.5 -48l-117 -188q-88 43 -130 56t-104 19
l-61 -378l74 -52q143 -94 176 -120.5t63.5 -90.5t30.5 -128t-30.5 -136.5t-91 -137.5t-136.5 -99.5t-213 -55.5l-19 -114h-135l19 114q-138 17 -216.5 49.5t-158.5 71.5l111 215q92 -63 146 -84.5t153 -31.5l65 421q-241 145 -287.5 228.5t-46.5 154.5z" />
    <glyph glyph-name="percent" unicode="%" horiz-adv-x="1740" 
d="M1112 333q0 -85 58.5 -143.5t142.5 -58.5t142 58.5t58 143.5t-57 142t-143 57t-143.5 -57t-57.5 -142zM954 332q0 150 105 254t253 104t253.5 -105.5t105.5 -252.5t-105.5 -253t-253.5 -106t-253 104.5t-105 254.5zM227 1014q0 -84 58.5 -142.5t143.5 -58.5t142.5 57.5
t57.5 142.5t-58.5 143t-142.5 58t-142.5 -58t-58.5 -142zM184 -90l1159 1493h193l-1157 -1493h-195zM70 1014q0 147 104 253.5t254 106.5t254 -105t104 -255t-104 -254.5t-252 -104.5t-254 106t-106 253z" />
    <glyph glyph-name="ampersand" unicode="&#x26;" horiz-adv-x="1220" 
d="M309 356q0 -195 94 -194q77 0 118.5 24.5t86.5 51.5l-202 288q57 18 83.5 33.5t83 69t56.5 145.5q0 66 -58 66q-63 0 -127.5 -84t-99.5 -193t-35 -207zM66 324q0 281 150.5 468t373.5 187q127 0 195.5 -47t68.5 -138t-39 -150.5t-64.5 -80t-86.5 -51.5l112 -156
q51 51 126.5 144t111.5 321l41 258h-193l23 156h549l-25 -156h-166l-43 -282q-16 -96 -58 -206t-83 -169.5t-72 -96t-108 -114.5l202 -297l56 -72q35 -45 55 -61.5t43 -16.5t47.5 17.5t67.5 62.5l110 -149l-82 -70q-111 -86 -184 -86q-100 0 -217 172l-264 385
q-104 -63 -188.5 -88.5t-184.5 -25.5t-154.5 22.5t-87 106.5t-32.5 213z" />
    <glyph glyph-name="quotesingle" unicode="'" horiz-adv-x="514" 
d="M248 887l74 465h170l-72 -465h-172z" />
    <glyph glyph-name="parenleft" unicode="(" horiz-adv-x="632" 
d="M397 84q0 -315 86 -598h-219l-22 59q-31 90 -55.5 258.5t-24.5 305.5q0 315 103.5 635.5t295.5 609.5h217q-381 -643 -381 -1270z" />
    <glyph glyph-name="parenright" unicode=")" horiz-adv-x="632" 
d="M268 756q0 329 -86 596h219l23 -58q31 -88 55.5 -259t24.5 -306q0 -315 -102.5 -634.5t-297.5 -608.5h-217q381 643 381 1270z" />
    <glyph glyph-name="asterisk" unicode="*" horiz-adv-x="1024" 
d="M631 1081l282 111l68 -211l-293 -76zM528 762l150 108l192 -233l-180 -129zM403 1403h222l-19 -303h-184zM158 637l190 233l150 -108l-162 -256zM43 983l68 209l282 -111l-57 -176z" />
    <glyph glyph-name="plus" unicode="+" 
d="M78 401v168h401v402h168v-402h402v-168h-402v-401h-168v401h-401z" />
    <glyph glyph-name="comma" unicode="," horiz-adv-x="514" 
d="M251 287q126 0 126 -127q0 -90 -67.5 -226.5t-180.5 -271.5h-147q115 170 145 305l-70 275q61 29 96 37t98 8z" />
    <glyph glyph-name="hyphen" unicode="-" horiz-adv-x="565" 
d="M57 356l39 228h428l-37 -228h-430z" />
    <glyph glyph-name="period" unicode="." horiz-adv-x="514" 
d="M51 136q0 69 53.5 118t119.5 49t109.5 -47t43.5 -116t-51.5 -118t-119.5 -49t-111.5 47t-43.5 116z" />
    <glyph glyph-name="slash" unicode="/" horiz-adv-x="837" 
d="M-43 -502l809 1854h246l-809 -1854h-246z" />
    <glyph glyph-name="zero" unicode="0" horiz-adv-x="1081" 
d="M362 445q0 -128 57 -207.5t157 -79.5t186 109.5t86 238.5t-55.5 204.5t-139.5 75.5q-115 0 -203 -106.5t-88 -234.5zM121 401q0 47 15.5 171t164 261.5t359.5 137.5t323.5 -110.5t112.5 -313.5q0 -252 -155 -413t-400 -161q-199 0 -309.5 112.5t-110.5 315.5z" />
    <glyph glyph-name="one" unicode="1" horiz-adv-x="747" 
d="M94 811l492 180h116l-157 -991h-244l113 721l-260 -103z" />
    <glyph glyph-name="two" unicode="2" horiz-adv-x="878" 
d="M504 791q-82 0 -268 -121l-113 180l129 65q162 78 334 78q293 0 293 -262q0 -115 -51.5 -205t-168.5 -178l-219 -168h387l-28 -180h-772l18 117l291 217q285 215 285 364q0 43 -31 68t-86 25z" />
    <glyph glyph-name="three" unicode="3" horiz-adv-x="839" 
d="M205 -236q125 0 215 98.5t90 235.5q0 145 -180 146h-115l37 155q123 37 206 119t83 166q0 43 -31 76t-72 33q-88 0 -241 -84l-78 153q129 78 228 100.5t179 22.5q129 0 202 -68.5t73 -189.5q0 -168 -127 -272q-39 -33 -76 -51.5t-109 -43.5l25 2q131 0 192.5 -63
t61.5 -199q0 -219 -166 -374.5t-397 -155.5q-140 0 -287 70l88 180l55 -29q68 -27 144 -27z" />
    <glyph glyph-name="four" unicode="4" horiz-adv-x="952" 
d="M279 180h256l49 309q13 74 41 168l-31 -55l-57 -88zM-20 0l14 90l696 901h205l-127 -811h127l-29 -180h-127l-67 -424h-232l66 424h-526z" />
    <glyph glyph-name="five" unicode="5" horiz-adv-x="823" 
d="M535 71q0 120 -72.5 166t-179.5 46h-129l108 696h619l-33 -207h-373l-49 -309q76 -8 117 -16.5t144.5 -57.5t103.5 -273t-163 -385t-386 -161q-122 0 -271 57l70 193q135 -55 217 -56q115 0 196 93.5t81 213.5z" />
    <glyph glyph-name="six" unicode="6" 
d="M856 1174q-174 0 -300 -208t-126 -497q0 -141 47 -227t133 -86t156 96t70 229q0 162 -205 162h-51l24 156q113 23 178 22q137 0 225.5 -90t88.5 -233q0 -219 -147.5 -371t-357.5 -152t-316.5 124t-106.5 362q0 369 194.5 641t458.5 272q153 0 314 -74l-82 -192
q-128 66 -197 66z" />
    <glyph glyph-name="seven" unicode="7" horiz-adv-x="860" 
d="M12 -309q140 167 226 292t180 326l213 451h-527l35 219h797l-23 -141l-303 -619q-47 -94 -125.5 -228t-133 -212t-167.5 -217z" />
    <glyph glyph-name="eight" unicode="8" horiz-adv-x="1038" 
d="M526 1059q0 -59 37 -107l76 -90l117 78q70 47 69 131q0 55 -35.5 90t-101.5 35t-114 -39t-48 -98zM350 308q0 -66 53.5 -110t144.5 -44t162.5 63.5t71.5 147.5t-57 137l-125 116l-115 -77q-57 -39 -96 -103t-39 -130zM489 -23q-393 0 -393 302q0 90 55.5 186t141.5 153
l172 115l-88 90q-107 111 -107 245t129 220t313 86t276.5 -67.5t92.5 -185.5t-58 -182.5t-132 -115.5l-129 -90l135 -115q145 -124 145 -282t-152.5 -258.5t-400.5 -100.5z" />
    <glyph glyph-name="nine" unicode="9" 
d="M381 -213q170 0 297 210t127 497q0 141 -47 226t-133 85t-156 -96.5t-70 -206.5t46.5 -145t160.5 -35h51l-24 -154q-94 -29 -164 -29q-150 0 -240 88t-90 236q0 219 147.5 370.5t357.5 151.5t316.5 -123t106.5 -362q0 -369 -194.5 -641.5t-458.5 -272.5
q-108 0 -178.5 22.5t-133.5 57.5l82 193q111 -72 197 -72z" />
    <glyph glyph-name="colon" unicode=":" horiz-adv-x="514" 
d="M160 813q0 70 52 118t120 48t110.5 -47t42.5 -115t-52.5 -117t-120.5 -49t-110 46t-42 116zM51 136q0 69 53.5 118t119.5 49t109.5 -47t43.5 -116t-51.5 -118t-119.5 -49t-111.5 47t-43.5 116z" />
    <glyph glyph-name="semicolon" unicode=";" horiz-adv-x="514" 
d="M158 814q0 69 52 117t120 48t110.5 -47t42.5 -115t-53.5 -117t-119.5 -49t-109 47t-43 116zM251 287q126 0 126 -127q0 -90 -67.5 -226.5t-180.5 -271.5h-147q115 170 145 305l-70 275q61 29 96 37t98 8z" />
    <glyph glyph-name="less" unicode="&#x3c;" 
d="M80 430v111l967 430v-164l-728 -322l728 -321v-164z" />
    <glyph glyph-name="equal" unicode="=" 
d="M51 557v168h1024v-168h-1024zM51 223v168h1024v-168h-1024z" />
    <glyph glyph-name="greater" unicode="&#x3e;" 
d="M80 0v164l727 321l-727 322v164l967 -430v-111z" />
    <glyph glyph-name="question" unicode="?" horiz-adv-x="980" 
d="M203 137q0 68 53.5 117t119.5 49t109 -47t43 -115t-51 -117t-119 -49t-111.5 47t-43.5 115zM707 1161q0 63 -38 97t-108 34q-109 0 -211 -96l72 -117l-182 -90q-72 61 -98.5 101.5t-26.5 85.5q0 119 157.5 215t337.5 96q352 0 351 -307q0 -186 -121 -312l-95 -84
q-88 -72 -104 -83t-117 -78q38 -52 109 -129l-172 -115q-111 106 -152 175t-69 134q180 100 262 162.5t143.5 123t61.5 187.5z" />
    <glyph glyph-name="at" unicode="@" horiz-adv-x="2048" 
d="M815 362q0 -121 51 -120q20 0 79 42t124 166.5t80 208.5l22 109q-53 18 -120 18q-92 0 -164 -128t-72 -296zM201 481q0 340 247.5 590t586.5 250t583 -231.5t244 -548.5q0 -246 -143.5 -403.5t-364.5 -157.5q-240 0 -240 231v18l10 50q-49 -88 -88 -130.5t-114.5 -89.5
t-148.5 -47t-128 92.5t-55 231.5q0 272 147.5 458.5t360.5 186.5q102 0 313 -61l-113 -615q-10 -45 -10 -78q0 -88 101 -88q123 0 204.5 110.5t81.5 274.5q0 250 -184 428t-448 178t-457 -192.5t-193 -458.5t189.5 -457.5t453.5 -191.5h66q31 6 79.5 14t141.5 54l68 -177
l-70 -28q-141 -55 -297 -55q-328 0 -575.5 251.5t-247.5 591.5z" />
    <glyph glyph-name="A" unicode="A" horiz-adv-x="1218" 
d="M479 553h312l-80 489zM-59 0l700 1352h236l274 -1352h-270l-54 334h-454l-162 -334h-270z" />
    <glyph glyph-name="B" unicode="B" horiz-adv-x="1210" 
d="M659 799q113 0 182.5 59.5t69.5 157.5q0 131 -184 131h-166l-55 -348h153zM578 207q133 0 206.5 57.5t73.5 150.5t-53 129t-168 36h-164l-59 -373h164zM811 1352q145 0 206.5 -16.5t112.5 -73.5q78 -78 78 -214t-102 -237q-102 -102 -252 -102q133 0 210 -79t77 -202
t-56.5 -226.5t-158 -152.5t-267.5 -49h-555l215 1352h492z" />
    <glyph glyph-name="C" unicode="C" horiz-adv-x="1239" 
d="M84 571q0 182 82 346t202.5 266.5t250 147.5t289.5 45t245.5 -35.5t173.5 -99.5l-133 -188q-39 29 -98.5 64.5t-194.5 35.5q-223 0 -375.5 -163t-152.5 -400q0 -178 110.5 -280.5t298.5 -102.5q112 0 177 22.5t133 53.5l55 -209q-213 -101 -436 -101q-295 0 -461 157.5
t-166 440.5z" />
    <glyph glyph-name="D" unicode="D" horiz-adv-x="1456" 
d="M621 227q248 0 401.5 151.5t153.5 397.5q0 188 -94.5 268t-319.5 80h-203l-143 -897h205zM823 1352q186 0 308 -47.5t224.5 -179t102.5 -333.5t-100 -382q-225 -410 -750 -410h-504l215 1352h504z" />
    <glyph glyph-name="E" unicode="E" horiz-adv-x="1103" 
d="M121 0l213 1352h825l-35 -219h-567l-53 -334h463l-33 -219h-465l-57 -361h585l-26 -219h-850z" />
    <glyph glyph-name="F" unicode="F" horiz-adv-x="1069" 
d="M121 0l213 1352h837l-34 -219h-580l-55 -349h477l-35 -217h-477l-90 -567h-256z" />
    <glyph glyph-name="G" unicode="G" horiz-adv-x="1449" 
d="M98 573q0 217 76 342t123 178.5t191 167t470 113.5q158 0 256.5 -25.5t225.5 -82.5l-94 -207l-107 45q-135 53 -266 53q-250 0 -424 -161.5t-174 -393.5q0 -178 126 -291.5t320 -113.5q80 0 193 36l57 371h264l-88 -555l-145 -35q-194 -43 -338 -43q-305 0 -485.5 164
t-180.5 438z" />
    <glyph glyph-name="H" unicode="H" horiz-adv-x="1579" 
d="M121 0l213 1352h258l-86 -541h696l84 541h258l-213 -1352h-258l92 580h-696l-92 -580h-256z" />
    <glyph glyph-name="I" unicode="I" horiz-adv-x="614" 
d="M115 0l213 1352h258l-215 -1352h-256z" />
    <glyph glyph-name="J" unicode="J" horiz-adv-x="614" 
d="M-131 -250q157 0 202.5 131t71.5 309l185 1162h256l-209 -1325q-29 -182 -67 -267.5t-140 -167t-311 -81.5q-63 0 -111.5 10t-165.5 49l88 235l51 -18q94 -37 150 -37z" />
    <glyph glyph-name="K" unicode="K" horiz-adv-x="1169" 
d="M104 0l215 1352h263l-99 -617l514 617h310l-576 -666l375 -686h-285l-352 647l-102 -647h-263z" />
    <glyph glyph-name="L" unicode="L" horiz-adv-x="1013" 
d="M121 0l213 1352h258l-180 -1133h549l-29 -219h-811z" />
    <glyph glyph-name="M" unicode="M" horiz-adv-x="1798" 
d="M133 0l213 1352h309l209 -965q10 -38 10 -78l-2 -26q22 69 43 104l527 965h309l-215 -1352h-244l193 1081l-45 -118l-74 -164l-434 -799h-232l-143 694l-16 119q-21 142 -21 244l-155 -1057h-232z" />
    <glyph glyph-name="N" unicode="N" horiz-adv-x="1554" 
d="M131 0l213 1352h295l408 -850q42 -63 65 -232l25 297l123 785h247l-213 -1352h-276l-395 784q-48 96 -64 165t-27 132l-26 -243l-125 -838h-250z" />
    <glyph glyph-name="O" unicode="O" horiz-adv-x="1562" 
d="M375 567q0 -166 100 -272.5t258 -106.5q223 0 382 175.5t159 420.5q0 164 -102.5 270.5t-262.5 106.5q-219 0 -376.5 -174t-157.5 -420zM96 565v46q0 19 28 199.5t253 373t531 192.5t475 -158.5t169 -431.5q0 -340 -240.5 -576.5t-588.5 -236.5q-283 0 -455 162t-172 430
z" />
    <glyph glyph-name="P" unicode="P" horiz-adv-x="1138" 
d="M938 961q0 172 -201 172h-178l-72 -451l31 -2l90 -2q100 0 148.5 12t115 70.5t66.5 200.5zM629 455q-83 0 -174 10l-74 -465h-262l213 1352h467q197 0 303 -96.5t106 -272.5q0 -246 -155.5 -387t-423.5 -141z" />
    <glyph glyph-name="Q" unicode="Q" horiz-adv-x="1562" 
d="M375 569q0 -168 100 -274.5t258 -106.5q221 0 381 176.5t160 419.5q0 166 -101.5 271.5t-263.5 105.5q-219 0 -376.5 -174t-157.5 -418zM96 559q0 350 237.5 583.5t592.5 233.5q289 0 457.5 -158.5t168.5 -431.5q0 -201 -98 -385q-72 -131 -164 -215t-157.5 -118.5
t-182.5 -71.5l-280 -174l94 -27q233 -57 506 -57h30q72 0 201 14l-59 -215q-145 -22 -284 -22q-140 0 -308 26.5t-284.5 65.5t-286.5 129l-37 20l364 232q-57 0 -87 6t-130 43t-196.5 188.5t-96.5 333.5z" />
    <glyph glyph-name="R" unicode="R" horiz-adv-x="1196" 
d="M666 760q123 0 192.5 59.5t69.5 167.5q0 66 -35 104t-67.5 47t-100.5 9h-168l-57 -387h166zM784 1352q217 0 319.5 -82t102.5 -264t-114 -310q-47 -49 -93.5 -72.5t-144.5 -48.5l256 -575h-291l-223 541h-131l-84 -541h-262l213 1352h452z" />
    <glyph glyph-name="S" unicode="S" horiz-adv-x="1093" 
d="M654.5 255q70.5 56 70.5 126t-88 129l-188 121q-143 88 -205 163.5t-62 166.5q0 178 146.5 295.5t365.5 117.5q164 0 245 -18.5t179 -50.5l-80 -242q-188 86 -329 86q-90 0 -158 -49t-68 -119t97 -129l200 -129q123 -80 175.5 -153.5t52.5 -166.5q0 -197 -139.5 -313.5
t-354.5 -116.5t-485 97l96 237q222 -108 371 -108q88 0 158.5 56z" />
    <glyph glyph-name="T" unicode="T" horiz-adv-x="1103" 
d="M133 1133l33 219h1069l-35 -219h-405l-179 -1133h-258l181 1133h-406z" />
    <glyph glyph-name="U" unicode="U" horiz-adv-x="1433" 
d="M152 350q0 94 14 178l131 824h262l-133 -838l-8 -84q0 -215 260 -215q152 0 246 78t116 223l134 836h262l-131 -824q-31 -193 -85.5 -290t-191.5 -181t-375 -84t-369.5 99.5t-131.5 277.5z" />
    <glyph glyph-name="V" unicode="V" horiz-adv-x="1193" 
d="M604 373q0 36 21 67l438 912h280l-700 -1352h-213l-274 1352h280l164 -914l2 -18l2 -23v-24z" />
    <glyph glyph-name="W" unicode="W" horiz-adv-x="1769" 
d="M156 1352h268l184 -1012l242 455l-127 557h227l60 -267l131 267h229l-297 -549l117 -451l479 1000h254l-694 -1352h-201l-110 549l-283 -549h-186z" />
    <glyph glyph-name="X" unicode="X" horiz-adv-x="1171" 
d="M-68 0l553 690l-301 662h289l184 -449l340 449h310l-521 -652l308 -700h-287l-207 475l-371 -475h-297z" />
    <glyph glyph-name="Y" unicode="Y" 
d="M158 1352h276l187 -525l364 525h295l-578 -779l-90 -573h-262l92 590z" />
    <glyph glyph-name="Z" unicode="Z" horiz-adv-x="1218" 
d="M6 0l27 174l889 959h-723l34 219h1074l-27 -174l-877 -959h723l-34 -219h-1086z" />
    <glyph glyph-name="bracketleft" unicode="[" horiz-adv-x="512" 
d="M-12 -502l295 1854h411l-28 -181h-168l-236 -1493h166l-27 -180h-413z" />
    <glyph glyph-name="backslash" unicode="\" horiz-adv-x="837" 
d="M252 1352h244l233 -1854h-244z" />
    <glyph glyph-name="bracketright" unicode="]" horiz-adv-x="512" 
d="M-166 -502l29 180h168l235 1493h-166l29 181h412l-295 -1854h-412z" />
    <glyph glyph-name="asciicircum" unicode="^" horiz-adv-x="1069" 
d="M49 0l426 967h115l426 -967h-168l-322 721l-323 -721h-154z" />
    <glyph glyph-name="underscore" unicode="_" horiz-adv-x="1024" 
d="M-84 -168l27 168h1024l-27 -168h-1024z" />
    <glyph glyph-name="grave" unicode="`" horiz-adv-x="784" 
d="M475 1395h203l139 -336h-164zM408 1655h229l156 -242h-191z" />
    <glyph glyph-name="a" unicode="a" horiz-adv-x="1058" 
d="M338 342q0 -63 16 -100t46 -37t73 34.5t130 146.5t112 276l20 133q-49 10 -82 10q-127 0 -221 -138.5t-94 -324.5zM78 274q0 199 80 369t179 235.5t164 82t159 16.5t141 -6t200 -31l-145 -940h-219l43 270q-57 -80 -99 -126t-125.5 -108.5t-177.5 -62.5t-147 84t-53 217z
" />
    <glyph glyph-name="b" unicode="b" horiz-adv-x="1052" 
d="M739 662q0 53 -12 73.5t-45 20.5q-72 0 -162 -114t-114 -179t-29 -103l-23 -96l-16 -104q72 -18 98 -19q123 0 213 156t90 365zM793 981q201 0 200 -311q0 -152 -50 -294t-144 -241.5t-169 -130.5t-167 -31t-223.5 13.5t-169.5 13.5l233 1481l248 26l-84 -540l-16 -76
q-12 -70 -22.5 -108t-20.5 -83q49 82 82.5 121t113.5 99.5t189 60.5z" />
    <glyph glyph-name="c" unicode="c" horiz-adv-x="856" 
d="M326 356q0 -76 24.5 -118.5t65.5 -42.5q72 0 297 161l94 -145l-64 -45q-80 -59 -114.5 -81t-122.5 -61.5t-205 -39.5q-223 -1 -223 321q0 289 152.5 482.5t379.5 193.5q100 0 159.5 -20.5t115.5 -45.5l-101 -188q-126 68 -188 68q-115 0 -192.5 -126t-77.5 -313z" />
    <glyph glyph-name="d" unicode="d" horiz-adv-x="1081" 
d="M330 290q0 -87 57 -87t145.5 86t142.5 179t64 167l19 119q-56 51 -116 51t-117.5 -44t-98.5 -113.5t-68.5 -170t-27.5 -187.5zM78 252q0 299 155.5 516t370.5 217q74 0 182 -45l91 541l247 26l-237 -1507h-232l43 283l-49 -80q-45 -66 -152 -152t-212 -86t-156 76
t-51 211z" />
    <glyph glyph-name="e" unicode="e" horiz-adv-x="909" 
d="M649 727q0 88 -82 88q-72 0 -122 -59.5t-75.5 -114t-54.5 -152.5l322 181q12 33 12 57zM78 311q0 297 149.5 483.5t386.5 186.5q270 0 271 -199q0 -152 -170 -241l-414 -219q10 -61 24.5 -84t42 -37.5t64.5 -14.5t89 20.5t94 48.5t141 101l94 -145q-170 -132 -268.5 -185
t-231.5 -53q-272 0 -272 338z" />
    <glyph glyph-name="f" unicode="f" horiz-adv-x="575" 
d="M726 1313q-91 0 -138 -59.5t-70 -196.5l-16 -105h190l-28 -184h-193l-127 -819q-25 -171 -91.5 -267t-153.5 -139t-188 -43t-158.5 22.5t-110.5 53.5l94 193q70 -37 104.5 -48.5t79.5 -11.5q70 0 123 68.5t72 183.5l123 807h-193l27 172l198 12l29 181q29 176 140.5 274
t283.5 98h37q63 0 115.5 -14t156.5 -53l-69 -189q-146 64 -237 64z" />
    <glyph glyph-name="g" unicode="g" horiz-adv-x="995" 
d="M631 654q1 170 -105 169q-52 0 -106.5 -79t-54.5 -161q0 -165 107 -165q54 0 106.5 78t52.5 158zM260 -236q0 -30 45 -52.5t131 -22.5t159 56.5t73 115.5q0 76 -140 76h-155q-45 -43 -79 -93t-34 -80zM307 152q0 -12 11.5 -21.5t24.5 -11.5t73 -2h243q119 0 186.5 -59.5
t67.5 -168.5q0 -154 -161.5 -269.5t-376.5 -115.5q-156 0 -265.5 66t-109.5 158q0 129 199 247q-129 12 -129 99q0 41 35.5 91t134.5 144q-37 31 -51.5 46.5t-45 58.5t-30.5 141q0 184 122.5 307t307.5 123q77 0 172 -31h180l143 13l-41 -181h-141q29 -59 29 -122
q0 -174 -119 -295t-289 -121q-43 0 -104 10q-66 -75 -66 -106z" />
    <glyph glyph-name="h" unicode="h" horiz-adv-x="1087" 
d="M821 979q96 0 141.5 -47t45.5 -152l-2 -53l-113 -727h-246l94 608l9 80q0 63 -43 64q-74 0 -161 -95.5t-126 -167.5q-35 -82 -46.5 -127t-23.5 -124l-37 -238h-243l233 1481l248 26l-90 -555l-17 -84q-14 -92 -36 -168q188 279 413 279z" />
    <glyph glyph-name="i" unicode="i" horiz-adv-x="526" 
d="M416 1444q49 0 78.5 -44t29.5 -106q-8 -75 -53 -114t-95 -39t-81 43t-31 102l4 25q12 59 55.5 96t92.5 37zM86 0l145 940l248 27l-149 -967h-244z" />
    <glyph glyph-name="j" unicode="j" horiz-adv-x="530" 
d="M416 1444q49 0 79.5 -43t30.5 -107l-4 -20q-10 -59 -53 -96t-92 -37t-80 43t-31 102l2 25q12 59 55.5 96t92.5 37zM-110 -485q-74 0 -122.5 14t-150.5 59l84 205q113 -65 189 -65q153 1 206 362l131 850l248 27l-145 -955q-35 -205 -123 -329q-57 -74 -150 -121t-167 -47
z" />
    <glyph glyph-name="k" unicode="k" horiz-adv-x="954" 
d="M70 0l233 1481l248 26l-139 -878l61 59l88 80l170 184h283l-82 -96l-197 -197q-57 -54 -147 -131q85 -191 172.5 -325.5t132.5 -202.5h-283q-105 172 -136.5 249t-70.5 175l-26 -14l-64 -410h-243z" />
    <glyph glyph-name="l" unicode="l" horiz-adv-x="505" 
d="M70 0l233 1481l248 26l-238 -1507h-243z" />
    <glyph glyph-name="m" unicode="m" horiz-adv-x="1683" 
d="M838 979q188 0 188 -178l-4 -74q188 252 395 252q98 0 143.5 -47t45.5 -152l-4 -53l-113 -727h-244l92 608l9 80q0 63 -43 64q-74 0 -165 -100.5t-130 -186.5t-62 -227l-37 -238h-243l94 608l6 80q0 63 -41 64q-76 0 -164 -97.5t-128.5 -174.5t-65.5 -242l-37 -238h-244
l145 940l248 27l-53 -267q186 279 412 279z" />
    <glyph glyph-name="n" unicode="n" horiz-adv-x="1105" 
d="M838 979q98 0 143 -47t45 -152l-4 -53l-113 -727h-243l94 608l6 80q0 63 -41 64q-76 0 -164 -97.5t-128.5 -174.5t-65.5 -242l-37 -238h-244l145 940l248 27l-53 -267q186 279 412 279z" />
    <glyph glyph-name="o" unicode="o" horiz-adv-x="1021" 
d="M330 386q0 -120 32.5 -177t86.5 -57q20 0 43.5 9t72.5 51t95.5 147t46.5 211t-31 163.5t-81 57.5t-102.5 -42t-107.5 -142.5t-55 -220.5zM78 358q0 274 150.5 447.5t387.5 173.5q344 0 345 -395q0 -242 -115 -384.5t-205 -184.5t-217 -42q-168 0 -257 99.5t-89 285.5z
" />
    <glyph glyph-name="p" unicode="p" horiz-adv-x="1077" 
d="M772 664q0 86 -53 86q-27 0 -74 -29t-81 -62.5t-61.5 -67.5t-69.5 -99.5t-58 -174.5l-19 -118q66 -52 114 -52t106.5 44.5t98.5 113t68.5 171t28.5 188.5zM826 987q97 0 148.5 -74.5t51.5 -212.5q0 -297 -155.5 -514t-368.5 -217q-96 0 -174 43l-78 -489h-244l219 1417
l250 27l-51 -267q72 123 188.5 205t213.5 82z" />
    <glyph glyph-name="q" unicode="q" horiz-adv-x="1060" 
d="M332 289q0 -94 71 -94t151.5 85t116.5 184t50 185l20 144q-52 18 -92 18q-121 0 -186.5 -82t-98 -199.5t-32.5 -240.5zM78 283q0 150 51 293t144.5 242.5t168 130t157.5 30.5t111.5 -2t97.5 -9t108.5 -11.5t97.5 -4.5l-228 -1441h-243l75 477l31 151l17 72
q-174 -240 -392 -240q-196 1 -196 312z" />
    <glyph glyph-name="r" unicode="r" horiz-adv-x="706" 
d="M698 973q37 0 86 -33l-94 -278q-20 12 -39 12q-51 0 -119.5 -69.5t-101.5 -148.5t-45 -128t-29 -156l-26 -172h-244l145 940l215 27l-38 -285l41 74q53 86 111 151.5t138 65.5z" />
    <glyph glyph-name="s" unicode="s" horiz-adv-x="741" 
d="M303 174q121 0 121 82q0 51 -70 111l-114 100l-80 84q-53 70 -54 151q0 131 95 205t249 74t293 -55l-69 -199q-70 37 -112 49t-91 12q-125 0 -125 -71q0 -37 36 -73t131 -114.5t133 -136t38 -133.5q0 -131 -90 -209t-236 -78t-346 54l68 198q141 -51 223 -51z" />
    <glyph glyph-name="t" unicode="t" horiz-adv-x="716" 
d="M137 86q0 66 17 166l79 516h-155l26 172l158 12l41 265l236 26l-45 -291h204l-26 -184h-207l-82 -530q66 25 117 51l92 55l82 -145l-72 -52q-88 -61 -190.5 -108t-249.5 -66q-25 47 -25 113z" />
    <glyph glyph-name="u" unicode="u" horiz-adv-x="1099" 
d="M111 164q0 41 4 61l110 715l248 27l-96 -623l-8 -78q0 -66 43 -65q74 0 166 100t131 185t61 229l33 225l250 27l-150 -967h-231l45 283l-51 -90q-43 -63 -135.5 -141.5t-231.5 -78.5q-188 1 -188 191z" />
    <glyph glyph-name="v" unicode="v" horiz-adv-x="913" 
d="M662 780q0 75 -25 146l264 41q8 -88 8 -158q0 -129 -51 -223t-109.5 -169t-160 -185.5t-139 -147.5t-121.5 -111h-189v967l232 27v-715l161 215q76 106 103 172t27 141z" />
    <glyph glyph-name="w" unicode="w" horiz-adv-x="1411" 
d="M139 -27v967l228 27v-715l79 92q47 59 160 225l35 54v317l231 27v-715q206 257 246.5 358.5t40.5 171.5t-20 144l258 41q10 -88 10 -156q-1 -133 -65 -251t-208.5 -275.5t-187.5 -199.5t-121 -112h-184v394l-109 -150q-51 -72 -96 -121t-125 -123h-172z" />
    <glyph glyph-name="x" unicode="x" horiz-adv-x="854" 
d="M-78 0l385 481l-211 459l248 27l115 -293l205 278h274l-391 -489l215 -463h-262l-109 262l-203 -262h-266z" />
    <glyph glyph-name="y" unicode="y" horiz-adv-x="899" 
d="M893 780q0 -106 -40 -218t-83 -180.5t-143.5 -187t-118.5 -194.5l-115 -477h-243l110 450q16 66 16 121l-6 39l-209 807l248 27l144 -662q43 57 72.5 106.5t74.5 150t45 237.5q0 63 -20 127l252 41q16 -81 16 -187z" />
    <glyph glyph-name="z" unicode="z" horiz-adv-x="901" 
d="M23 0l20 133l496 621h-414l31 198h735l-21 -131l-495 -622h450l-30 -199h-772z" />
    <glyph glyph-name="braceleft" unicode="{" horiz-adv-x="837" 
d="M262 592q154 0 193 231l67 428q43 272 309 273h168l-22 -160h-76q-156 0 -188 -205l-62 -385q-18 -119 -59 -172t-69.5 -66.5t-102.5 -23.5q63 -10 109 -29.5t46 -138.5l-6 -94l-59 -379q-8 -39 -8 -86t35.5 -83t93.5 -36h78l-33 -190h-168q-229 0 -229 207l6 67l67 430
l6 78q0 76 -32.5 121t-89.5 45h-76l26 168h76z" />
    <glyph glyph-name="bar" unicode="|" horiz-adv-x="512" 
d="M0 -492l313 1983h228l-314 -1983h-227z" />
    <glyph glyph-name="braceright" unicode="}" horiz-adv-x="837" 
d="M-16 -365q156 0 188 207l61 385q16 115 58.5 169.5t72 68.5t101.5 24q-52 5 -105 26.5t-53 141.5q0 33 8 93l60 380q8 39 8 86t-36 83t-93 36h-78l33 189h168q229 0 229 -205l-6 -68l-68 -430l-8 -78q0 -78 33 -123t90 -45h78l-27 -167h-75q-156 0 -193 -232l-68 -426
q-43 -274 -309 -274h-168l23 159h76z" />
    <glyph glyph-name="asciitilde" unicode="~" horiz-adv-x="1114" 
d="M332 590q76 0 166 -41l102 -45q86 -37 148 -37t121 20.5t141 77.5l92 -145q-166 -125 -340 -125q-68 0 -116 13.5t-140 58.5t-158 45q-129 0 -256 -99l-84 142q168 135 324 135z" />
    <glyph glyph-name="uni00A0" unicode="&#xa0;" horiz-adv-x="1024" 
 />
    <glyph glyph-name="exclamdown" unicode="&#xa1;" horiz-adv-x="540" 
d="M137 865q0 69 52.5 117t119.5 48t109.5 -46t42.5 -116t-52.5 -118t-118.5 -48t-109.5 47t-43.5 116zM-43 -475l182 1067h232l-150 -1016z" />
    <glyph glyph-name="cent" unicode="&#xa2;" horiz-adv-x="802" 
d="M307 394q0 -114 18.5 -152.5t67.5 -44.5l111 589q-90 -55 -143.5 -166.5t-53.5 -225.5zM59 307q0 268 106.5 412.5t184.5 193t191 64.5l22 119h113l-23 -121q70 -10 107 -20.5t106 -41.5l-106 -194q-47 37 -69.5 47t-72.5 22l-110 -569q68 39 95.5 58.5t92.5 72.5
l95 -143q-144 -116 -206.5 -145t-115.5 -48l-39 -194h-111l33 170l-80 -6q-213 -1 -213 323z" />
    <glyph glyph-name="sterling" unicode="&#xa3;" horiz-adv-x="1179" 
d="M1064 1499q87 0 150.5 -27.5t100.5 -66.5t86 -117l-184 -117q-47 84 -75 108t-94 24t-107.5 -64.5t-109.5 -298.5l-167 -567h335l-59 -180h-336l-57 -232q-20 -82 -82 -192l51 4l53 -4l74 -13l178 -45l58 -6q74 0 73 80l-6 49l-12 49l174 39q33 -86 33 -149
q0 -135 -84 -207t-248 -72q-86 0 -158 19l-141 32q-57 17 -146 17t-153 -15l-145 -34l-76 -15v193q108 33 149.5 56t87.5 72.5t84 192.5l49 181h-219l56 155l211 25l196 696q43 147 79 219t89 117t129 69.5t163 24.5z" />
    <glyph glyph-name="currency" unicode="&#xa4;" horiz-adv-x="1155" 
d="M719 1274q-90 0 -136 -58.5t-69 -199.5l-12 -64h348l29 181l26 98q-96 43 -186 43zM502 -256q72 0 125 67.5t69 184.5l121 772h-346l-127 -819q-12 -76 -43 -139q129 -66 201 -66zM-80 -291q70 0 123 68.5t72 183.5l123 807h-193l27 172l198 12l23 142q29 176 140.5 274
t283.5 98l82 -6l69 -10l70 -20l76 -29q16 12 43.5 33.5t71.5 46t179 24.5q136 0 304 -67l-70 -189q-158 66 -248 66q-162 0 -196 -258l-13 -105h185l-27 -184h-194l-123 -786q-28 -171 -90 -265t-154 -139t-190 -45q-160 0 -295 94q-47 -49 -100.5 -88t-170.5 -39t-174 22.5
t-110 53.5l94 193q70 -37 104.5 -48.5t79.5 -11.5z" />
    <glyph glyph-name="yen" unicode="&#xa5;" 
d="M104 281l23 137h297l22 141h-296l20 131l240 -2l-248 664h282l187 -529l368 529h283l-494 -664l236 2l-20 -131h-299l-21 -141h297l-20 -137h-299l-46 -281h-258l45 281h-299z" />
    <glyph glyph-name="section" unicode="&#xa7;" horiz-adv-x="1062" 
d="M285 731q0 381 141 569.5t383 188.5q145 0 207.5 -26.5t91.5 -53.5t76 -90l-162 -107q-35 66 -75.5 90.5t-108.5 24.5t-108 -16.5t-125 -111t-85 -597.5l2 -139q0 -121 8 -361q0 -115 -4 -159.5t-20 -126.5l-133 -23l8 101q0 104 -48 375.5t-48 461.5zM372 -383
q68 0 109 16.5t125 108.5t84 602l-8 498q0 135 2 167.5t21 112.5l135 29q-10 -63 -10 -125t49 -351t49 -464q0 -377 -142 -567t-383 -191q-143 0 -220.5 34t-155.5 138l163 105q33 -63 73.5 -88t108.5 -25z" />
    <glyph glyph-name="dieresis" unicode="&#xa8;" horiz-adv-x="1042" 
d="M655 1517q0 48 35 80.5t83 32.5t77 -30.5t29 -78.5t-35 -81t-83 -33t-77 31t-29 79zM647 1161q0 49 37 84t86 35t80 -35t31 -84t-38 -83t-87 -34t-79 34t-30 83zM319 1523q0 48 35 80.5t83 32.5t77 -30.5t29 -79.5t-35 -82t-82 -33t-77 32t-30 80zM317 1159q0 47 39.5 84
t87.5 37t78.5 -35t30.5 -83t-38 -84t-87 -36t-80 35t-31 82z" />
    <glyph glyph-name="copyright" unicode="&#xa9;" horiz-adv-x="2066" 
d="M780 422q0 -223 211 -223q94 0 151.5 29.5t88.5 43.5l80 -172l-68 -34q-127 -57 -272 -58q-201 0 -321 110t-120 292q0 246 167 414.5t409 168.5q124 0 189 -30.5t137 -81.5l-123 -154q-102 61 -201 61q-139 0 -233.5 -104t-94.5 -262zM375 500q0 -268 188.5 -459
t457.5 -191t459.5 191t190.5 459t-188.5 458.5t-457.5 190.5t-459.5 -190.5t-190.5 -458.5zM182 500q0 348 246 593.5t594 245.5t595 -244.5t247 -593.5t-246 -595t-595 -246t-595 246t-246 594z" />
    <glyph glyph-name="ordfeminine" unicode="&#xaa;" horiz-adv-x="1683" 
d="M719 1274q-90 0 -136 -58.5t-69 -199.5l-12 -64h348l29 181l26 98q-96 43 -186 43zM502 -256q72 0 125 67.5t69 184.5l121 772h-346l-127 -819q-12 -76 -43 -139q129 -66 201 -66zM-80 -291q70 0 123 68.5t72 183.5l123 807h-193l27 172l198 12l23 142q29 176 140.5 274
t283.5 98l82 -6l69 -10l70 -20l76 -29q16 12 43.5 33.5t73 46t167.5 24.5t199.5 -17.5t115.5 -31.5t66 -24l-69 -191l-94 37q-127 37 -213 37q-170 0 -205 -258l-13 -105h385l154 15l-147 -967h-246l119 768h-301l-123 -786q-28 -171 -90 -265t-154 -139t-190 -45
q-160 0 -295 94q-47 -49 -100.5 -88t-170.5 -39t-174 22.5t-110 53.5l94 193q70 -37 104.5 -48.5t79.5 -11.5z" />
    <glyph glyph-name="guillemotleft" unicode="&#xab;" horiz-adv-x="1146" 
d="M549 463l567 399l-39 -244l-231 -155l182 -154l-39 -246zM61 463l566 399l-39 -244l-232 -155l183 -154l-39 -246z" />
    <glyph glyph-name="uni00AD" unicode="&#xad;" horiz-adv-x="565" 
d="M57 356l39 228h428l-37 -228h-430z" />
    <glyph glyph-name="registered" unicode="&#xae;" horiz-adv-x="2004" 
d="M1001 528q80 0 137.5 49.5t57.5 112.5t-36 89t-113 26h-105l-43 -277h102zM1100 979q336 0 336 -242q0 -141 -76 -234t-207 -110l166 -381h-248l-153 373h-44l-57 -373h-223l154 967h352zM348 498q0 -268 190.5 -459t458.5 -191t459 191t191 459t-190.5 458.5
t-458.5 190.5t-459 -190.5t-191 -458.5zM158 497q0 349 245.5 594.5t593.5 245.5t594 -245.5t246 -593.5t-244.5 -595t-594.5 -247t-595 246t-245 595z" />
    <glyph glyph-name="macron" unicode="&#xaf;" horiz-adv-x="512" 
d="M-271 123l41 129h560l-41 -129h-560z" />
    <glyph glyph-name="degree" unicode="&#xb0;" horiz-adv-x="681" 
d="M385 1120q0 -55 33 -92t87 -37t96 38t42 93t-32.5 92t-86.5 37t-96.5 -38t-42.5 -93zM264 1116q0 104 82 180t186 76t168 -70t64 -174t-83 -181t-204 -77q-88 0 -150.5 71t-62.5 175z" />
    <glyph glyph-name="plusminus" unicode="&#xb1;" 
d="M78 532v168h401v320h168v-320h402v-168h-402v-319h-168v319h-401zM78 0v168h971v-168h-971z" />
    <glyph glyph-name="uni00B2" unicode="&#xb2;" horiz-adv-x="878" 
d="M504 791q-82 0 -268 -121l-113 180l129 65q162 78 334 78q293 0 293 -262q1 -115 -51 -205t-169 -178l-219 -168h387l-28 -180h-772l18 117l291 217q285 215 285 364q0 43 -31 68t-86 25z" />
    <glyph glyph-name="uni00B3" unicode="&#xb3;" horiz-adv-x="839" 
d="M205 -236q125 0 215 98t90 236q0 145 -180 146h-115l37 155q123 37 206 119t83 166q0 43 -31 76t-72 33q-88 0 -241 -84l-78 153q129 78 228 100q99 23 179 23q129 -1 202 -69t73 -189q0 -168 -127 -272q-39 -33 -76 -51t-109 -44l25 2q130 0 192 -63t62 -199
q0 -218 -166 -374t-397 -156q-140 0 -287 70l88 180l55 -29q68 -27 144 -27z" />
    <glyph glyph-name="acute" unicode="&#xb4;" horiz-adv-x="784" 
d="M147 1059l248 336h244l-285 -336h-207z" />
    <glyph glyph-name="uni00B5" unicode="&#xb5;" horiz-adv-x="1806" 
d="M1344 258q38 0 40 14t2 37l5 82l2 68l-15 200q0 72 -35 72l-20 -2l-43 -8l-4 -39v-37l12 -188l4 -133l-2 -19q0 -35 8 -41t46 -6zM154 627q0 -15 8 -25t18 -10l25 10l16 8l23 -16q14 -14 51 -19l203 -4l80 -4l59 6l39 11h8q31 0 31 -19q-8 -12 -13 -16l-22 -10l-47 -4
q-15 -1 -35 -21t-20 -44t28 -50t62 -25l18 2l31 11q12 -12 12 -19q0 -14 -29 -24l-30 -9q-8 -8 -8 -34t11 -40t39 -29t48 -15t35 14l32 29q11 12 27 12q16 -1 16 -21t-36 -40t-35 -37q-1 -10 23 -47t57 -37t67 18l62 35l63 29q105 47 133 69q27 23 27 84v14l-12 236
q0 108 -39 125l-78 39l-39 39q-60 48 -197 73l-71 11h-11l-28 -4l-27 -2l-27 -21l-8 -25q-6 -16 -18 -16q-12 14 -26 44t-43 30q-30 1 -37 -13t-7 -49q1 -35 15 -56t32 -21l49 2l76 4l125 8q30 0 48 -12t18 -32q0 -19 -29 -20h-10q-53 6 -179 6t-188 -6l-203 -20l-104 -8
q-59 0 -59 -45zM66 631q0 57 66 71q174 38 292 39l57 -2q29 1 39 11t10 36l-4 41q-10 43 -10 54v16q0 29 10 43t16 16q5 2 9 5l14 -7l17 -12l26 -10l58 -10l55 10l41 4q40 0 116 -14t128 -34t124 -73q73 -53 119 -53l64 8q107 10 141 10l90 4l66 4q62 0 89 -19t50 -111
t23 -212t-25 -194q-16 -47 -76 -47l-16 2l-96 8l-121 -8l-101 2l-69 12q-23 4 -72 -26l-266 -125q-104 -50 -152 43l-26 55q-4 10 -60 32t-80 93l-16 53l-43 62l-23 100q-8 18 -55 12t-86 -6t-69 5t-64 19q-35 14 -47 15l-55 4q-40 1 -64 21t-24 53z" />
    <glyph glyph-name="paragraph" unicode="&#xb6;" horiz-adv-x="1318" 
d="M674 -289q43 29 65.5 49.5t73.5 98.5t86 293l186 1157h-153zM129 902q0 156 63.5 271t188.5 224.5t338 109.5h661l31 -2q35 0 42 -1t77 -23l-66 -199q-55 27 -112 27h-66l-205 -1282q-86 -539 -616 -539q-150 0 -230.5 33t-162.5 80l98 168q78 -51 129 -72t107 -21l63 5
l129 821l-63 2q-168 0 -287 121t-119 277z" />
    <glyph glyph-name="cedilla" unicode="&#xb8;" horiz-adv-x="909" 
d="M488 -379q90 0 90 76q0 47 -31 65.5t-105 18.5h-65l117 192h102l-64 -114q152 0 152 -156q0 -80 -55 -133t-123 -53t-105.5 10t-113.5 35l51 104q104 -45 150 -45z" />
    <glyph glyph-name="uni00B9" unicode="&#xb9;" horiz-adv-x="747" 
d="M94 811l492 180h116l-157 -991h-244l113 721l-260 -103z" />
    <glyph glyph-name="ordmasculine" unicode="&#xba;" horiz-adv-x="1671" 
d="M719 1274q-90 0 -136 -58.5t-69 -199.5l-12 -64h348l29 181l26 98q-96 43 -186 43zM502 -256q72 0 125 67.5t69 184.5l121 772h-346l-127 -819q-12 -76 -43 -139q129 -66 201 -66zM1317 1315q-96 0 -146.5 -58.5t-72.5 -199.5l-17 -105h211l-28 -184h-215l-123 -786
q-28 -171 -90 -265t-154 -139t-190 -45q-160 0 -295 94q-47 -49 -100.5 -88t-170.5 -39t-174 22.5t-110 53.5l94 193q70 -37 104.5 -48.5t79.5 -11.5q70 0 123 68.5t72 183.5l123 807h-193l27 172l198 12l23 142q29 176 140.5 274t283.5 98l82 -6l69 -10l70 -20l76 -29
q99 84 171 94t154 10t181 -18l198 20l-241 -1507h-244l201 1266l4 34q-73 15 -121 15z" />
    <glyph glyph-name="guillemotright" unicode="&#xbb;" horiz-adv-x="1146" 
d="M539 63l39 246l229 154l-180 155l37 244l440 -399zM49 63l39 246l229 154l-180 155l39 244l438 -399z" />
    <glyph glyph-name="questiondown" unicode="&#xbf;" horiz-adv-x="980" 
d="M383 864q0 68 52.5 117t120.5 49t110.5 -46t42.5 -116t-52.5 -118t-120.5 -48t-110.5 47t-42.5 115zM205 -156q0 -62 39 -96.5t108 -34.5q106 0 211 99l-71 114l180 90q76 -63 100.5 -100t24.5 -86q0 -119 -157 -215t-336 -96q-351 0 -351 307q0 195 84.5 277
t159.5 143.5t190 136.5q-53 72 -108 129l174 117q124 -124 156 -181t63 -129q-229 -133 -287.5 -182t-92.5 -80.5t-60.5 -91t-26.5 -121.5z" />
    <glyph glyph-name="Agrave" unicode="&#xc0;" horiz-adv-x="1218" 
d="M479 553h312l-80 489zM463 1655h229l156 -242h-191zM-59 0l700 1352h236l274 -1352h-270l-54 334h-454l-162 -334h-270z" />
    <glyph glyph-name="Aacute" unicode="&#xc1;" horiz-adv-x="1218" 
d="M637 1413l231 242h230l-271 -242h-190zM479 553h312l-80 489zM-59 0l700 1352h236l274 -1352h-270l-54 334h-454l-162 -334h-270z" />
    <glyph glyph-name="Acircumflex" unicode="&#xc2;" horiz-adv-x="1218" 
d="M479 553h312l-80 489zM440 1415l269 240h161l193 -240h-178l-113 133l-154 -133h-178zM-59 0l700 1352h236l274 -1352h-270l-54 334h-454l-162 -334h-270z" />
    <glyph glyph-name="Atilde" unicode="&#xc3;" horiz-adv-x="1218" 
d="M479 553h312l-80 489zM908 1538q50 0 82 16.5t102 59.5l51 -109q-68 -55 -133 -82q-92 -33 -158 -33t-128 36t-86 47.5t-62 11.5t-59 -8.5t-71 -36.5l-30 -19l-51 117q93 55 151.5 78.5t116.5 23.5l22 -2q39 0 76 -22l76 -45q51 -33 101 -33zM-59 0l700 1352h236
l274 -1352h-270l-54 334h-454l-162 -334h-270z" />
    <glyph glyph-name="Adieresis" unicode="&#xc4;" horiz-adv-x="1218" 
d="M829 1518q0 47 35 79.5t83 32.5t77 -30.5t29 -78.5t-37 -81t-84 -33t-75 32t-28 79zM494 1524q0 47 34.5 79.5t82.5 32.5t77 -30.5t29 -79.5t-37 -82t-83 -33t-74.5 33t-28.5 80zM479 553h312l-80 489zM-59 0l700 1352h236l274 -1352h-270l-54 334h-454l-162 -334h-270z
" />
    <glyph glyph-name="Aring" unicode="&#xc5;" horiz-adv-x="1218" 
d="M688 1575q0 -37 21.5 -60.5t57.5 -23.5t63.5 25.5t27.5 60.5t-22.5 59.5t-58.5 24.5t-62.5 -24.5t-26.5 -61.5zM575 1573q0 82 63.5 141.5t145.5 59.5t134.5 -56.5t52.5 -139.5t-64.5 -141.5t-147.5 -58.5t-133.5 56.5t-50.5 138.5zM479 553h312l-80 489zM-59 0l700 1352
h236l274 -1352h-270l-54 334h-454l-162 -334h-270z" />
    <glyph glyph-name="AE" unicode="&#xc6;" horiz-adv-x="1626" 
d="M487 514h271l59 387l51 258l-90 -180zM-102 0l858 1352h927l-34 -219h-549l-51 -334h444l-35 -219h-448l-52 -361h566l-29 -219h-821l49 297h-373l-188 -297h-264z" />
    <glyph glyph-name="Ccedilla" unicode="&#xc7;" horiz-adv-x="1239" 
d="M514 -377q53 0 80 26.5t27 65.5t-18.5 51.5t-76.5 12.5h-92l156 203q-139 23 -208 54.5t-183.5 151t-114.5 385.5q0 180 82 344t202.5 266.5t250 147.5t290.5 45q258 0 418 -135l-125 -197q-113 92 -295 93q-225 0 -378.5 -158t-153.5 -393q0 -170 108.5 -270.5
t294.5 -100.5q78 0 145.5 14.5t176.5 53.5l12 -226q-198 -84 -393 -84l-84 -116q143 0 143 -133q0 -90 -71.5 -158t-160.5 -68t-220 53l59 111q76 -39 129 -39z" />
    <glyph glyph-name="Egrave" unicode="&#xc8;" horiz-adv-x="1103" 
d="M506 1655h227l156 -242h-191zM121 0l213 1352h825l-35 -219h-567l-53 -334h463l-33 -219h-465l-57 -361h585l-26 -219h-850z" />
    <glyph glyph-name="Eacute" unicode="&#xc9;" horiz-adv-x="1103" 
d="M647 1413l232 242h227l-268 -242h-191zM121 0l213 1352h825l-35 -219h-567l-53 -334h463l-33 -219h-465l-57 -361h585l-26 -219h-850z" />
    <glyph glyph-name="Ecircumflex" unicode="&#xca;" horiz-adv-x="1103" 
d="M483 1415l269 240h161l191 -240h-176l-113 133l-153 -133h-179zM121 0l213 1352h825l-35 -219h-567l-53 -334h463l-33 -219h-465l-57 -361h585l-26 -219h-850z" />
    <glyph glyph-name="Edieresis" unicode="&#xcb;" horiz-adv-x="1103" 
d="M834 1518q0 47 34.5 79.5t82.5 32.5t77 -30.5t29 -78.5t-35 -81t-84 -33t-76.5 32t-27.5 79zM475 1524q0 47 35 79.5t83 32.5t76.5 -30.5t28.5 -79.5t-35 -82t-83 -33t-76.5 33t-28.5 80zM121 0l213 1352h825l-35 -219h-567l-53 -334h463l-33 -219h-465l-57 -361h585
l-26 -219h-850z" />
    <glyph glyph-name="Igrave" unicode="&#xcc;" horiz-adv-x="614" 
d="M229 1655h228l155 -242h-190zM115 0l213 1352h258l-215 -1352h-256z" />
    <glyph glyph-name="Iacute" unicode="&#xcd;" horiz-adv-x="614" 
d="M311 1413l232 242h229l-270 -242h-191zM115 0l213 1352h258l-215 -1352h-256z" />
    <glyph glyph-name="Icircumflex" unicode="&#xce;" horiz-adv-x="614" 
d="M162 1415l268 240h162l190 -240h-176l-112 133l-154 -133h-178zM115 0l213 1352h258l-215 -1352h-256z" />
    <glyph glyph-name="Idieresis" unicode="&#xcf;" horiz-adv-x="614" 
d="M537 1521q0 48 34.5 80.5t82.5 32.5t77 -30.5t29 -78.5t-35 -81t-83 -33t-76.5 31t-28.5 79zM203 1526q0 47 34.5 79.5t82.5 32.5t76 -31.5t28 -78.5t-35 -80t-83 -33t-75.5 32t-27.5 79zM115 0l213 1352h258l-215 -1352h-256z" />
    <glyph glyph-name="Ntilde" unicode="&#xd1;" horiz-adv-x="1554" 
d="M1080 1540q50 0 82 16.5t102 59.5l51 -109q-68 -55 -133 -82q-92 -33 -158 -33t-128 36t-86 47.5t-62 11.5t-59 -8.5t-71 -36.5l-30 -19l-51 117q99 58 155 80t113 22l22 -2q39 0 76 -22l76 -45q51 -33 101 -33zM131 0l213 1352h295l408 -850q42 -63 65 -232l25 297
l123 785h247l-213 -1352h-276l-395 784q-48 96 -64 165t-27 132l-26 -243l-125 -838h-250z" />
    <glyph glyph-name="Ograve" unicode="&#xd2;" horiz-adv-x="1562" 
d="M680 1655h227l156 -242h-191zM375 567q0 -166 100 -272.5t258 -106.5q223 0 382 175.5t159 420.5q0 164 -102.5 270.5t-262.5 106.5q-219 0 -376.5 -174t-157.5 -420zM96 565v46q0 19 28 199.5t253 373t531 192.5t475 -158.5t169 -431.5q0 -340 -240.5 -576.5
t-588.5 -236.5q-283 0 -455 162t-172 430z" />
    <glyph glyph-name="Oacute" unicode="&#xd3;" horiz-adv-x="1562" 
d="M799 1413l231 242h230l-271 -242h-190zM375 567q0 -166 100 -272.5t258 -106.5q223 0 382 175.5t159 420.5q0 164 -102.5 270.5t-262.5 106.5q-219 0 -376.5 -174t-157.5 -420zM96 565v46q0 19 28 199.5t253 373t531 192.5t475 -158.5t169 -431.5q0 -340 -240.5 -576.5
t-588.5 -236.5q-283 0 -455 162t-172 430z" />
    <glyph glyph-name="Ocircumflex" unicode="&#xd4;" horiz-adv-x="1562" 
d="M627 1415l268 240h162l192 -240h-178l-113 133l-153 -133h-178zM375 567q0 -166 100 -272.5t258 -106.5q223 0 382 175.5t159 420.5q0 164 -102.5 270.5t-262.5 106.5q-219 0 -376.5 -174t-157.5 -420zM96 565v46q0 19 28 199.5t253 373t531 192.5t475 -158.5t169 -431.5
q0 -340 -240.5 -576.5t-588.5 -236.5q-283 0 -455 162t-172 430z" />
    <glyph glyph-name="Otilde" unicode="&#xd5;" horiz-adv-x="1562" 
d="M1343 1542q-143 -115 -291 -115q-66 0 -128 36t-85.5 47.5t-61.5 11.5t-59.5 -8.5t-70.5 -36.5l-31 -19l-51 117q91 54 151 78t118 24l22 -2q37 0 76 -22l76 -45q51 -33 101 -33t82 16.5t101 59.5zM375 567q0 -166 100 -272.5t258 -106.5q223 0 382 175.5t159 420.5
q0 164 -102.5 270.5t-262.5 106.5q-219 0 -376.5 -174t-157.5 -420zM96 565v46q0 19 28 199.5t253 373t531 192.5t475 -158.5t169 -431.5q0 -340 -240.5 -576.5t-588.5 -236.5q-283 0 -455 162t-172 430z" />
    <glyph glyph-name="Odieresis" unicode="&#xd6;" horiz-adv-x="1562" 
d="M1087 1520q0 49 35 81.5t83 32.5t77 -30.5t29 -79.5t-35 -82t-83 -33t-77 31t-29 80zM610 1519q0 48 35 80.5t83 32.5t77 -30.5t29 -78.5t-35 -81t-83 -33t-77 31t-29 79zM375 567q0 -166 100 -272.5t258 -106.5q223 0 382 175.5t159 420.5q0 164 -102.5 270.5
t-262.5 106.5q-219 0 -376.5 -174t-157.5 -420zM96 565v46q0 19 28 199.5t253 373t531 192.5t475 -158.5t169 -431.5q0 -340 -240.5 -576.5t-588.5 -236.5q-283 0 -455 162t-172 430z" />
    <glyph glyph-name="Oslash" unicode="&#xd8;" horiz-adv-x="1562" 
d="M737 199q221 0 379 172t158 413q0 78 -25 146l-762 -639q109 -92 250 -92zM375 567q0 -88 24 -147l762 637q-104 96 -248 96q-223 0 -380.5 -172t-157.5 -414zM96 559q0 346 237.5 581.5t590.5 235.5q285 0 444 -145l158 133l106 -113l-166 -139q86 -139 86 -324
q0 -342 -240.5 -578.5t-586.5 -236.5q-252 0 -444 150l-168 -148l-105 115l174 143q-86 164 -86 326z" />
    <glyph glyph-name="Ugrave" unicode="&#xd9;" horiz-adv-x="1433" 
d="M614 1655h230l155 -242h-190zM152 350q0 94 14 178l131 824h262l-133 -838l-8 -84q0 -215 260 -215q152 0 246 78t116 223l134 836h262l-131 -824q-31 -193 -85.5 -290t-191.5 -181t-375 -84t-369.5 99.5t-131.5 277.5z" />
    <glyph glyph-name="Uacute" unicode="&#xda;" horiz-adv-x="1433" 
d="M743 1413l232 242h229l-270 -242h-191zM152 350q0 94 14 178l131 824h262l-133 -838l-8 -84q0 -215 260 -215q152 0 246 78t116 223l134 836h262l-131 -824q-31 -193 -85.5 -290t-191.5 -181t-375 -84t-369.5 99.5t-131.5 277.5z" />
    <glyph glyph-name="Ucircumflex" unicode="&#xdb;" horiz-adv-x="1433" 
d="M571 1417l267 240h163l191 -240h-176l-113 133l-153 -133h-179zM152 350q0 94 14 178l131 824h262l-133 -838l-8 -84q0 -215 260 -215q152 0 246 78t116 223l134 836h262l-131 -824q-31 -193 -85.5 -290t-191.5 -181t-375 -84t-369.5 99.5t-131.5 277.5z" />
    <glyph glyph-name="Udieresis" unicode="&#xdc;" horiz-adv-x="1433" 
d="M987 1518q0 47 35 79.5t83 32.5t76.5 -30.5t28.5 -78.5t-36 -81t-84 -33t-75.5 32t-27.5 79zM547 1524q0 47 34.5 79.5t82.5 32.5t77 -30.5t29 -79.5t-35 -82t-83 -33t-76.5 33t-28.5 80zM152 350q0 94 14 178l131 824h262l-133 -838l-8 -84q0 -215 260 -215
q152 0 246 78t116 223l134 836h262l-131 -824q-31 -193 -85.5 -290t-191.5 -181t-375 -84t-369.5 99.5t-131.5 277.5z" />
    <glyph glyph-name="Yacute" unicode="&#xdd;" 
d="M639 1499l248 336h244l-285 -336h-207zM158 1352h276l187 -525l364 525h295l-578 -779l-90 -573h-262l92 590z" />
    <glyph glyph-name="germandbls" unicode="&#xdf;" horiz-adv-x="1144" 
d="M-72 -283q38 0 79.5 23.5t74 81t63.5 256.5l97 694h-193l27 168l194 12l31 195q31 195 152 309.5t287 114.5t268 -98.5t102 -251.5q0 -98 -35 -173t-105 -149t-105.5 -116t-35.5 -84t52 -91l92 -84q135 -126 135 -252t-91 -207t-245 -81q-78 0 -130 16t-163 78l68 180
l49 -27l68 -26q71 -29 100 -29q74 0 74 76q0 53 -62 115l-98 104l-60 72q-34 61 -34 130t32.5 131t109.5 149t107.5 127t44 70t13.5 88t-39 103t-102 45q-180 0 -226 -292l-168 -1145q-31 -209 -144.5 -318.5t-295.5 -109.5q-61 0 -107.5 7t-144.5 34l84 207l74 -27
q68 -25 106 -25z" />
    <glyph glyph-name="agrave" unicode="&#xe0;" horiz-adv-x="1058" 
d="M438 1395h203l141 -336h-164zM338 342q0 -63 16 -100t46 -37t73 34.5t130 146.5t112 276l20 133q-49 10 -82 10q-127 0 -221 -138.5t-94 -324.5zM78 274q0 199 80 369t179 235.5t164 82t159 16.5t141 -6t200 -31l-145 -940h-219l43 270q-57 -80 -99 -126t-125.5 -108.5
t-177.5 -62.5t-147 84t-53 217z" />
    <glyph glyph-name="aacute" unicode="&#xe1;" horiz-adv-x="1058" 
d="M522 1059l246 336h246l-287 -336h-205zM338 342q0 -63 16 -100t46 -37t73 34.5t130 146.5t112 276l20 133q-49 10 -82 10q-127 0 -221 -138.5t-94 -324.5zM78 274q0 199 80 369t179 235.5t164 82t159 16.5t141 -6t200 -31l-145 -940h-219l43 270q-57 -80 -99 -126
t-125.5 -108.5t-177.5 -62.5t-147 84t-53 217z" />
    <glyph glyph-name="acircumflex" unicode="&#xe2;" horiz-adv-x="1058" 
d="M383 1057l281 336h163l177 -336h-179l-102 186l-164 -186h-176zM338 342q0 -63 16 -100t46 -37t73 34.5t130 146.5t112 276l20 133q-49 10 -82 10q-127 0 -221 -138.5t-94 -324.5zM78 274q0 199 80 369t179 235.5t164 82t159 16.5t141 -6t200 -31l-145 -940h-219l43 270
q-57 -80 -99 -126t-125.5 -108.5t-177.5 -62.5t-147 84t-53 217z" />
    <glyph glyph-name="atilde" unicode="&#xe3;" horiz-adv-x="1058" 
d="M338 342q0 -63 16 -100t46 -37t73 34.5t130 146.5t112 276l20 133q-49 10 -82 10q-127 0 -221 -138.5t-94 -324.5zM846 1194q50 0 82.5 16.5t101.5 59.5l51 -109q-68 -55 -133 -82q-92 -33 -158 -33t-128 36t-85.5 47.5t-61.5 11.5t-59.5 -8.5t-70.5 -36.5l-31 -19
l-51 117q91 54 151 78t117 24l23 -2q38 0 76 -22l75 -45q51 -33 101 -33zM78 274q0 199 80 369t179 235.5t164 82t159 16.5t141 -6t200 -31l-145 -940h-219l43 270q-57 -80 -99 -126t-125.5 -108.5t-177.5 -62.5t-147 84t-53 217z" />
    <glyph glyph-name="adieresis" unicode="&#xe4;" horiz-adv-x="1058" 
d="M770 1160q0 50 39 85t87 35t79 -35t31 -83t-39 -83t-87 -35t-79 33t-31 83zM442 1160q0 48 38 84t86 36t80 -34t32 -82t-39 -85t-87 -37t-79 35t-31 83zM338 342q0 -63 16 -100t46 -37t73 34.5t130 146.5t112 276l20 133q-49 10 -82 10q-127 0 -221 -138.5t-94 -324.5z
M78 274q0 199 80 369t179 235.5t164 82t159 16.5t141 -6t200 -31l-145 -940h-219l43 270q-57 -80 -99 -126t-125.5 -108.5t-177.5 -62.5t-147 84t-53 217z" />
    <glyph glyph-name="aring" unicode="&#xe5;" horiz-adv-x="1058" 
d="M645 1225q0 -37 21.5 -60.5t57.5 -23.5t63.5 25.5t27.5 60.5t-22.5 59.5t-58.5 24.5t-62.5 -24.5t-26.5 -61.5zM532 1223q0 82 64 141t146 59t134 -56t52 -139t-64.5 -141.5t-147.5 -58.5t-133.5 56.5t-50.5 138.5zM338 342q0 -63 16 -100t46 -37t73 34.5t130 146.5
t112 276l20 133q-49 10 -82 10q-127 0 -221 -138.5t-94 -324.5zM78 274q0 199 80 369t179 235.5t164 82t159 16.5t141 -6t200 -31l-145 -940h-219l43 270q-57 -80 -99 -126t-125.5 -108.5t-177.5 -62.5t-147 84t-53 217z" />
    <glyph glyph-name="ae" unicode="&#xe6;" horiz-adv-x="1476" 
d="M1139 815q-72 0 -122 -59.5t-75.5 -114t-54.5 -152.5l321 181q12 33 13 57q0 88 -82 88zM338 342q0 -63 16 -100t46 -37t73 34.5t130 146.5t112 276l20 133q-49 10 -82 10q-127 0 -221 -138.5t-94 -324.5zM78 274q0 299 158.5 501t394.5 202q72 0 207 -19l61 -8l-27 -149
q29 51 50.5 76.5t77 64.5t182.5 39q270 0 270 -199q0 -152 -170 -241l-412 -219q8 -61 22.5 -84t43 -37.5t64.5 -14.5t88.5 20.5t94.5 48.5t140 101l94 -145q-80 -62 -202.5 -150t-301.5 -88q-115 0 -172 55.5t-74.5 94.5t-17.5 108q-82 -119 -184.5 -188.5t-191.5 -69.5
t-142 84t-53 217z" />
    <glyph glyph-name="ccedilla" unicode="&#xe7;" horiz-adv-x="856" 
d="M262 -352q53 0 80 26.5t27 65.5t-18.5 51t-76.5 12h-92l135 181h-34q-98 0 -151.5 84t-53.5 237q0 289 152.5 482.5t379.5 193.5q100 0 159.5 -20.5t115.5 -45.5l-101 -188q-126 68 -188 68q-115 0 -192.5 -126t-77.5 -313q0 -76 24.5 -118.5t65.5 -42.5q72 0 297 161
l94 -145l-64 -45q-86 -63 -140 -94t-134 -60l-86 -131q143 0 143 -133q0 -90 -71.5 -157.5t-159.5 -67.5t-221 55l59 109q76 -39 129 -39z" />
    <glyph glyph-name="egrave" unicode="&#xe8;" horiz-adv-x="909" 
d="M391 1395h203l141 -336h-166zM649 727q0 88 -82 88q-72 0 -122 -59.5t-75.5 -114t-54.5 -152.5l322 181q12 33 12 57zM78 311q0 297 149.5 483.5t386.5 186.5q270 0 271 -199q0 -152 -170 -241l-414 -219q10 -61 24.5 -84t42 -37.5t64.5 -14.5t89 20.5t94 48.5t141 101
l94 -145q-170 -132 -268.5 -185t-231.5 -53q-272 0 -272 338z" />
    <glyph glyph-name="eacute" unicode="&#xe9;" horiz-adv-x="909" 
d="M473 1059l246 336h244l-285 -336h-205zM649 727q0 88 -82 88q-72 0 -122 -59.5t-75.5 -114t-54.5 -152.5l322 181q12 33 12 57zM78 311q0 297 149.5 483.5t386.5 186.5q270 0 271 -199q0 -152 -170 -241l-414 -219q10 -61 24.5 -84t42 -37.5t64.5 -14.5t89 20.5t94 48.5
t141 101l94 -145q-170 -132 -268.5 -185t-231.5 -53q-272 0 -272 338z" />
    <glyph glyph-name="ecircumflex" unicode="&#xea;" horiz-adv-x="909" 
d="M315 1057l283 336h162l176 -336h-178l-103 186l-161 -186h-179zM649 727q0 88 -82 88q-72 0 -122 -59.5t-75.5 -114t-54.5 -152.5l322 181q12 33 12 57zM78 311q0 297 149.5 483.5t386.5 186.5q270 0 271 -199q0 -152 -170 -241l-414 -219q10 -61 24.5 -84t42 -37.5
t64.5 -14.5t89 20.5t94 48.5t141 101l94 -145q-170 -132 -268.5 -185t-231.5 -53q-272 0 -272 338z" />
    <glyph glyph-name="edieresis" unicode="&#xeb;" horiz-adv-x="909" 
d="M705 1160q0 50 36.5 85t86.5 35t81 -34t31 -83t-39 -84t-87 -35t-78.5 33t-30.5 83zM377 1160q0 48 38 84t86 36t78.5 -35t30.5 -83t-38 -84t-86 -36t-78.5 35t-30.5 83zM649 727q0 88 -82 88q-72 0 -122 -59.5t-75.5 -114t-54.5 -152.5l322 181q12 33 12 57zM78 311
q0 297 149.5 483.5t386.5 186.5q270 0 271 -199q0 -152 -170 -241l-414 -219q10 -61 24.5 -84t42 -37.5t64.5 -14.5t89 20.5t94 48.5t141 101l94 -145q-170 -132 -268.5 -185t-231.5 -53q-272 0 -272 338z" />
    <glyph glyph-name="igrave" unicode="&#xec;" horiz-adv-x="526" 
d="M160 1395h202l140 -336h-164zM86 0l145 940l248 27l-149 -967h-244z" />
    <glyph glyph-name="iacute" unicode="&#xed;" horiz-adv-x="526" 
d="M236 1059l245 336h244l-285 -336h-204zM86 0l145 940l248 27l-149 -967h-244z" />
    <glyph glyph-name="icircumflex" unicode="&#xee;" horiz-adv-x="526" 
d="M86 0l145 940l248 27l-149 -967h-244zM74 1057l282 336h162l176 -336h-176l-104 186l-162 -186h-178z" />
    <glyph glyph-name="idieresis" unicode="&#xef;" horiz-adv-x="526" 
d="M438 1160q0 50 39 85t87 35t79 -35t31 -84t-38 -83t-87 -34t-80 33t-31 83zM111 1160q0 48 37.5 84t85.5 36t80 -34t32 -82t-39 -85t-87 -37t-78.5 35t-30.5 83zM86 0l145 940l248 27l-149 -967h-244z" />
    <glyph glyph-name="ntilde" unicode="&#xf1;" horiz-adv-x="1105" 
d="M820 1200q50 0 82 16.5t102 59.5l51 -109q-68 -55 -133 -82q-92 -33 -158 -33t-128.5 36t-86 47.5t-61.5 11.5t-59 -8.5t-71 -36.5l-30 -19l-52 117q96 57 153.5 80t115.5 23l22 -3q39 0 76 -22l76 -45q51 -33 101 -33zM838 979q98 0 143 -47t45 -152l-4 -53l-113 -727
h-243l94 608l6 80q0 63 -41 64q-76 0 -164 -97.5t-128.5 -174.5t-65.5 -242l-37 -238h-244l145 940l248 27l-53 -267q186 279 412 279z" />
    <glyph glyph-name="ograve" unicode="&#xf2;" horiz-adv-x="1021" 
d="M401 1395h203l139 -336h-163zM330 386q0 -120 32.5 -177t86.5 -57q20 0 43.5 9t72.5 51t95.5 147t46.5 211t-31 163.5t-81 57.5t-102.5 -42t-107.5 -142.5t-55 -220.5zM78 358q0 274 150.5 447.5t387.5 173.5q344 0 345 -395q0 -242 -115 -384.5t-205 -184.5t-217 -42
q-168 0 -257 99.5t-89 285.5z" />
    <glyph glyph-name="oacute" unicode="&#xf3;" horiz-adv-x="1021" 
d="M483 1059l246 336h244l-285 -336h-205zM330 386q0 -120 32.5 -177t86.5 -57q20 0 43.5 9t72.5 51t95.5 147t46.5 211t-31 163.5t-81 57.5t-102.5 -42t-107.5 -142.5t-55 -220.5zM78 358q0 274 150.5 447.5t387.5 173.5q344 0 345 -395q0 -242 -115 -384.5t-205 -184.5
t-217 -42q-168 0 -257 99.5t-89 285.5z" />
    <glyph glyph-name="ocircumflex" unicode="&#xf4;" horiz-adv-x="1021" 
d="M330 386q0 -120 32.5 -177t86.5 -57q20 0 43.5 9t72.5 51t95.5 147t46.5 211t-31 163.5t-81 57.5t-102.5 -42t-107.5 -142.5t-55 -220.5zM315 1057l283 336h164l176 -336h-178l-105 186l-161 -186h-179zM78 358q0 274 150.5 447.5t387.5 173.5q344 0 345 -395
q0 -242 -115 -384.5t-205 -184.5t-217 -42q-168 0 -257 99.5t-89 285.5z" />
    <glyph glyph-name="otilde" unicode="&#xf5;" horiz-adv-x="1021" 
d="M330 386q0 -120 32.5 -177t86.5 -57q20 0 43.5 9t72.5 51t95.5 147t46.5 211t-31 163.5t-81 57.5t-102.5 -42t-107.5 -142.5t-55 -220.5zM1006 1159q-142 -115 -292 -115q-66 0 -128 36t-85.5 47.5t-61.5 11.5t-59.5 -8.5t-70.5 -36.5l-30 -19l-52 117q91 54 151 78
t118 24l22 -2q37 0 76 -22l76 -45q51 -33 101 -33t82 16.5t101 59.5zM78 358q0 274 150.5 447.5t387.5 173.5q344 0 345 -395q0 -242 -115 -384.5t-205 -184.5t-217 -42q-168 0 -257 99.5t-89 285.5z" />
    <glyph glyph-name="odieresis" unicode="&#xf6;" horiz-adv-x="1021" 
d="M694 1160q0 50 37 85t86 35t81 -34t32 -83t-39 -84t-87 -35t-79 33t-31 83zM356 1160q0 48 38 84t86 36t80 -34t32 -82t-39 -85t-87 -37t-79 35t-31 83zM330 386q0 -120 32.5 -177t86.5 -57q20 0 43.5 9t72.5 51t95.5 147t46.5 211t-31 163.5t-81 57.5t-102.5 -42
t-107.5 -142.5t-55 -220.5zM78 358q0 274 150.5 447.5t387.5 173.5q344 0 345 -395q0 -242 -115 -384.5t-205 -184.5t-217 -42q-168 0 -257 99.5t-89 285.5z" />
    <glyph glyph-name="divide" unicode="&#xf7;" 
d="M430 874q0 57 40 97.5t97 40.5t97.5 -40t40.5 -98t-39.5 -97.5t-97.5 -39.5t-98 40t-40 97zM428 98q0 57 40 97.5t97 40.5t97 -40t40 -98t-39 -97.5t-97 -39.5t-98 40t-40 97zM51 401v168h1024v-168h-1024z" />
    <glyph glyph-name="oslash" unicode="&#xf8;" horiz-adv-x="1021" 
d="M440 139q95 0 190 150.5t95 302.5l-2 45q0 43 -8 68l-17 49l-266 -615h8zM324 340q0 -53 4 -71.5t24 -51.5l256 586l-18 2q-39 0 -95.5 -49t-113.5 -147.5t-57 -268.5zM78 356q0 274 149.5 448.5t386.5 174.5q37 0 68 -6l61 143l103 -33l-62 -139q80 -27 128.5 -126
t48.5 -232q0 -260 -151 -437.5t-370 -177.5l-80 6l-63 -143l-98 31l61 141q-88 35 -135 126t-47 224z" />
    <glyph glyph-name="ugrave" unicode="&#xf9;" horiz-adv-x="1099" 
d="M432 1395h203l139 -336h-164zM111 164q0 41 4 61l110 715l248 27l-96 -623l-8 -78q0 -66 43 -65q74 0 166 100t131 185t61 229l33 225l250 27l-150 -967h-231l45 283l-51 -90q-43 -63 -135.5 -141.5t-231.5 -78.5q-188 1 -188 191z" />
    <glyph glyph-name="uacute" unicode="&#xfa;" horiz-adv-x="1099" 
d="M537 1059l245 336h244l-285 -336h-204zM111 164q0 41 4 61l110 715l248 27l-96 -623l-8 -78q0 -66 43 -65q74 0 166 100t131 185t61 229l33 225l250 27l-150 -967h-231l45 283l-51 -90q-43 -63 -135.5 -141.5t-231.5 -78.5q-188 1 -188 191z" />
    <glyph glyph-name="ucircumflex" unicode="&#xfb;" horiz-adv-x="1099" 
d="M340 1057l283 336h161l177 -336h-179l-102 186l-164 -186h-176zM111 164q0 41 4 61l110 715l248 27l-96 -623l-8 -78q0 -66 43 -65q74 0 166 100t131 185t61 229l33 225l250 27l-150 -967h-231l45 283l-51 -90q-43 -63 -135.5 -141.5t-231.5 -78.5q-188 1 -188 191z" />
    <glyph glyph-name="udieresis" unicode="&#xfc;" horiz-adv-x="1099" 
d="M741 1161q0 49 37 84t86 35t80 -35t31 -84t-38 -83t-87 -34t-79 34t-30 83zM371 1160q0 48 37.5 84t85.5 36t80 -34t32 -82t-39 -85t-87 -37t-78.5 35t-30.5 83zM111 164q0 41 4 61l110 715l248 27l-96 -623l-8 -78q0 -66 43 -65q74 0 166 100t131 185t61 229l33 225
l250 27l-150 -967h-231l45 283l-51 -90q-43 -63 -135.5 -141.5t-231.5 -78.5q-188 1 -188 191z" />
    <glyph glyph-name="yacute" unicode="&#xfd;" horiz-adv-x="899" 
d="M512 1102l248 336h244l-285 -336h-207zM893 780q0 -106 -40 -218t-83 -180q-44 -70 -144 -188t-118 -194l-115 -477h-243l110 450q16 66 16 121l-6 39l-209 807l248 27l144 -662q43 57 73 107t74 150q45 100 45 237q0 63 -20 127l252 41q16 -81 16 -187z" />
    <glyph glyph-name="ydieresis" unicode="&#xff;" horiz-adv-x="899" 
d="M575 1162q0 50 37.5 85t87.5 35t80.5 -33t30.5 -83t-39 -84.5t-87 -34.5t-79 32.5t-31 82.5zM221 1162q0 50 37 85t87 35t81 -33t31 -83t-39 -84.5t-87 -34.5t-79 32.5t-31 82.5zM893 780q0 -106 -40 -218t-83 -180.5t-143.5 -187t-118.5 -194.5l-115 -477h-243l110 450
q16 66 16 121l-6 39l-209 807l248 27l144 -662q43 57 72.5 106.5t74.5 150t45 237.5q0 63 -20 127l252 41q16 -81 16 -187z" />
    <glyph glyph-name="OE" unicode="&#x152;" horiz-adv-x="1880" 
d="M901 1163q-215 0 -370.5 -174t-155.5 -418q0 -174 101.5 -279.5t268.5 -105.5q70 0 109 12.5t104 55.5l134 852q-98 57 -191 57zM96 563q0 346 237.5 579.5t592.5 233.5q103 0 204 -24h807l-34 -219h-537l-53 -334h432l-33 -219h-434l-57 -361h555l-27 -219h-811
q-139 -27 -215 -27q-283 0 -455 162t-172 428z" />
    <glyph glyph-name="oe" unicode="&#x153;" horiz-adv-x="1536" 
d="M1274 723q0 88 -82 88q-70 0 -121 -60.5t-75.5 -113t-55.5 -152.5l322 181q12 33 12 57zM330 386q0 -120 32.5 -177t86.5 -57q20 0 43.5 9t72.5 51t95.5 147t46.5 211t-31 163.5t-81 57.5t-102.5 -42t-107.5 -142.5t-55 -220.5zM78 358q0 274 150.5 447.5t387.5 173.5
q82 0 141.5 -20.5t84 -47t47.5 -86.5l55 58q111 94 299 94q266 0 266 -199q0 -152 -170 -241l-411 -220q8 -61 22.5 -83.5t42 -37t49.5 -14.5t55 8.5t69 21.5t74 37.5t142 104.5l93 -145q-78 -65 -203 -152.5t-301 -87.5t-205 160l-51 -53q-109 -102 -283 -102t-264 98
t-90 286z" />
    <glyph glyph-name="Ydieresis" unicode="&#x178;" 
d="M815 1521q0 48 35 80.5t83 32.5t76.5 -30.5t28.5 -79.5t-36 -82t-84 -33t-75.5 32t-27.5 80zM375 1524q0 47 34.5 79.5t82.5 32.5t77 -30.5t29 -79.5t-35 -82t-83 -33t-76.5 33t-28.5 80zM158 1352h276l187 -525l364 525h295l-578 -779l-90 -573h-262l92 590z" />
    <glyph glyph-name="circumflex" unicode="&#x2c6;" horiz-adv-x="1069" 
d="M49 0l426 967h115l426 -967h-168l-322 721l-323 -721h-154z" />
    <glyph glyph-name="uni02C9" unicode="&#x2c9;" horiz-adv-x="831" 
d="M489 1104l41 129h560l-41 -129h-560z" />
    <glyph glyph-name="tilde" unicode="&#x2dc;" horiz-adv-x="512" 
d="M430 237q-142 -115 -291 -115q-66 0 -128 36q-61 36 -85 48t-62 11t-60 -9t-70 -36l-31 -19l-51 117q93 55 152 79q59 23 116 23l23 -2q38 0 75 -22l76 -45q51 -33 101 -33t82 16t102 60z" />
    <glyph glyph-name="tildecomb" unicode="&#x303;" horiz-adv-x="929" 
d="M1112 1159q-142 -115 -291 -115q-66 0 -128 36t-85.5 47.5t-61.5 11.5t-59.5 -8.5t-70.5 -36.5l-31 -19l-51 117q93 55 152 78.5t116 23.5l23 -2q38 0 75 -22l76 -45q51 -33 101 -33t82 16.5t102 59.5z" />
    <glyph glyph-name="uni2000" unicode="&#x2000;" horiz-adv-x="917" 
 />
    <glyph glyph-name="uni2001" unicode="&#x2001;" horiz-adv-x="1835" 
 />
    <glyph glyph-name="uni2002" unicode="&#x2002;" horiz-adv-x="917" 
 />
    <glyph glyph-name="uni2003" unicode="&#x2003;" horiz-adv-x="1835" 
 />
    <glyph glyph-name="uni2004" unicode="&#x2004;" horiz-adv-x="610" 
 />
    <glyph glyph-name="uni2005" unicode="&#x2005;" horiz-adv-x="458" 
 />
    <glyph glyph-name="uni2006" unicode="&#x2006;" horiz-adv-x="305" 
 />
    <glyph glyph-name="uni2007" unicode="&#x2007;" horiz-adv-x="305" 
 />
    <glyph glyph-name="uni2008" unicode="&#x2008;" horiz-adv-x="229" 
 />
    <glyph glyph-name="uni2009" unicode="&#x2009;" horiz-adv-x="366" 
 />
    <glyph glyph-name="uni200A" unicode="&#x200a;" horiz-adv-x="100" 
 />
    <glyph glyph-name="uni2010" unicode="&#x2010;" horiz-adv-x="565" 
d="M57 356l39 228h428l-37 -228h-430z" />
    <glyph glyph-name="uni2011" unicode="&#x2011;" horiz-adv-x="565" 
d="M57 356l39 228h428l-37 -228h-430z" />
    <glyph glyph-name="figuredash" unicode="&#x2012;" horiz-adv-x="565" 
d="M57 356l39 228h428l-37 -228h-430z" />
    <glyph glyph-name="endash" unicode="&#x2013;" 
d="M-2 391l27 170h1085l-27 -170h-1085z" />
    <glyph glyph-name="emdash" unicode="&#x2014;" horiz-adv-x="2048" 
d="M-2 391l27 170h2048l-27 -170h-2048z" />
    <glyph glyph-name="quoteleft" unicode="&#x2018;" horiz-adv-x="514" 
d="M303 725q-135 0 -135 127q0 92 67.5 228.5t180.5 271.5h145q-111 -173 -145 -308l69 -272q-99 -47 -182 -47z" />
    <glyph glyph-name="quoteright" unicode="&#x2019;" horiz-adv-x="514" 
d="M416 1376q135 0 135 -127q0 -90 -68.5 -228t-177.5 -269h-147q109 163 145 305l-70 274q63 29 97.5 37t85.5 8z" />
    <glyph glyph-name="quotesinglbase" unicode="&#x201a;" horiz-adv-x="514" 
d="M251 287q126 0 126 -127q0 -90 -67.5 -226.5t-180.5 -271.5h-147q115 170 145 305l-70 275q61 29 96 37t98 8z" />
    <glyph glyph-name="quotedblleft" unicode="&#x201c;" horiz-adv-x="894" 
d="M687 725q-77 0 -108.5 29.5t-31.5 109.5t67.5 216.5t180.5 271.5h145q-110 -167 -143 -308l67 -272q-100 -47 -177 -47zM303 725q-135 0 -135 127q0 92 67.5 228.5t180.5 271.5h145q-111 -173 -145 -308l69 -272q-99 -47 -182 -47z" />
    <glyph glyph-name="quotedblright" unicode="&#x201d;" horiz-adv-x="894" 
d="M793 1395q78 0 109.5 -29.5t31.5 -109.5t-67.5 -216.5t-180.5 -271.5h-145q89 143 110 200.5t33 104.5l-68 275q99 47 177 47zM415 1395q77 0 108.5 -29.5t31.5 -109.5t-67.5 -216.5t-180.5 -271.5h-147q107 155 145 305l-69 275q102 47 179 47z" />
    <glyph glyph-name="quotedblbase" unicode="&#x201e;" horiz-adv-x="890" 
d="M630 287q126 0 126 -127q0 -90 -67.5 -226.5t-180.5 -271.5h-146q113 167 144 305l-70 275q61 29 96.5 37t97.5 8zM251 287q126 0 126 -127q0 -90 -67.5 -226.5t-180.5 -271.5h-147q115 170 145 305l-70 275q61 29 96 37t98 8z" />
    <glyph glyph-name="bullet" unicode="&#x2022;" horiz-adv-x="720" 
d="M39 471q0 135 105.5 233.5t240.5 98.5t221 -94.5t86 -229.5t-106.5 -233.5t-242.5 -98.5t-220 94.5t-84 229.5z" />
    <glyph glyph-name="ellipsis" unicode="&#x2026;" horiz-adv-x="1536" 
d="M1067 140q0 69 51.5 117t119.5 48t111.5 -47t43.5 -115t-53.5 -117t-119.5 -49t-109.5 47t-43.5 116zM551 140q0 69 51.5 117t119.5 48t111.5 -47t43.5 -115t-53.5 -117t-119.5 -49t-109.5 47t-43.5 116zM23 138q0 69 51.5 118t119.5 49t111 -47t43 -116t-53 -118
t-121 -49t-109.5 47t-41.5 116z" />
    <glyph glyph-name="uni202F" unicode="&#x202f;" horiz-adv-x="366" 
 />
    <glyph glyph-name="guilsinglleft" unicode="&#x2039;" horiz-adv-x="657" 
d="M61 463l566 399l-39 -244l-232 -155l183 -154l-39 -246z" />
    <glyph glyph-name="guilsinglright" unicode="&#x203a;" horiz-adv-x="657" 
d="M49 63l39 246l229 154l-180 155l39 244l438 -399z" />
    <glyph glyph-name="uni205F" unicode="&#x205f;" horiz-adv-x="458" 
 />
    <glyph glyph-name="trademark" unicode="&#x2122;" horiz-adv-x="1767" 
d="M1137 1147h-13l-71 -453h-181l105 658h297l65 -400l4 -51h13l22 51l205 400h307l-102 -658h-207l70 439h-13l-28 -91l-209 -348h-180l-84 363v90zM283 1198l24 154h567l-24 -154h-180l-80 -504h-207l80 504h-180z" />
    <glyph glyph-name="uniE000" unicode="&#xe000;" horiz-adv-x="965" 
d="M0 965h965v-965h-965v965z" />
    <glyph glyph-name="uniFB01" unicode="&#xfb01;" horiz-adv-x="1101" 
d="M661 0l145 940l248 27l-149 -967h-244zM706 1313q-145 0 -188 -256l-16 -105h190l-28 -184h-193l-127 -819q-25 -171 -114 -299q-44 -64 -131 -107t-188 -43t-159 22q-57 22 -110 54l94 193q70 -37 104 -49t80 -11q70 1 123 69t72 183l123 807h-193l27 172l198 12l29 181
q29 176 141 274t283 98h37q64 0 116 -14t156 -53l-1 -2q21 -11 45 -45q23 -35 23 -97q-8 -75 -53 -114t-95 -39t-81 43t-31 102l1 9q-63 18 -134 18z" />
    <glyph glyph-name="uniFB02" unicode="&#xfb02;" horiz-adv-x="1081" 
d="M708 1313q-73 1 -120 -59t-70 -197l-16 -105h190l-28 -184h-193l-127 -819q-25 -171 -114 -299q-44 -64 -131 -107t-188 -43t-159 22q-57 22 -110 54l94 193q70 -37 104 -49t80 -11q70 1 123 69t72 183l123 807h-193l27 172l198 12l29 181q29 176 141 274t283 98h37
q69 0 143 -21l223 23l-238 -1507h-243l203 1293q-67 20 -140 20z" />
    <glyph glyph-name="uniFB03" unicode="&#xfb03;" horiz-adv-x="1677" 
d="M1237 0l145 940l248 27l-149 -967h-244zM1282 1313q-72 1 -119 -59t-70 -197l-16 -105h190l-28 -184h-193l-127 -819q-25 -171 -114 -299q-44 -64 -131 -107t-188 -43t-159 22q-57 22 -110 54l94 193q71 -37 105 -49t79 -11q70 1 123 69t72 183l123 807h-342l-127 -819
q-25 -171 -114 -299q-44 -64 -131 -107t-188 -43t-159 22q-57 22 -110 54l94 193q70 -37 104 -49t80 -11q70 1 123 69t72 183l123 807h-193l27 172l198 12l29 181q29 176 141 274t283 98h37q64 0 116 -14t156 -53l-9 -23q109 90 275 90h37q63 0 115 -14t157 -53l-1 -2
q22 -11 46 -45q23 -35 23 -97q-8 -75 -53 -114t-95 -39t-81 43t-31 102l1 9q-62 18 -134 18zM719 1313q-84 1 -131 -59t-70 -197l-16 -105h190l-1 -9l154 9l29 181q12 75 40 136q-111 44 -195 44z" />
    <glyph glyph-name="uniFB04" unicode="&#xfb04;" horiz-adv-x="1656" 
d="M1283 1313q-73 1 -120 -59t-70 -197l-16 -105h190l-28 -184h-193l-127 -819q-25 -171 -114 -299q-44 -64 -131 -107t-188 -43t-159 22q-57 22 -110 54l94 193q71 -37 105 -49t79 -11q70 1 123 69t72 183l123 807h-342l-127 -819q-25 -171 -114 -299q-44 -64 -131 -107
t-188 -43t-159 22q-57 22 -110 54l94 193q70 -37 104 -49t80 -11q70 1 123 69t72 183l123 807h-193l27 172l198 12l29 181q29 176 141 274t283 98h37q64 0 116 -14t156 -53l-9 -23q109 90 275 90h37q70 0 143 -21l224 23l-238 -1507h-243l203 1292q-68 21 -141 21zM719 1313
q-84 1 -131 -59t-70 -197l-16 -105h190l-1 -9l154 9l29 181q12 75 40 136q-111 44 -195 44z" />
  </font>
</defs>
</svg>
